<svg width="20" height="16" viewBox="0 0 20 16" fill="none" xmlns="http://www.w3.org/2000/svg">
<path d="M1.25556 10.6339L6.14444 15.5927C6.40266 15.8536 6.75224 16 7.11667 16C7.48109 16 7.83067 15.8536 8.08889 15.5927L8.74444 14.9278C8.99963 14.6626 9.14247 14.3066 9.14247 13.936C9.14247 13.5654 8.99963 13.2095 8.74444 12.9443L6.32222 10.4874C6.26826 10.4307 6.23172 10.3593 6.21709 10.282C6.20245 10.2046 6.21034 10.1246 6.2398 10.0517C6.26926 9.97876 6.319 9.91613 6.38297 9.87143C6.44693 9.82672 6.52235 9.80188 6.6 9.79992H18.6667C19.0194 9.79698 19.3568 9.65355 19.6063 9.40056C19.8557 9.14757 19.9971 8.80529 20 8.44752V7.53464C19.9992 7.19892 19.8763 6.87531 19.6549 6.62577C19.4335 6.37623 19.1291 6.21831 18.8 6.18224H6.57778C6.50012 6.18028 6.42471 6.15544 6.36075 6.11073C6.29678 6.06603 6.24703 6.0034 6.21758 5.9305C6.18812 5.8576 6.18023 5.77757 6.19487 5.70019C6.2095 5.62281 6.24603 5.55143 6.3 5.49476L8.74444 3.0379C9.0016 2.77598 9.14598 2.4214 9.14598 2.05177C9.14598 1.68213 9.0016 1.32755 8.74444 1.06564L8.08889 0.411975C7.96177 0.281469 7.81038 0.177852 7.64349 0.107133C7.4766 0.0364145 7.29753 0 7.11667 0C6.9358 0 6.75673 0.0364145 6.58984 0.107133C6.42295 0.177852 6.27156 0.281469 6.14444 0.411975L1.25556 5.35952C0.541341 6.0593 0 6.86961 0 7.99672C0 9.12382 0.555059 9.92415 1.25556 10.6339Z" fill="#2C2C31"/>
</svg>
