<svg width="25" height="24" viewBox="0 0 25 24" fill="none" xmlns="http://www.w3.org/2000/svg">
<path d="M12.2799 12.7103L9.27987 15.6203C9.16649 15.732 9.07645 15.865 9.01499 16.0118C8.95353 16.1586 8.92188 16.3162 8.92188 16.4753C8.92188 16.6344 8.95353 16.792 9.01499 16.9388C9.07645 17.0855 9.16649 17.2186 9.27987 17.3303L9.59987 17.6503C9.8254 17.8678 10.1265 17.9894 10.4399 17.9894C10.7532 17.9894 11.0543 17.8678 11.2799 17.6503L15.0399 14.0003C15.5972 13.4713 15.9511 12.7635 16.0399 12.0003C15.9511 11.2371 15.5972 10.5293 15.0399 10.0003L11.3199 6.33029C11.0943 6.11276 10.7932 5.99121 10.4799 5.99121C10.1665 5.99121 9.8654 6.11276 9.63987 6.33029L9.31987 6.65029C9.20649 6.76195 9.11645 6.89505 9.05499 7.04183C8.99353 7.18862 8.96188 7.34616 8.96188 7.50529C8.96188 7.66442 8.99353 7.82197 9.05499 7.96875C9.11645 8.11554 9.20649 8.24863 9.31987 8.36029L12.3199 11.2703C12.4141 11.3662 12.488 11.4802 12.5372 11.6054C12.5864 11.7306 12.6098 11.8644 12.6061 11.9988C12.6023 12.1332 12.5715 12.2655 12.5155 12.3878C12.4594 12.51 12.3793 12.6197 12.2799 12.7103Z" fill="white"/>
</svg>
