<svg width="24" height="24" viewBox="0 0 24 24" fill="none" xmlns="http://www.w3.org/2000/svg">
<path d="M3.48 13.7404H15.12C15.2199 13.7398 15.3177 13.7692 15.4008 13.8247C15.4839 13.8802 15.5485 13.9594 15.5861 14.052C15.6238 14.1445 15.6329 14.2462 15.6122 14.344C15.5915 14.4418 15.542 14.5311 15.47 14.6004L13.35 16.6904C13.2082 16.8292 13.0955 16.9949 13.0186 17.1778C12.9417 17.3606 12.9021 17.557 12.9021 17.7554C12.9021 17.9538 12.9417 18.1502 13.0186 18.3331C13.0955 18.516 13.2082 18.6817 13.35 18.8204L13.81 19.2804C14.0933 19.5536 14.4715 19.7062 14.865 19.7062C15.2585 19.7062 15.6367 19.5536 15.92 19.2804L20.72 14.5504C21.4258 13.8719 21.8776 12.9718 22 12.0004C21.8808 11.0352 21.4364 10.1394 20.74 9.46044L15.94 4.73044C15.6567 4.45731 15.2785 4.30469 14.885 4.30469C14.4915 4.30469 14.1133 4.45731 13.83 4.73044L13.37 5.18044C13.2279 5.32006 13.115 5.48658 13.038 5.67029C12.9609 5.85401 12.9212 6.05123 12.9212 6.25044C12.9212 6.44966 12.9609 6.64688 13.038 6.83059C13.115 7.0143 13.2279 7.18083 13.37 7.32044L15.49 9.41044C15.5636 9.47831 15.6147 9.56711 15.6364 9.66489C15.658 9.76267 15.6492 9.86473 15.611 9.95734C15.5729 10.0499 15.5073 10.1286 15.4231 10.1828C15.3389 10.237 15.2401 10.2641 15.14 10.2604H3.5C3.10218 10.2604 2.72065 10.4185 2.43935 10.6998C2.15804 10.9811 2 11.3626 2 11.7604V12.2404C1.99996 12.6348 2.15526 13.0134 2.43225 13.2941C2.70924 13.5748 3.08565 13.7352 3.48 13.7404Z" fill="#1E5AF6"/>
</svg>
