<svg width="16" height="16" viewBox="0 0 16 16" fill="none" xmlns="http://www.w3.org/2000/svg">
<g clip-path="url(#clip0_4406_206485)">
<path d="M3.14258 10.541H12.793V12.7684C12.793 12.9272 12.7617 13.0845 12.701 13.2312C12.6402 13.3779 12.5511 13.5112 12.4388 13.6235C12.3265 13.7358 12.1932 13.8249 12.0465 13.8857C11.8998 13.9464 11.7425 13.9777 11.5837 13.9777H4.35187C4.19287 13.9777 4.03542 13.9463 3.88854 13.8854C3.74167 13.8245 3.60825 13.7352 3.49593 13.6227C3.3836 13.5101 3.29458 13.3765 3.23395 13.2295C3.17331 13.0825 3.14227 12.925 3.14258 12.766V10.541Z" fill="#1E796F"/>
<path d="M4.70108 11.7475H12.7933V12.1992C12.7933 12.3676 12.76 12.5343 12.6953 12.6898C12.6305 12.8453 12.5357 12.9864 12.4161 13.105C12.2966 13.2236 12.1548 13.3175 11.9989 13.381C11.8429 13.4446 11.6759 13.4767 11.5075 13.4754H4.70108C4.47163 13.4754 4.25158 13.3843 4.08933 13.222C3.92709 13.0598 3.83594 12.8397 3.83594 12.6103C3.83594 12.3808 3.92709 12.1608 4.08933 11.9985C4.25158 11.8363 4.47163 11.7451 4.70108 11.7451V11.7475Z" fill="#A3F1C2"/>
<path d="M12.7934 9.99805H10.8623V12.0653H12.7934V9.99805Z" fill="#A3F1C2"/>
<path d="M4.35187 2.41992H11.5837C11.7425 2.41992 11.8998 2.4512 12.0465 2.51197C12.1932 2.57275 12.3265 2.66182 12.4388 2.77412C12.5511 2.88641 12.6402 3.01972 12.701 3.16644C12.7617 3.31316 12.793 3.47041 12.793 3.62922V10.536C12.793 10.6949 12.7617 10.8521 12.701 10.9988C12.6402 11.1455 12.5511 11.2789 12.4388 11.3911C12.3265 11.5034 12.1932 11.5925 12.0465 11.6533C11.8998 11.7141 11.7425 11.7453 11.5837 11.7453H3.14258V3.61966C3.1451 3.30059 3.27362 2.99545 3.50013 2.77073C3.72665 2.54601 4.0328 2.41991 4.35187 2.41992Z" fill="#1E796F"/>
<path d="M4.35187 2.28613H11.5837C11.7425 2.28613 11.8998 2.31741 12.0465 2.37818C12.1932 2.43896 12.3265 2.52803 12.4388 2.64033C12.5511 2.75262 12.6402 2.88593 12.701 3.03265C12.7617 3.17937 12.793 3.33662 12.793 3.49543V9.90038C12.793 10.0592 12.7617 10.2164 12.701 10.3632C12.6402 10.5099 12.5511 10.6432 12.4388 10.7555C12.3265 10.8678 12.1932 10.9568 12.0465 11.0176C11.8998 11.0784 11.7425 11.1097 11.5837 11.1097H3.14258V3.49543C3.14258 3.1747 3.26999 2.86711 3.49677 2.64033C3.72356 2.41354 4.03115 2.28613 4.35187 2.28613V2.28613Z" fill="#61D2A4"/>
<path d="M3.14258 12.6132V11.1123H4.40684C4.24093 11.112 4.07658 11.1444 3.92321 11.2077C3.76983 11.2709 3.63045 11.3638 3.51302 11.4811C3.39559 11.5983 3.30242 11.7375 3.23886 11.8907C3.1753 12.044 3.14258 12.2083 3.14258 12.3742V12.6132Z" fill="#61D2A4"/>
<path d="M6.46 13.9182L5.93661 13.5262L5.41322 13.9182C5.37555 13.9453 5.33114 13.9616 5.28483 13.9653C5.23853 13.9689 5.19211 13.9597 5.15067 13.9387C5.10923 13.9178 5.07434 13.8858 5.04984 13.8464C5.02533 13.8069 5.01215 13.7615 5.01172 13.715V12.6133H6.86151V13.715C6.86108 13.7615 6.84789 13.8069 6.82339 13.8464C6.79888 13.8858 6.764 13.9178 6.72255 13.9387C6.68111 13.9597 6.6347 13.9689 6.58839 13.9653C6.54209 13.9616 6.49767 13.9453 6.46 13.9182Z" fill="#61D2A4"/>
<path fill-rule="evenodd" clip-rule="evenodd" d="M7.14049 4.01628C7.12079 4.00837 7.09971 4.00446 7.07848 4.00478L5.58957 4C5.55777 4.00039 5.52694 4.011 5.50163 4.03026C5.47633 4.04952 5.45789 4.07641 5.44905 4.10696C5.44021 4.13751 5.44143 4.17009 5.45253 4.19989C5.46363 4.2297 5.48403 4.25513 5.5107 4.27245L7.18364 5.33118H7.241V4.1649C7.241 4.14367 7.23678 4.12265 7.22858 4.10307C7.22039 4.08349 7.20838 4.06573 7.19326 4.05083C7.17813 4.03592 7.1602 4.02418 7.14049 4.01628ZM10.4196 4.27723L8.74664 5.33595H8.69884V4.1649C8.69884 4.14387 8.70299 4.12305 8.71103 4.10362C8.71908 4.0842 8.73087 4.06654 8.74574 4.05167C8.76061 4.03681 8.77826 4.02501 8.79769 4.01696C8.81712 4.00892 8.83794 4.00478 8.85897 4.00478H10.3335C10.366 4.00357 10.3979 4.01304 10.4244 4.03173C10.4509 4.05042 10.4706 4.07729 10.4803 4.10823C10.4901 4.13916 10.4895 4.17245 10.4785 4.20298C10.4675 4.23351 10.4468 4.25959 10.4196 4.27723ZM8.32123 5.71833V4.16488C8.32124 4.14365 8.31702 4.12264 8.30882 4.10305C8.30063 4.08347 8.28862 4.06571 8.27349 4.05081C8.25837 4.03591 8.24043 4.02416 8.22073 4.01626C8.20103 4.00835 8.17995 4.00444 8.15872 4.00476H7.78589C7.76467 4.00444 7.74359 4.00835 7.72388 4.01626C7.70418 4.02416 7.68624 4.03591 7.67112 4.05081C7.656 4.06571 7.64399 4.08347 7.63579 4.10305C7.6276 4.12264 7.62338 4.14365 7.62338 4.16488V5.71833H4.92518C4.90394 5.71832 4.88293 5.72254 4.86334 5.73074C4.84376 5.73893 4.826 5.75094 4.8111 5.76607C4.7962 5.78119 4.78445 5.79912 4.77655 5.81883C4.76864 5.83853 4.76473 5.85961 4.76505 5.88084V6.25366C4.76473 6.27489 4.76864 6.29597 4.77655 6.31568C4.78445 6.33538 4.7962 6.35331 4.8111 6.36844C4.826 6.38356 4.84376 6.39557 4.86334 6.40376C4.88293 6.41196 4.90394 6.41618 4.92518 6.41618H7.62338V7.96006C7.62306 7.98149 7.62704 8.00277 7.63509 8.02263C7.64315 8.04249 7.65511 8.06054 7.67026 8.07569C7.68542 8.09085 7.70346 8.10281 7.72332 8.11086C7.74319 8.11891 7.76446 8.1229 7.78589 8.12257H8.15872C8.18015 8.1229 8.20143 8.11891 8.22129 8.11086C8.24115 8.10281 8.2592 8.09085 8.27435 8.07569C8.28951 8.06054 8.30147 8.04249 8.30952 8.02263C8.31757 8.00277 8.32156 7.98149 8.32123 7.96006V6.41618H11.0075C11.0289 6.4165 11.0502 6.41252 11.0701 6.40446C11.0899 6.39641 11.108 6.38445 11.1231 6.3693C11.1383 6.35414 11.1502 6.3361 11.1583 6.31624C11.1663 6.29637 11.1703 6.2751 11.17 6.25366V5.88084C11.1703 5.85941 11.1663 5.83813 11.1583 5.81827C11.1502 5.79841 11.1383 5.78036 11.1231 5.76521C11.108 5.75005 11.0899 5.73809 11.0701 5.73004C11.0502 5.72199 11.0289 5.718 11.0075 5.71833H8.32123ZM11.17 4.52815V5.17343C11.1703 5.19486 11.1664 5.21614 11.1583 5.236C11.1503 5.25586 11.1383 5.27391 11.1231 5.28906C11.108 5.30422 11.0899 5.31617 11.0701 5.32423C11.0502 5.33228 11.0289 5.33626 11.0075 5.33594H9.48513L10.9454 4.40627C10.9673 4.39214 10.9927 4.38417 11.0188 4.38319C11.0449 4.38222 11.0708 4.38828 11.0938 4.40074C11.1167 4.41319 11.1359 4.43159 11.1493 4.45401C11.1627 4.47642 11.1699 4.50203 11.17 4.52815ZM4.9921 7.72111L6.45234 6.7986L4.91324 6.79143C4.87077 6.79143 4.83004 6.8083 4.80001 6.83833C4.76998 6.86836 4.75311 6.90909 4.75311 6.95156V7.59683C4.75171 7.62516 4.75846 7.6533 4.77258 7.6779C4.7867 7.70251 4.80758 7.72254 4.83274 7.73563C4.85791 7.74872 4.8863 7.7543 4.91455 7.75173C4.9428 7.74916 4.96972 7.73853 4.9921 7.72111ZM6.44993 5.33116H4.92517C4.90394 5.33116 4.88292 5.32694 4.86334 5.31874C4.84375 5.31055 4.826 5.29854 4.8111 5.28342C4.79619 5.26829 4.78445 5.25036 4.77655 5.23065C4.76864 5.21095 4.76473 5.18987 4.76505 5.16864V4.52337C4.76412 4.49524 4.77123 4.46743 4.78554 4.44319C4.79984 4.41895 4.82075 4.39929 4.84582 4.3865C4.8709 4.37372 4.89909 4.36833 4.92711 4.37099C4.95513 4.37364 4.98181 4.38422 5.00404 4.40148L6.44993 5.33116ZM11.17 7.60397V6.95869C11.17 6.93746 11.1658 6.91644 11.1576 6.89686C11.1494 6.87727 11.1374 6.85951 11.1223 6.84461C11.1071 6.82971 11.0892 6.81797 11.0695 6.81006C11.0498 6.80216 11.0287 6.79825 11.0075 6.79857H9.48273L10.9454 7.72824C10.9676 7.74168 10.9931 7.74901 11.0191 7.74949C11.0451 7.74998 11.0708 7.7436 11.0936 7.731C11.1164 7.7184 11.1354 7.70003 11.1488 7.67773C11.1622 7.65543 11.1695 7.62999 11.17 7.60397ZM7.25058 6.7986V7.9601C7.25091 7.98153 7.24692 8.00281 7.23887 8.02267C7.23082 8.04253 7.21886 8.06058 7.2037 8.07573C7.18855 8.09089 7.1705 8.10285 7.15064 8.1109C7.13078 8.11895 7.1095 8.12293 7.08807 8.12261H5.60633C5.57434 8.1232 5.54304 8.11325 5.51727 8.0943C5.49149 8.07534 5.47267 8.04843 5.4637 8.01772C5.45473 7.98701 5.45611 7.9542 5.46763 7.92435C5.47916 7.8945 5.50018 7.86927 5.52746 7.85255L7.2004 6.79143L7.25058 6.7986ZM8.86377 8.12973H10.3383C10.3705 8.13087 10.4022 8.12132 10.4284 8.10256C10.4546 8.0838 10.4739 8.05689 10.4831 8.02604C10.4924 7.99518 10.4912 7.96212 10.4797 7.93202C10.4682 7.90192 10.4471 7.87648 10.4196 7.85967L8.74667 6.79855H8.70365V7.96721C8.70333 7.98844 8.70724 8.00952 8.71514 8.02922C8.72305 8.04893 8.73479 8.06686 8.74969 8.08199C8.76459 8.09711 8.78235 8.10912 8.80194 8.11731C8.82152 8.12551 8.84254 8.12973 8.86377 8.12973Z" fill="#1E796F"/>
</g>
<defs>
<clipPath id="clip0_4406_206485">
<rect width="9.65045" height="11.6914" fill="white" transform="translate(3.14258 2.28613)"/>
</clipPath>
</defs>
</svg>
