<svg width="27" height="24" viewBox="0 0 27 24" fill="none" xmlns="http://www.w3.org/2000/svg">
<g opacity="0.45">
<path opacity="0.45" d="M4.23869 9.92414C3.70378 12.7292 6.66914 16.7205 11.1047 17.945C15.5404 19.1696 22.7664 16.8319 23.5631 14.0869C24.3597 11.3419 17.599 6.37148 13.1714 5.12937C8.74382 3.88725 4.89826 6.45853 4.23869 9.92414Z" fill="#B69F21"/>
</g>
<path d="M9.71309 14.8973C9.24801 10.9917 12.0969 7.45566 16.0764 6.99922C20.0558 6.54277 23.6587 9.33881 24.1238 13.2443C24.5889 17.1499 21.74 20.6859 17.7606 21.1424C13.7811 21.5988 10.1782 18.8028 9.71309 14.8973Z" fill="#DAC230"/>
<path d="M16.2765 19.4016C12.2977 18.9399 9.43232 15.5776 9.87642 11.8917C10.3205 8.20591 13.906 5.59228 17.8848 6.05404C21.8635 6.5158 24.7289 9.8781 24.2848 13.5639C23.8407 17.2498 20.2553 19.8634 16.2765 19.4016Z" fill="#FEE643"/>
<path d="M13.6145 12.2805C11.9235 10.1758 12.2912 7.12416 14.4357 5.46456C16.5803 3.80495 19.6896 4.16581 21.3806 6.27056C23.0716 8.37531 22.704 11.4269 20.5594 13.0865C18.4148 14.7461 15.3055 14.3853 13.6145 12.2805Z" fill="#DAC230"/>
<path d="M17.0807 12.7278C14.3685 12.4131 12.4192 10.0889 12.7267 7.53661C13.0342 4.98434 15.4821 3.17048 18.1943 3.48525C20.9064 3.80001 22.8558 6.1242 22.5483 8.67647C22.2407 11.2287 19.7928 13.0426 17.0807 12.7278Z" fill="#FEEE71"/>
</svg>
