<svg width="24" height="24" viewBox="0 0 24 24" fill="none" xmlns="http://www.w3.org/2000/svg">
<path d="M11.7799 12.7103L8.77987 15.6203C8.66649 15.732 8.57645 15.865 8.51499 16.0118C8.45353 16.1586 8.42188 16.3162 8.42188 16.4753C8.42188 16.6344 8.45353 16.792 8.51499 16.9388C8.57645 17.0855 8.66649 17.2186 8.77987 17.3303L9.09987 17.6503C9.3254 17.8678 9.62653 17.9894 9.93987 17.9894C10.2532 17.9894 10.5543 17.8678 10.7799 17.6503L14.5399 14.0003C15.0972 13.4713 15.4511 12.7635 15.5399 12.0003C15.4511 11.2371 15.0972 10.5293 14.5399 10.0003L10.8199 6.33029C10.5943 6.11276 10.2932 5.99121 9.97987 5.99121C9.66653 5.99121 9.3654 6.11276 9.13987 6.33029L8.81987 6.65029C8.70649 6.76195 8.61645 6.89505 8.55499 7.04183C8.49353 7.18862 8.46188 7.34616 8.46188 7.50529C8.46188 7.66442 8.49353 7.82197 8.55499 7.96875C8.61645 8.11554 8.70649 8.24863 8.81987 8.36029L11.8199 11.2703C11.9141 11.3662 11.988 11.4802 12.0372 11.6054C12.0864 11.7306 12.1098 11.8644 12.1061 11.9988C12.1023 12.1332 12.0715 12.2655 12.0155 12.3878C11.9594 12.51 11.8793 12.6197 11.7799 12.7103Z" fill="white"/>
</svg>
