<svg width="16" height="16" viewBox="0 0 16 16" fill="none" xmlns="http://www.w3.org/2000/svg">
<path d="M7.5199 7.85976L5.5799 5.85976C5.50546 5.78417 5.41673 5.72414 5.31887 5.68317C5.22102 5.64219 5.11599 5.62109 5.0099 5.62109C4.90381 5.62109 4.79878 5.64219 4.70093 5.68317C4.60307 5.72414 4.51434 5.78417 4.4399 5.85976L4.23323 6.07309C4.08665 6.22263 4.00455 6.42369 4.00455 6.63309C4.00455 6.84249 4.08665 7.04355 4.23323 7.19309L6.66657 9.69976C7.02218 10.0672 7.49253 10.3024 7.9999 10.3664C8.50711 10.3019 8.9773 10.0668 9.33323 9.69976L11.7732 7.21976C11.9183 7.0694 11.9993 6.86865 11.9993 6.65976C11.9993 6.45086 11.9183 6.25011 11.7732 6.09976L11.5666 5.88642C11.4921 5.81083 11.4034 5.75081 11.3055 5.70983C11.2077 5.66886 11.1027 5.64776 10.9966 5.64776C10.8905 5.64776 10.7854 5.66886 10.6876 5.70983C10.5897 5.75081 10.501 5.81083 10.4266 5.88642L8.48657 7.88642C8.4225 7.9503 8.3461 8.00046 8.26202 8.03386C8.17794 8.06726 8.08794 8.0832 7.99751 8.0807C7.90707 8.07821 7.81809 8.05733 7.73598 8.01935C7.65387 7.98136 7.58035 7.92706 7.5199 7.85976Z" fill="#1E5AF6"/>
</svg>
