<svg width="72" height="56" viewBox="0 0 72 56" fill="none" xmlns="http://www.w3.org/2000/svg">
<g clip-path="url(#clip0_4349_297903)">
<path d="M59.9749 36.5982C61.1524 35.7522 62.5654 34.7352 62.2847 33.4842C62.0039 32.2332 61.4332 32.1522 61.4332 32.1522C61.4332 32.1522 62.0129 30.4962 60.3825 29.9022C58.7612 29.3082 57.9551 25.4922 57.9551 25.4922L55.111 26.5182C55.111 26.5182 54.3682 26.8512 54.1509 28.6152C53.9335 30.3882 53.6527 28.1832 53.9335 30.3882C54.2143 32.5932 51.5422 29.1642 54.3682 32.3862L57.1942 35.5992L59.9749 36.5982Z" fill="#1E5AF6"/>
<path d="M57.5023 17.4992C57.611 17.2112 57.8193 16.8692 58.1273 16.9142C58.2994 16.9592 58.4352 17.0672 58.5258 17.2202L60.9895 20.2712C61.0801 20.3972 61.2069 20.5142 61.3427 20.5952C61.5782 20.6852 61.8409 20.7032 62.0855 20.6402C63.5528 20.4242 64.8752 20.1272 66.3607 20.1182C67.185 20.1182 66.9313 20.9282 66.8589 21.0992C66.3154 22.2962 65.7267 23.4842 65.1107 24.6542C65.0292 24.7892 64.9749 24.9422 64.9568 25.0952C64.9386 25.3292 65.147 25.6082 65.2285 25.8242C65.8354 27.5522 66.3426 28.1912 66.569 29.6402C66.6143 29.8922 66.4241 30.7562 65.5727 30.5402C64.6579 30.3062 61.7866 28.8932 61.2159 28.6772C60.9442 28.5782 60.6091 28.7942 60.437 28.9742C59.3953 30.0452 59.3319 30.5312 58.1092 31.9441C57.7831 32.3131 57.3211 32.7362 56.8592 32.5562C56.4788 32.4122 56.3429 31.9441 56.2976 31.5392C56.1618 30.6032 56.1255 29.6492 56.1799 28.7042C56.207 28.1732 56.2252 27.2102 55.9625 26.8142C55.7632 26.5172 54.794 26.2292 54.0966 25.8152C53.6981 25.5722 52.8829 25.1942 52.4934 24.9422C52.0948 24.6902 51.5604 24.2672 51.7869 23.8712C52.1945 23.1692 55.0839 22.0982 56.2342 21.6662C56.7052 21.5132 57.0313 18.7592 57.5023 17.4992Z" fill="#FEE643"/>
<path d="M61.4043 28.7676C61.3228 28.7316 61.2594 28.7046 61.2051 28.6866C60.9333 28.5876 60.5982 28.8036 60.4261 28.9836C59.3845 30.0546 59.3301 30.5406 58.0983 31.9536C57.7722 32.3226 57.3102 32.7456 56.8483 32.5656C56.4679 32.4216 56.332 31.9536 56.2867 31.5486C56.178 30.7836 56.1327 30.0096 56.1509 29.2356C56.64 28.7406 57.2559 28.1106 57.6907 27.6246C57.7722 27.5346 57.8718 27.4626 57.9805 27.4086C58.524 27.1386 60.2268 26.3016 60.7159 26.1666C61.1416 26.0316 62.1108 27.0126 61.4043 28.7676Z" fill="#FEE643"/>
<path d="M24.1597 69.3034L22.1126 54.1654L19.8301 45.0574L24.4767 41.1964L39.6755 34.4824C40.6447 43.0324 50.436 60.8254 48.8328 70.0864L24.1597 69.3034Z" fill="#1E5AF6"/>
<path d="M60.4017 35.9142C61.3981 37.9482 61.4705 42.5382 59.7586 47.0922C59.6228 47.4702 59.4688 47.8392 59.3057 48.2172C59.2423 48.3612 59.1789 48.5052 59.1065 48.6492C58.5902 49.7562 57.9652 50.8092 57.2496 51.7902C57.0051 52.1322 56.7424 52.4652 56.4616 52.7982C55.5196 53.9142 54.4418 54.8952 53.2552 55.7322C50.3568 57.7662 46.5163 59.0622 41.5346 58.9902L36.8155 58.6032L34.4243 54.2562L36.1181 51.1692L37.667 51.0612C37.667 51.0612 39.9042 52.8342 42.3045 50.0442C42.7211 49.5402 43.0925 49.0002 43.4005 48.4242C43.5454 48.1632 43.6813 47.8842 43.8262 47.5872L44.0254 47.0832L45.1939 44.1222L45.4837 43.3932C48.3007 36.3012 52.4672 28.0483 54.632 26.1133C55.2207 26.3923 55.8185 26.6173 55.9635 26.8423C56.0812 27.0223 56.1446 27.3283 56.1718 27.6523C55.4743 28.8493 54.8403 29.8573 55.3656 30.0373C55.3656 30.0373 55.7098 29.6953 56.1537 29.2363C56.6428 28.7413 57.2587 28.1113 57.6935 27.6253C57.775 27.5353 57.8746 27.4633 57.9833 27.4093C58.5268 27.1393 60.2296 26.3113 60.7187 26.1673C61.1444 26.0413 62.1136 27.0133 61.4071 28.7683C61.1535 29.3983 60.6825 30.1273 59.9035 30.9463C58.2279 32.3593 59.1518 33.3673 60.4017 35.9142Z" fill="url(#paint0_linear_4349_297903)"/>
<path d="M16.9688 18.8856C16.5522 17.2566 10.8821 19.9566 9.96725 21.1536C9.77704 21.4056 6.2536 27.4986 6.71554 31.7826C7.17748 36.0936 10.2843 38.6856 13.4726 43.5006C16.7243 48.4056 17.0957 47.7666 19.9851 48.9096C22.8745 50.0526 23.8436 48.9456 26.8055 48.2796C29.7674 47.6226 29.1424 42.9426 29.1424 42.9426L16.9688 18.8856Z" fill="url(#paint1_linear_4349_297903)"/>
<path d="M29.6587 11.8029C29.0066 13.2429 28.2186 14.6829 27.349 15.9159C27.7566 16.6269 28.1642 17.3469 28.5718 18.0579C28.5718 18.0579 24.7766 27.4449 17.0685 18.9309C8.15577 9.08494 21.6608 11.5149 21.6608 11.5149C21.6608 11.5149 16.8421 8.61695 14.2244 6.49295C13.69 6.06095 13.2462 5.65595 12.9563 5.32295C11.2173 3.31596 15.8276 2.26296 19.0341 4.53996C21.4615 6.26795 23.2097 8.26595 24.994 10.9479L25.0031 10.9569C25.3563 11.4789 25.7005 12.0279 26.0628 12.6039C26.5429 9.23794 27.7476 5.10695 28.9251 2.79396C30.1931 0.300967 31.425 -0.0860313 31.6967 4.84596C31.7782 6.06995 30.9721 8.93194 29.6587 11.8029Z" fill="url(#paint2_linear_4349_297903)"/>
<path d="M40.7334 20.2177C41.5215 23.0977 43.0432 31.4137 43.1156 36.6246C43.2062 42.5466 41.2407 45.0396 36.3767 46.1376L27.8172 47.6046C23.5963 48.4596 21.4406 50.4216 17.6544 43.9326C14.2125 37.1376 11.4409 31.7827 9.7199 26.8957C7.89024 21.6937 10.997 18.2557 16.7668 16.6807C19.3029 15.9877 27.1741 14.0797 29.4113 13.7647C36.9292 12.4507 39.2208 14.2867 40.6157 19.7047" fill="url(#paint3_linear_4349_297903)"/>
<path d="M32.9558 66.5951C27.5302 76.9811 16.7063 73.1291 13.4999 66.3251C12.7209 64.6601 12.2499 62.8691 12.114 61.0331C12.0869 60.6461 12.0597 60.2591 12.0506 59.8721C11.8604 52.7621 15.0306 46.1021 18.0106 46.8851C19.5685 47.2901 20.4743 48.4151 21.054 49.7201C21.6065 50.9531 21.8601 52.3481 22.0956 53.4281C22.2586 54.1931 22.467 55.0391 22.8021 55.8401C23.4452 57.3701 24.5593 58.7021 26.7603 58.8731C26.7603 58.8731 28.2186 58.0001 30.637 59.5841C33.9521 61.7441 32.9558 66.5951 32.9558 66.5951Z" fill="url(#paint4_linear_4349_297903)"/>
<path d="M35.7896 55.2456C35.5722 55.5156 35.3186 55.6776 35.0197 55.5786C34.3947 55.3536 33.3893 53.9586 32.5107 52.5996C32.5107 52.6086 32.5198 52.6086 32.5198 52.6086C33.7698 53.8686 34.4763 54.1836 35.7896 55.2456Z" fill="#DAC230"/>
<path d="M17.574 58.9715C19.6754 59.3315 22.7369 58.5305 22.8184 55.8485C22.4833 55.0475 22.2749 54.1925 22.1119 53.4365C21.8764 52.3565 21.6137 50.9705 21.0703 49.7285C20.8257 56.2265 16.4508 54.1565 16.4508 54.1565C15.2371 57.9275 13.2082 60.0155 12.0669 59.8805C12.076 60.2675 12.0941 60.6545 12.1303 61.0415C12.2662 62.8775 12.7372 64.6685 13.5161 66.3335C14.6574 66.7025 17.6736 63.7685 17.574 58.9715Z" fill="#A8C4F8"/>
<path d="M11.9893 24.3857C12.0164 23.4407 12.3516 22.5317 12.8497 21.7577C13.3479 20.9747 13.9729 20.2817 14.6885 19.6967C15.404 19.1117 16.2011 18.6167 17.0435 18.2297C17.8949 17.8517 18.7825 17.5637 19.6883 17.3567C19.7879 17.3387 19.8876 17.3297 19.9872 17.3477C20.0868 17.3657 20.1865 17.4017 20.268 17.4557C20.3586 17.5097 20.431 17.5817 20.4854 17.6627C20.5397 17.7437 20.585 17.8427 20.6122 17.9417C20.6303 18.0407 20.6394 18.1397 20.6212 18.2387C20.6031 18.3377 20.5669 18.4367 20.5125 18.5177C20.4582 18.6077 20.3857 18.6797 20.3042 18.7337C20.2227 18.7877 20.1231 18.8327 20.0234 18.8597C19.9963 18.8687 19.9781 18.8687 19.951 18.8687H19.9329C19.1086 18.9677 18.3025 19.1567 17.5235 19.4177C16.7445 19.6877 15.9928 20.0567 15.3134 20.5247C14.625 20.9837 14.0091 21.5507 13.5019 22.1987C12.9947 22.8467 12.6324 23.6117 12.5327 24.4037V24.4217C12.5237 24.4937 12.4874 24.5567 12.4331 24.6017C12.3787 24.6467 12.3063 24.6647 12.2429 24.6647C12.1795 24.6647 12.107 24.6287 12.0617 24.5747C12.0164 24.5207 11.9893 24.4577 11.9893 24.3857Z" fill="#1737AB"/>
<path d="M20.6816 30.7662C22.5203 30.7662 24.0058 29.2902 24.0058 27.4632C24.0058 25.6362 22.5203 24.1602 20.6816 24.1602C18.8429 24.1602 17.3574 25.6362 17.3574 27.4632C17.3574 29.2812 18.8519 30.7662 20.6816 30.7662Z" fill="white"/>
<path d="M23.4615 30.2712C23.4433 30.1902 23.3981 30.1182 23.3437 30.0552C23.2894 30.0012 23.2078 29.9562 23.1263 29.9382H23.1173C23.0539 29.9202 22.9814 29.9292 22.918 29.9382C22.8546 29.9562 22.7912 29.9832 22.7368 30.0282C22.2749 30.3972 21.7133 30.6402 21.1246 30.7212C20.5358 30.8022 19.938 30.7302 19.3855 30.5052C18.833 30.2802 18.362 29.9112 17.9997 29.4342C17.6464 28.9572 17.42 28.3992 17.3657 27.8142C17.3022 27.2292 17.4019 26.6352 17.6555 26.0952C17.9091 25.5552 18.2986 25.0962 18.7877 24.7632C19.2768 24.4302 19.8475 24.2322 20.4453 24.1962C21.0431 24.1602 21.6318 24.2772 22.1662 24.5472C22.2568 24.5922 22.3564 24.6012 22.447 24.5832C22.5466 24.5652 22.6282 24.5112 22.6916 24.4392C22.7368 24.3852 22.764 24.3312 22.7821 24.2682C22.8003 24.2052 22.8003 24.1332 22.7912 24.0702C22.7821 24.0072 22.755 23.9442 22.7097 23.8902C22.6734 23.8362 22.6191 23.7912 22.5557 23.7642C22.0032 23.4852 21.3963 23.3322 20.7713 23.3142C20.1464 23.2962 19.5304 23.4222 18.9689 23.6652C18.3982 23.9172 17.891 24.2862 17.4925 24.7542C17.0849 25.2222 16.786 25.7712 16.6229 26.3652C16.4599 26.9592 16.4237 27.5802 16.5323 28.1922C16.641 28.8042 16.8765 29.3802 17.2388 29.8842C17.6012 30.3882 18.0631 30.8022 18.6066 31.1082C19.15 31.4142 19.7478 31.5942 20.3728 31.6302C20.4724 31.6392 20.5721 31.6392 20.6717 31.6392C21.6318 31.6392 22.5648 31.3062 23.3165 30.7032C23.3799 30.6492 23.4252 30.5862 23.4524 30.5052C23.4796 30.4332 23.4796 30.3432 23.4615 30.2712Z" fill="#1737AB"/>
<path d="M24.9193 36.8137C25.2273 35.1757 23.7056 33.5107 21.5318 33.1057C19.3579 32.7007 17.329 33.6997 17.0211 35.3467C16.7131 36.9847 18.2348 38.6497 20.4086 39.0547C22.5915 39.4597 24.6114 38.4607 24.9193 36.8137Z" fill="#5F88F1"/>
<path d="M42.0676 26.6973C41.7868 26.7423 41.506 26.8233 41.2524 26.9403C38.988 27.9843 37.892 30.0183 38.7978 31.4763C39.2235 32.1513 39.8485 32.6913 40.5821 33.0063C41.3158 33.3213 42.1401 33.4023 42.9281 33.2403C42.7379 31.1343 42.4571 28.9473 42.0676 26.6973Z" fill="#5F88F1"/>
<path d="M41.0912 21.6403C40.8466 20.7043 40.2941 18.7333 39.6238 17.3203C38.084 14.0893 36.354 13.7293 33.6729 13.6933C31.0824 13.6483 26.4811 14.2603 25.9014 14.3503L30.5027 13.4863C36.0551 12.5413 39.2706 13.3513 40.3122 17.7703C40.5024 18.5623 40.9643 21.0733 41.0912 21.6403Z" fill="url(#paint5_linear_4349_297903)"/>
<path d="M20.2825 30.7666C21.8223 30.7666 23.0722 29.5246 23.0722 27.9947C23.0722 26.4647 21.8223 25.2227 20.2825 25.2227C18.7426 25.2227 17.4927 26.4647 17.4927 27.9947C17.4927 29.5246 18.7426 30.7666 20.2825 30.7666Z" fill="#1737AB"/>
<path d="M29.9482 15.2225C30.6909 15.0515 31.4427 14.9255 32.2036 14.8535C32.9916 14.7815 33.7887 14.8265 34.5586 14.9885C35.3104 15.1595 36.035 15.4205 36.7143 15.7715C37.3755 16.1135 38.0186 16.4915 38.6436 16.9055C38.6979 16.9415 38.7342 16.9955 38.7432 17.0585C38.7613 17.1215 38.7432 17.1845 38.7161 17.2385C38.6889 17.2925 38.6345 17.3375 38.5711 17.3555C38.5077 17.3735 38.4443 17.3735 38.3809 17.3465C37.7378 17.0225 37.0857 16.7345 36.4154 16.4825C35.7632 16.2395 35.0839 16.0775 34.3955 16.0055C33.7253 15.9425 33.0459 15.9875 32.3847 16.1225C31.6963 16.2755 31.0261 16.4645 30.3649 16.6985C30.1656 16.7615 29.9573 16.7525 29.7671 16.6625C29.5859 16.5725 29.441 16.4105 29.3685 16.2215C29.3051 16.0235 29.3142 15.8165 29.4047 15.6275C29.4953 15.4475 29.6584 15.3035 29.8486 15.2315C29.8848 15.2315 29.921 15.2225 29.9482 15.2225Z" fill="#1737AB"/>
<path d="M20.4468 34.7539C18.9795 34.8619 17.5121 34.5739 16.1897 33.9349C14.3419 33.0259 13.0376 31.4869 12.5213 29.6059C12.0141 27.7249 12.3492 25.7449 13.4815 24.0079C14.5956 22.2979 16.3527 21.0379 18.427 20.4709C22.7384 19.2829 27.0952 21.4609 28.1459 25.3129C28.6621 27.1939 28.318 29.1739 27.1948 30.9109C26.0807 32.6209 24.3235 33.8809 22.2493 34.4479C21.6606 34.6099 21.0627 34.7089 20.4468 34.7539ZM20.2747 21.1099C19.7313 21.1459 19.1969 21.2359 18.6715 21.3799C16.8147 21.8929 15.2477 23.0089 14.2604 24.5299C13.2822 26.0329 12.9833 27.7429 13.4271 29.3539C13.8709 30.9649 14.9941 32.2879 16.5973 33.0799C18.2186 33.8809 20.1389 34.0429 21.9957 33.5299C23.8525 33.0169 25.4195 31.9009 26.4068 30.3799C27.385 28.8769 27.6839 27.1669 27.2401 25.5559C26.4611 22.6759 23.5083 20.8939 20.2747 21.1099Z" fill="#FEE643"/>
<path d="M38.8962 29.7319C37.3836 29.8489 35.871 29.5069 34.5576 28.7509C32.9725 27.8329 31.9218 26.4019 31.5958 24.7279C31.2697 23.0539 31.7045 21.3349 32.8276 19.9039C33.9326 18.4819 35.5811 17.5009 37.4651 17.1409C41.369 16.3939 45.1007 18.5719 45.771 22.0099C46.4413 25.4479 43.8145 28.8499 39.9016 29.6059C39.5665 29.6689 39.2314 29.7139 38.8962 29.7319ZM38.5249 17.8879C38.226 17.9059 37.9271 17.9509 37.6372 18.0049C35.9706 18.3289 34.5123 19.1929 33.5432 20.4439C32.5831 21.6769 32.2026 23.1439 32.4834 24.5659C32.7642 25.9879 33.6609 27.2029 35.0196 27.9949C36.3963 28.7959 38.072 29.0569 39.7386 28.7329C43.1624 28.0759 45.4721 25.1329 44.9015 22.1719C44.358 19.4809 41.6045 17.6809 38.5249 17.8879Z" fill="#FEE643"/>
<path d="M27.891 25.8065C27.8186 25.8065 27.7461 25.7975 27.6736 25.7615C27.6102 25.7345 27.5468 25.6895 27.5015 25.6355C27.4563 25.5905 27.4291 25.5365 27.411 25.4735C27.3928 25.4105 27.3838 25.3475 27.3838 25.2935C27.3928 25.2305 27.411 25.1675 27.4381 25.1135C27.4653 25.0595 27.5106 25.0055 27.5559 24.9695C28.6066 24.1055 30.3004 23.4125 31.9036 24.0425C31.967 24.0605 32.0213 24.0965 32.0666 24.1415C32.1119 24.1865 32.1481 24.2405 32.1753 24.2945C32.2025 24.3485 32.2115 24.4115 32.2115 24.4745C32.2115 24.5375 32.2025 24.6005 32.1753 24.6545C32.121 24.7715 32.0213 24.8615 31.9036 24.9155C31.7858 24.9695 31.65 24.9605 31.5232 24.9155C30.3457 24.4475 28.9961 25.0415 28.208 25.6895C28.1084 25.7615 27.9997 25.8065 27.891 25.8065Z" fill="#FEE643"/>
<path d="M31.1642 6.03396C31.282 4.82796 31.0374 2.57796 30.5302 1.86696C30.2766 1.50696 29.8056 1.42597 28.936 2.79396C30.2041 0.300966 31.436 -0.086033 31.7077 4.84596C31.7802 6.07896 30.974 8.94096 29.6607 11.812C30.1679 10.12 31.0465 7.23096 31.1642 6.03396Z" fill="url(#paint6_linear_4349_297903)"/>
<path d="M24.9867 10.939C22.6498 7.77999 18.5829 3.72999 14.6972 3.91899C11.8621 4.05399 14.0993 6.37599 14.2171 6.49299C13.6827 6.06099 13.2389 5.65599 12.949 5.32299C11.21 3.31598 15.8203 2.26298 19.0267 4.53999C21.4542 6.25899 23.2023 8.25699 24.9867 10.939Z" fill="url(#paint7_linear_4349_297903)"/>
<path d="M26.4444 13.8828C26.4071 13.8921 26.4537 13.8828 26.4444 13.8828V13.8828Z" fill="url(#paint8_linear_4349_297903)"/>
<path d="M35.645 36.4812C35.5182 37.1922 35.319 37.8672 35.0201 38.3892C34.9295 38.5602 34.8208 38.7222 34.7121 38.8842C33.7067 40.3332 32.2122 41.2872 31.7774 41.3232C31.551 41.3412 30.0293 40.9902 28.4985 38.4072C28.3989 38.2452 28.3083 38.0742 28.2087 37.8852C28.0003 37.4892 27.792 36.8772 27.638 36.1662C27.3573 34.9512 27.2123 33.4842 27.4297 32.4582C27.4569 32.3232 27.5022 32.1972 27.5746 32.0802C28.1362 31.0452 29.984 30.4782 30.9169 29.8752C31.5328 29.4792 31.406 29.3532 31.8317 29.7492C32.2756 30.1632 34.2411 31.0722 35.2284 31.7292C35.3008 31.7832 35.3552 31.8462 35.3914 31.9182C35.79 32.6112 35.9621 34.6812 35.645 36.4812Z" fill="#1737AB"/>
<path d="M35.6471 36.4801C35.5203 37.1911 35.3211 37.8661 35.0222 38.3881C34.9316 38.5591 34.8229 38.7211 34.7142 38.8831C33.7088 40.3321 32.2143 41.2861 31.7795 41.3221C31.5531 41.3401 30.0314 40.9891 28.5006 38.4061C28.401 38.2441 28.3104 38.0731 28.2108 37.8841C28.0024 37.4881 27.7941 36.8761 27.6401 36.1651C28.7905 35.3102 30.0767 34.8692 32.4679 35.0312C33.9443 35.1302 34.9678 35.7332 35.6471 36.4801Z" fill="#DB6249"/>
<path d="M35.3847 31.927C35.2398 32.008 35.0858 32.08 34.9318 32.116C34.2615 32.323 33.5822 32.476 32.8938 32.575C32.7036 32.611 32.5043 32.629 32.3141 32.638C30.0316 32.575 28.0932 32.485 27.5679 32.089C28.1295 31.054 29.4519 30.487 30.3848 29.884C30.8377 29.587 31.2181 29.227 31.5533 29.209C31.6167 29.209 31.6891 29.218 31.7435 29.236C31.8069 29.263 31.8612 29.299 31.9065 29.344C32.3504 29.758 34.2253 31.081 35.2126 31.738C35.2851 31.783 35.3394 31.846 35.3847 31.927Z" fill="#FEE643"/>
<path d="M59.3065 48.2161C59.2431 48.3601 59.1797 48.5041 59.1073 48.6481C58.591 49.7551 57.966 50.8081 57.2504 51.7891C53.6726 53.9491 46.7706 57.0811 47.0061 48.9451C47.0061 48.9451 44.9319 49.1161 43.3921 48.4231C43.537 48.1621 43.6729 47.8831 43.8178 47.5861L44.0171 47.0821L45.1855 44.1211C45.729 45.9751 47.151 47.3791 50.7198 45.5071C50.7289 45.5071 49.4517 54.8851 59.3065 48.2161Z" fill="#A8C4F8"/>
<path d="M34.7106 38.8754C33.7052 40.3244 32.2107 41.2784 31.776 41.3144C31.7397 41.3144 31.7035 41.3144 31.6673 41.3054C31.2415 41.2334 29.8738 40.7204 28.4971 38.3984C29.7199 39.3074 31.2416 39.6494 31.8665 39.6764C31.8846 39.6764 31.9028 39.6764 31.9209 39.6764C32.3919 39.6944 33.7234 39.4154 34.7106 38.8754Z" fill="#FEE643"/>
<path d="M35.3827 31.9273C35.2377 32.0083 35.0838 32.0803 34.9298 32.1163C34.495 32.2423 33.4987 32.6293 32.5204 32.6293C32.3755 31.8193 32.1128 30.9913 31.9498 30.0193C31.8592 29.4883 31.6147 29.4253 31.5513 29.2093C31.7777 29.1643 32.1944 29.4883 32.5023 29.7763C32.9462 30.1903 34.2595 30.9283 35.2377 31.7383C35.3012 31.7833 35.3555 31.8463 35.3827 31.9273Z" fill="#DBC130"/>
<path d="M34.7143 38.875C33.7089 40.324 32.2144 41.278 31.7796 41.314C31.7434 41.314 31.7071 41.314 31.6709 41.305C31.68 40.909 31.7886 40.279 31.8702 39.676C31.8883 39.676 31.9064 39.676 31.9245 39.676C32.3955 39.694 33.727 39.415 34.7143 38.875Z" fill="#DBC130"/>
<path d="M44.9212 54.7686C44.74 55.2096 44.2237 55.3716 43.7437 55.4346C43.6893 55.4436 43.635 55.4525 43.5806 55.4525C42.3488 55.5965 41.1079 55.6235 39.876 55.5156C39.1877 55.4616 37.9196 55.4076 37.4033 55.7405C37.041 55.9655 36.6696 57.0185 36.1805 57.8735C36.1352 57.9545 36.0899 58.0265 36.0446 58.1075C35.7186 58.6115 35.1932 59.6465 34.8581 60.1415C34.695 60.4025 34.4958 60.6365 34.2603 60.8345C33.9976 61.0595 33.7077 61.1675 33.436 61.0145C32.8654 60.6725 32.1498 59.1065 31.5611 57.6125C31.4705 57.3785 31.3799 57.1535 31.2984 56.9285C31.0538 56.2715 30.8365 55.6685 30.6915 55.2456C30.5466 54.8316 28.8981 54.4716 27.3311 54.0846C26.5522 53.8956 25.8004 53.6976 25.2569 53.4906C24.8856 53.3466 24.4417 53.0676 24.5142 52.6626C24.5867 52.4466 24.7316 52.2666 24.9218 52.1586L27.8474 49.9446L28.9796 49.0896C29.1517 48.9726 29.2967 48.8196 29.4144 48.6486C29.5412 48.3426 29.5593 48.0096 29.4869 47.6946C29.2423 45.8046 28.8981 44.1036 28.9343 42.2046C28.9525 41.1426 30.0122 41.4936 30.2296 41.6016C31.7875 42.3396 33.3183 43.1226 34.8218 43.9596C34.9939 44.0766 35.1932 44.1486 35.4015 44.1756C35.7004 44.2026 36.0809 43.9506 36.3617 43.8516C38.6351 43.1226 39.4866 42.5016 41.3887 42.2586C41.7238 42.2136 42.847 42.4836 42.539 43.5546C42.2039 44.7156 40.2746 48.3606 39.9757 49.0806C39.8398 49.4226 40.1115 49.8636 40.347 50.0886C40.6731 50.4126 41.0173 50.7186 41.3796 51.0066C41.6695 51.2316 41.9412 51.4206 42.222 51.6276C42.9013 52.0956 43.5535 52.6086 44.1694 53.1576C44.3143 53.2836 44.4411 53.4186 44.5679 53.5626C44.8759 53.9136 45.0933 54.3456 44.9212 54.7686Z" fill="#DAC230"/>
<path d="M53.5153 51.2045C52.7363 52.1765 51.8758 53.0765 50.9429 53.8955C50.4175 54.3635 49.4936 55.2455 49.3397 55.7945C49.2219 56.2175 49.7473 57.2075 49.9284 58.1255C50.028 58.6475 50.336 59.6105 50.4266 60.1415C50.5172 60.6725 50.5534 61.4645 49.9918 61.6625C48.9864 62.0045 45.6079 60.8165 44.2492 60.3395C44.1043 60.2855 43.8145 60.4025 43.434 60.6005C42.32 61.2035 40.4178 62.6345 39.2585 63.2285C39.0682 63.3275 38.869 63.3995 38.6606 63.4355C38.4704 63.4625 38.2983 63.4265 38.1896 63.2915C38.1444 63.2015 38.1172 63.1025 38.1081 63.0035C38.0991 62.9045 38.1172 62.8055 38.1444 62.7065L38.9958 58.0355C39.0411 57.8555 39.0501 57.6575 39.0139 57.4775C38.9052 57.2165 38.6969 57.0005 38.4433 56.8835C37.0303 55.9745 35.6625 55.2545 34.4398 54.1475C34.4035 54.1115 34.3673 54.0755 34.3311 54.0395C33.8782 53.4635 34.7477 52.9685 34.956 52.8785C36.5411 52.1855 38.1444 51.5285 39.7566 50.9255C39.9559 50.8625 40.1461 50.7635 40.3091 50.6375C40.5356 50.4305 40.6352 50.0165 40.7711 49.7555C41.9033 47.7035 42.0935 46.7405 43.2801 45.2375C43.3163 45.1835 43.3616 45.1385 43.4159 45.1025C43.7601 44.8145 44.53 44.4455 44.9467 45.1565C45.472 46.0565 46.5046 49.5215 46.7673 50.1515C46.8941 50.4485 47.3832 50.4935 47.6912 50.4665C49.5661 50.2595 50.0733 49.8635 52.4193 49.4765C53.0443 49.3775 53.8142 49.3415 54.0225 49.8545C54.1946 50.2595 53.8504 50.7995 53.5153 51.2045Z" fill="#DBC130"/>
<path d="M53.143 44.9403C52.1466 45.6423 52.0651 45.6603 50.8604 46.4253C50.2807 46.7943 49.1304 47.3163 48.8315 47.7933C48.6503 48.0813 48.759 48.8013 48.7681 49.5393C48.7681 49.7463 48.7681 49.9533 48.75 50.1513C48.7047 50.6733 48.7319 51.6633 48.6775 52.1853C48.6232 52.7073 48.442 53.4723 47.8623 53.5083C46.8207 53.5623 43.9494 51.5373 42.7991 50.7273C42.6813 50.6373 42.3733 50.6643 41.9567 50.7633C40.7339 51.0333 38.56 51.8703 37.301 52.1313C36.9115 52.2123 36.4043 52.2303 36.2684 51.9063C36.2503 51.8073 36.2503 51.7083 36.2684 51.6093C36.2865 51.5103 36.3318 51.4203 36.3862 51.3393L37.9351 48.2073L38.4513 47.1633C38.5419 47.0013 38.5963 46.8213 38.6144 46.6413C38.5782 46.3623 38.4423 46.1103 38.234 45.9213C37.147 44.6883 36.051 43.6443 35.1996 42.2673C35.1724 42.2223 35.1543 42.1863 35.1272 42.1413C34.8464 41.4753 35.8065 41.2413 36.0329 41.2053C37.7177 40.9713 39.4024 40.7823 41.0962 40.6383C41.3045 40.6383 41.5038 40.5933 41.694 40.5123C41.9657 40.3863 42.2737 39.9903 42.4186 39.7383C43.6686 37.5963 43.9766 37.1283 44.8461 35.8143C45.299 35.1303 46.3769 35.1213 46.712 36.2373C47.0018 37.2183 47.817 40.7823 47.9076 41.4483C47.9438 41.7633 48.3877 41.9433 48.6956 41.9883C50.5162 42.2943 50.317 42.3573 52.6448 42.7983C53.2517 42.9153 53.9944 43.0413 54.0578 43.5813C54.1122 44.0313 53.5778 44.6523 53.143 44.9403Z" fill="#FEEE71"/>
<path d="M25.0687 59.98C24.6158 59.89 24.0633 59.665 24.0542 59.197C24.0904 58.945 24.2263 58.711 24.4256 58.549L28.4562 54.337C28.6283 54.175 28.7642 53.977 28.8638 53.761C28.9453 53.401 28.9091 53.014 28.7642 52.681C28.1211 50.611 27.3874 48.766 27.0613 46.624C26.8802 45.436 28.1483 45.625 28.42 45.706C30.3402 46.237 32.2423 46.831 34.1263 47.479C34.3437 47.578 34.5883 47.623 34.8238 47.614C35.168 47.587 35.5484 47.227 35.8564 47.065C38.311 45.814 39.1534 44.959 41.2728 44.32C41.6442 44.203 42.9848 44.302 42.8398 45.562C42.6949 46.93 41.2004 51.376 40.9921 52.24C40.9015 52.654 41.3091 53.095 41.608 53.302C43.4467 54.571 44.1804 54.562 46.5625 56.029C47.1875 56.425 47.9121 56.992 47.7581 57.703C47.6313 58.288 46.952 58.576 46.3633 58.729C44.9865 59.125 43.5826 59.386 42.1514 59.503C41.3544 59.575 39.8961 59.755 39.3707 60.214C38.9722 60.565 38.7458 62.023 38.2748 63.121C38.003 63.751 37.6045 65.002 37.3146 65.623C37.0248 66.244 36.4995 67.108 35.8564 66.874C34.7151 66.433 32.4869 62.5 31.5902 60.916C31.246 60.268 27.0432 60.385 25.0687 59.98Z" fill="#FEE643"/>
<path d="M36.6225 55.9754C36.396 56.5064 35.7077 56.6594 35.1189 56.7044C33.7512 56.8394 32.3654 56.8304 30.9977 56.6954C30.2278 56.6324 28.8238 56.5424 28.2441 56.8844C27.8003 57.1454 27.3383 58.4864 26.6952 59.4494C26.3963 59.8904 25.9525 60.7004 25.5902 61.2764C25.4996 61.4204 25.4181 61.5464 25.3457 61.6544C24.9652 62.1944 24.3131 62.9234 23.7515 62.5814C22.7461 61.9694 21.3331 57.8474 20.7715 56.1914C20.5451 55.5074 16.5416 54.8865 14.7482 54.1575C14.3315 53.9865 13.8514 53.6805 13.933 53.2395C14.0145 53.0055 14.1775 52.8075 14.3949 52.6905L18.96 49.4145C19.1502 49.2885 19.3223 49.1265 19.4491 48.9375C19.594 48.6045 19.6302 48.2445 19.5487 47.8935C19.3042 45.8145 18.9419 43.9425 19.0053 41.8635C19.0415 40.7025 20.219 41.1075 20.4545 41.2245C22.1755 42.0615 23.8693 42.9525 25.5359 43.8975C25.7261 44.0235 25.9435 44.1135 26.179 44.1495C26.5141 44.1855 26.9398 43.9155 27.2568 43.8075C29.802 43.0605 30.7622 42.3945 32.8726 42.1605C33.244 42.1155 34.4939 42.4395 34.1407 43.6095C33.9142 44.3475 33.0809 45.9855 32.3563 47.3805C31.831 48.3975 31.36 49.2795 31.215 49.6125C31.052 49.9815 31.36 50.4765 31.6136 50.7195C33.1262 52.2495 33.8237 52.3575 35.8254 54.1665C36.3236 54.6615 36.9033 55.3275 36.6225 55.9754Z" fill="#FEF38E"/>
<path d="M34.1499 57.2715C35.0919 57.3795 35.6806 59.9805 34.1499 63.8955C32.1572 68.9985 29.8747 71.1495 28.1809 71.5275C23.9872 72.4635 24.3042 69.0075 22.1032 68.3145C20.5725 67.8285 22.2209 64.8405 21.6956 63.8505C20.7083 61.9875 21.6322 58.6575 21.6322 58.6575C23.4981 60.0165 24.0506 55.6065 25.0017 50.0715C25.3096 48.2625 28.5794 49.2975 27.8367 52.9515C27.8367 52.9515 29.2135 51.5835 31.0069 52.2945C34.5666 53.6895 34.1499 57.2715 34.1499 57.2715Z" fill="#5587F9"/>
<path d="M38.226 22.4588C37.9452 22.6118 37.6645 22.7648 37.3837 22.9268C37.1029 23.0888 36.8312 23.2508 36.5594 23.4218C36.2877 23.5928 36.025 23.7638 35.7714 23.9438C35.6446 24.0338 35.5178 24.1328 35.4182 24.2228C35.3638 24.2678 35.3095 24.3218 35.2642 24.3578C35.237 24.3848 35.2098 24.4118 35.1827 24.4478C35.1827 24.4478 35.1827 24.4478 35.1917 24.4388C35.1917 24.4298 35.2008 24.4298 35.2008 24.4208C35.2098 24.4028 35.2098 24.3938 35.2189 24.3758C35.2189 24.3668 35.2189 24.3578 35.2189 24.3488C35.2189 24.3398 35.2189 24.3128 35.2279 24.3038C35.2279 24.2858 35.2279 24.2678 35.2279 24.2498C35.2279 24.2408 35.2279 24.2318 35.2189 24.2228V24.2048C35.2189 24.1958 35.2098 24.1868 35.2098 24.1688C35.2008 24.1508 35.1917 24.1238 35.1827 24.1058C35.1736 24.0878 35.1645 24.0788 35.1555 24.0608C35.1374 24.0338 35.1192 24.0158 35.1011 23.9978C35.0921 23.9888 35.083 23.9798 35.083 23.9798L35.0649 23.9618C35.0558 23.9528 35.0468 23.9528 35.0377 23.9438L35.0196 23.9348L35.0106 23.9258C34.9924 23.9168 35.0106 23.9258 35.0287 23.9258C35.0468 23.9258 35.083 23.9348 35.1102 23.9438C35.237 23.9618 35.391 23.9798 35.545 23.9888C35.8529 24.0068 36.179 24.0068 36.496 24.0158C36.8221 24.0248 37.1482 24.0158 37.4652 24.0158C37.7913 24.0068 38.1173 24.0068 38.4253 23.9888H38.4344C38.5521 23.9888 38.6608 24.0248 38.7514 24.1058C38.842 24.1868 38.8963 24.2948 38.9054 24.4028C38.9144 24.5198 38.8782 24.6368 38.8057 24.7268C38.7333 24.8168 38.6246 24.8798 38.5068 24.8888C38.1626 24.9338 37.8366 24.9518 37.5014 24.9788C37.1663 25.0058 36.8312 25.0148 36.496 25.0148C36.1609 25.0148 35.8257 25.0148 35.4816 25.0058C35.3004 24.9968 35.1192 24.9788 34.9381 24.9518C34.8837 24.9428 34.8385 24.9338 34.7751 24.9248C34.7026 24.9068 34.6301 24.8798 34.5577 24.8528C34.5486 24.8528 34.5305 24.8438 34.5214 24.8348C34.5033 24.8258 34.4943 24.8168 34.4761 24.8078C34.458 24.7988 34.4399 24.7808 34.4218 24.7718C34.4127 24.7628 34.4037 24.7538 34.3946 24.7448C34.3856 24.7358 34.3765 24.7268 34.3584 24.7178C34.3312 24.6908 34.3041 24.6638 34.2859 24.6278C34.2769 24.6098 34.2588 24.5918 34.2497 24.5738C34.2406 24.5468 34.2225 24.5198 34.2135 24.4928C34.2135 24.4838 34.2044 24.4658 34.2044 24.4478C34.2044 24.4388 34.2044 24.4298 34.1954 24.4208L34.1863 24.3758C34.1863 24.3488 34.1863 24.3218 34.1772 24.2858C34.1772 24.2588 34.1772 24.2318 34.1863 24.2048C34.1863 24.1868 34.1954 24.1688 34.1954 24.1508C34.2044 24.1148 34.2135 24.0788 34.2316 24.0428C34.2407 24.0158 34.2497 23.9978 34.2678 23.9708C34.2769 23.9528 34.2859 23.9258 34.3041 23.9078C34.3675 23.7998 34.449 23.7098 34.5396 23.6198C34.612 23.5478 34.6845 23.4848 34.7569 23.4308C34.9019 23.3138 35.0377 23.2058 35.1827 23.1068C35.4634 22.9088 35.7533 22.7288 36.0431 22.5578C36.6228 22.2068 37.2116 21.8918 37.8275 21.6128C37.9362 21.5678 38.063 21.5588 38.1717 21.6038C38.2804 21.6398 38.38 21.7298 38.4344 21.8288C38.4887 21.9368 38.4978 22.0538 38.4615 22.1708C38.4162 22.2968 38.3438 22.3958 38.226 22.4588Z" fill="#1737AA"/>
</g>
<defs>
<linearGradient id="paint0_linear_4349_297903" x1="38.1645" y1="58.8469" x2="55.0905" y2="39.7003" gradientUnits="userSpaceOnUse">
<stop stop-color="#1E5AF6"/>
<stop offset="0.05" stop-color="#2560F6"/>
<stop offset="0.23" stop-color="#3A71F8"/>
<stop offset="0.42" stop-color="#497EF8"/>
<stop offset="0.65" stop-color="#5285F9"/>
<stop offset="1" stop-color="#5587F9"/>
</linearGradient>
<linearGradient id="paint1_linear_4349_297903" x1="12.6411" y1="17.3095" x2="20.8941" y2="49.3155" gradientUnits="userSpaceOnUse">
<stop stop-color="white"/>
<stop offset="0.13" stop-color="#1E5AF6"/>
<stop offset="0.31" stop-color="#1C55EE"/>
<stop offset="1" stop-color="#1545D3"/>
</linearGradient>
<linearGradient id="paint2_linear_4349_297903" x1="18.5003" y1="18.7678" x2="23.4725" y2="0.403137" gradientUnits="userSpaceOnUse">
<stop stop-color="#1E5AF6"/>
<stop offset="0.25" stop-color="#245FF6"/>
<stop offset="0.57" stop-color="#346CF7"/>
<stop offset="0.93" stop-color="#4F82F9"/>
<stop offset="1" stop-color="#5587F9"/>
</linearGradient>
<linearGradient id="paint3_linear_4349_297903" x1="22.6228" y1="48.9903" x2="32.9908" y2="-4.05915" gradientUnits="userSpaceOnUse">
<stop stop-color="#1E5AF6"/>
<stop offset="0.49" stop-color="#376FF7"/>
<stop offset="1" stop-color="#5587F9"/>
</linearGradient>
<linearGradient id="paint4_linear_4349_297903" x1="14.5638" y1="45.6277" x2="22.4636" y2="63.1109" gradientUnits="userSpaceOnUse">
<stop stop-color="#1E5AF6"/>
<stop offset="0.22" stop-color="#366EF7"/>
<stop offset="0.45" stop-color="#477CF8"/>
<stop offset="0.7" stop-color="#5284F9"/>
<stop offset="1" stop-color="#5587F9"/>
</linearGradient>
<linearGradient id="paint5_linear_4349_297903" x1="33.0859" y1="19.0021" x2="35.7681" y2="12.2493" gradientUnits="userSpaceOnUse">
<stop stop-color="#77A3FC"/>
<stop offset="0.17" stop-color="#94B7FD"/>
<stop offset="0.37" stop-color="#AECAFD"/>
<stop offset="0.57" stop-color="#C2D8FE"/>
<stop offset="0.78" stop-color="#CDE0FE"/>
<stop offset="1" stop-color="#D1E3FE"/>
</linearGradient>
<linearGradient id="paint6_linear_4349_297903" x1="27.4715" y1="11.8806" x2="29.8799" y2="5.81665" gradientUnits="userSpaceOnUse">
<stop stop-color="#77A3FC"/>
<stop offset="0.52" stop-color="#A4C3FD"/>
<stop offset="1" stop-color="#D1E3FE"/>
</linearGradient>
<linearGradient id="paint7_linear_4349_297903" x1="19.8592" y1="13.3373" x2="17.4112" y2="0.505774" gradientUnits="userSpaceOnUse">
<stop stop-color="#77A3FC"/>
<stop offset="0.13" stop-color="#96B9FD"/>
<stop offset="0.29" stop-color="#B6D0FD"/>
<stop offset="0.43" stop-color="#CADEFE"/>
<stop offset="0.52" stop-color="#D1E3FE"/>
</linearGradient>
<linearGradient id="paint8_linear_4349_297903" x1="26.4362" y1="14.8986" x2="26.4362" y2="14.8982" gradientUnits="userSpaceOnUse">
<stop stop-color="#77A3FC"/>
<stop offset="0.17" stop-color="#94B7FD"/>
<stop offset="0.37" stop-color="#AECAFD"/>
<stop offset="0.57" stop-color="#C2D8FE"/>
<stop offset="0.78" stop-color="#CDE0FE"/>
<stop offset="1" stop-color="#D1E3FE"/>
</linearGradient>
<clipPath id="clip0_4349_297903">
<rect width="72" height="56" fill="white"/>
</clipPath>
</defs>
</svg>
