<svg width="16" height="16" viewBox="0 0 16 16" fill="none" xmlns="http://www.w3.org/2000/svg">
<path d="M8 11.0626H11.8114C12.1229 11.0626 12.4216 10.9389 12.6418 10.7187C12.862 10.4984 12.9857 10.1998 12.9857 9.88832V8.49689C12.9846 8.14686 12.9032 7.80176 12.7476 7.48819C12.5921 7.17462 12.3666 6.90096 12.0886 6.68832L9.90571 5.02832L8 11.0626Z" fill="#77A9FF"/>
<path d="M8.00036 11.0626H4.18893C3.87749 11.0626 3.57881 10.9389 3.35859 10.7187C3.13837 10.4984 3.01465 10.1998 3.01465 9.88832V8.49689C3.01572 8.14686 3.09718 7.80176 3.25272 7.48819C3.40827 7.17462 3.63375 6.90096 3.91179 6.68832L6.09465 5.02832L8.00036 11.0626Z" fill="#77A9FF"/>
<path d="M9.45974 11.0627C10.6251 9.50798 11.1258 7.55434 10.8521 5.63072C10.5784 3.70711 9.5525 1.97071 7.99974 0.802734C6.44698 1.97071 5.42113 3.70711 5.1474 5.63072C4.87367 7.55434 5.37442 9.50798 6.53974 11.0627H9.45974Z" fill="#0A58FF"/>
<path d="M7.34025 14.62L6.57168 13.0714C6.51011 12.9423 6.48186 12.7997 6.4895 12.6568C6.49715 12.514 6.54044 12.3753 6.61543 12.2534C6.69042 12.1315 6.79473 12.0304 6.91884 11.9592C7.04295 11.888 7.18291 11.849 7.32596 11.8457H8.7031C8.84616 11.849 8.98612 11.888 9.11023 11.9592C9.23434 12.0304 9.33864 12.1315 9.41363 12.2534C9.48863 12.3753 9.53192 12.514 9.53956 12.6568C9.5472 12.7997 9.51895 12.9423 9.45739 13.0714L8.67453 14.62C8.61419 14.7457 8.51955 14.8518 8.40151 14.9261C8.28347 15.0004 8.14685 15.0398 8.00739 15.0398C7.86793 15.0398 7.73131 15.0004 7.61327 14.9261C7.49523 14.8518 7.40059 14.7457 7.34025 14.62Z" fill="#FEE643"/>
<path d="M7.99932 6.48009C8.77883 6.48009 9.41075 5.84817 9.41075 5.06866C9.41075 4.28914 8.77883 3.65723 7.99932 3.65723C7.21981 3.65723 6.58789 4.28914 6.58789 5.06866C6.58789 5.84817 7.21981 6.48009 7.99932 6.48009Z" fill="#FEE643"/>
<path d="M7.7138 13.7543L7.37952 13.0857C7.35314 13.0301 7.34143 12.9687 7.34552 12.9073C7.34961 12.846 7.36936 12.7867 7.40289 12.7351C7.43641 12.6835 7.48259 12.6414 7.53702 12.6127C7.59145 12.5841 7.65231 12.5699 7.7138 12.5714H8.28523C8.34732 12.5708 8.4085 12.5863 8.46282 12.6164C8.51715 12.6465 8.56278 12.6901 8.59527 12.743C8.62777 12.7959 8.64602 12.8563 8.64827 12.9184C8.65051 12.9804 8.63667 13.042 8.60809 13.0971L8.28523 13.7543C8.25932 13.808 8.21877 13.8534 8.16823 13.8852C8.11768 13.9169 8.05921 13.9338 7.99952 13.9338C7.93983 13.9338 7.88135 13.9169 7.83081 13.8852C7.78027 13.8534 7.73971 13.808 7.7138 13.7543Z" fill="#FFF47E"/>
</svg>
