<svg width="48" height="48" viewBox="0 0 48 48" fill="none" xmlns="http://www.w3.org/2000/svg">
<path d="M20.2821 13.9534V13.9764C20.2852 13.9854 20.2852 13.995 20.2821 14.0039V14.0361V14.0637C20.2727 14.0792 20.258 14.0907 20.2408 14.096C20.2243 14.1007 20.2068 14.1007 20.1903 14.096C18.2461 13.5306 10.8772 11.83 14.9675 19.7034C18.5396 26.5748 27.0916 17.3041 27.0916 17.3041C26.8669 17.0651 26.633 16.8032 26.39 16.5228C26.7568 16.1275 27.1099 15.7414 27.4401 15.3645V15.3369C27.6556 15.0979 27.8573 14.8773 28.0499 14.6337C28.0768 14.6067 28.1014 14.5775 28.1233 14.5464C31.4066 10.6625 32.4933 7.69336 29.4256 3.42802C28.9166 2.89026 28.1783 3.96579 27.385 5.72616C26.2265 8.56009 25.2478 11.4646 24.4549 14.4223C24.4411 14.4654 24.4175 14.5047 24.3861 14.5372C24.3532 14.5659 24.3139 14.5864 24.2715 14.5969C24.2282 14.6106 24.1818 14.6106 24.1385 14.5969C24.0974 14.5823 24.061 14.5569 24.033 14.5234C23.6708 14.0637 23.3177 13.6041 22.9462 13.1031C22.9441 13.0956 22.9441 13.0877 22.9462 13.0802C19.929 9.0033 16.3431 3.49232 11.3357 4.06225C10.2122 4.20933 10.4415 5.06883 11.3357 6.23628C13.3992 8.78721 18.7918 12.8549 20.2821 13.9534Z" fill="#1E5AF6"/>
<path d="M15.5188 15.1111C14.6457 16.146 15.6177 17.2006 16.2129 17.5986L14.2737 18.4064C13.9429 18.1577 13.1445 16.6987 13.5656 15.298C14.1597 13.3216 17.3539 13.1709 18.5944 13.4694C14.9225 10.899 9.16033 4.91653 10.6946 4.22632C13.68 2.88329 18.1977 6.65357 19.4879 8.64354C18.2119 7.02086 15.9246 5.73003 14.3764 5.21264C12.4412 4.5659 12.2434 5.70837 12.9381 6.90235C13.4938 7.85754 18.3964 12.209 20.7782 14.2653C19.3889 14.1161 16.392 14.0763 15.5188 15.1111Z" fill="#4A83F9"/>
<path d="M19.5786 17.5407C16.3092 16.934 12.6559 18.0908 9.76243 21.8C7.56138 24.6221 6.82771 26.1572 8.26298 29.9676C9.69825 33.7779 9.18007 36.2138 12.2845 42.8646C13.6601 45.797 19.1627 45.4202 27.0682 43.476C34.4417 41.6374 26.7335 26.5112 26.7335 26.5112L19.5786 17.5407Z" fill="#4A83F9"/>
<path d="M12.7943 31.1249C9.65871 21.9681 14.3541 18.3581 14.3541 18.3581C14.3541 18.3581 13.9346 17.9475 13.696 17.4414C11.9709 18.1909 7.78222 19.9624 7.28847 23.3955C6.83437 26.5529 7.6333 30.1336 8.54214 31.6104L12.7943 31.1249Z" fill="#F49B26"/>
<path d="M11.1072 25.6345C11.7459 30.2658 12.4829 31.6373 14.6289 38.7064C15.9541 42.4109 19.4162 44.4425 22.814 43.9783C26.3751 43.8318 29.9105 43.3063 33.3607 42.4109C37.1071 41.8961 39.675 39.2762 39.6887 36.4357C39.6887 35.6084 39.6291 34.225 39.5237 32.5933C39.4274 31.1593 39.3036 29.5413 39.1523 27.9602C38.9685 25.6474 38.6624 23.346 38.2351 21.0658C37.6253 17.3888 34.3008 14.8057 30.3618 15.1505C28.8394 15.2837 27.3445 15.4491 25.8313 15.6606L24.5015 15.8582C22.25 16.2121 19.916 16.6579 17.3618 17.2371C13.1248 18.1471 10.4685 21.0031 11.1072 25.6345Z" fill="#1E5AF6"/>
<path d="M17.5447 36.2504C15.7747 35.8459 14.5825 34.4579 14.8759 33.1433C15.1694 31.8288 16.8523 31.0889 18.6223 31.4887C20.3923 31.8886 21.5846 33.2859 21.2911 34.5958C20.9976 35.9058 19.3147 36.6503 17.5447 36.2504Z" fill="#4A83F9"/>
<path d="M35.7227 32.6657C36.5114 33.6401 38.1897 33.585 39.524 32.5968C39.4323 31.1628 39.3039 29.5449 39.1572 27.9637C38.2604 27.9444 37.3877 28.2551 36.7039 28.837C35.3466 29.9401 34.9064 31.6407 35.7227 32.6657Z" fill="#4A83F9"/>
<path d="M35.3372 29.8353C33.7311 30.0713 32.0952 29.6957 30.7517 28.7827C30.1122 28.3557 29.57 27.7981 29.1605 27.1464C28.7524 26.4937 28.4853 25.7625 28.3764 25C27.9545 21.8791 30.3756 18.9559 33.7781 18.4825C35.3847 18.247 37.0211 18.6241 38.3636 19.5396C39.0049 19.9625 39.5476 20.519 39.9548 21.1713C40.367 21.8216 40.633 22.554 40.7343 23.3177C40.8424 24.0874 40.7829 24.8714 40.5601 25.6158C40.3394 26.3532 39.9641 27.0349 39.4596 27.6153C38.5335 28.7157 37.2661 29.4731 35.8599 29.7663C35.6949 29.803 35.516 29.8031 35.3372 29.8353ZM33.4434 19.4155C30.7562 19.9992 28.8991 22.3664 29.243 24.8989C29.3377 25.5406 29.5641 26.1556 29.9079 26.7052C30.2541 27.2543 30.712 27.7242 31.2515 28.0841C32.4192 28.8654 33.8313 29.1923 35.2225 29.0033C36.6141 28.8088 37.8873 28.1128 38.8038 27.0453C39.225 26.5561 39.5376 25.9827 39.7209 25.3631C39.9047 24.7403 39.9547 24.0854 39.8677 23.4418C39.7805 22.7996 39.5569 22.1837 39.2119 21.6355C38.865 21.0854 38.4055 20.6154 37.8638 20.2566C36.7002 19.462 35.2815 19.134 33.8882 19.3374C33.7368 19.3374 33.5855 19.3833 33.4296 19.4155H33.4434Z" fill="#FEE643"/>
<path d="M19.6294 31.9949C17.9438 32.2426 16.2265 31.8544 14.81 30.9056C14.1365 30.468 13.5655 29.8894 13.1363 29.2096C12.7051 28.5297 12.4252 27.7647 12.3155 26.9666C12.2054 26.1687 12.2696 25.3563 12.5035 24.5857C12.7335 23.8145 13.1277 23.1026 13.659 22.4991C14.7778 21.216 16.3218 20.3817 18.0061 20.1503C19.6912 19.9153 21.4041 20.3025 22.8255 21.2397C23.0549 21.3865 23.2726 21.5508 23.4767 21.7314C24.0288 22.2169 24.4792 22.8075 24.8019 23.4688C25.1256 24.13 25.3172 24.8483 25.3659 25.5831C25.411 26.3186 25.3113 27.0557 25.0724 27.7526C24.8378 28.4489 24.4668 29.0911 23.9811 29.6416C22.9989 30.7881 21.6681 31.5795 20.1934 31.8938C20.0008 31.9306 19.822 31.9673 19.6294 31.9949ZM17.6347 21.0972C16.344 21.3646 15.1781 22.0531 14.3194 23.0552C14.1508 23.2368 13.9974 23.4321 13.8608 23.6389C13.5247 24.1609 13.2946 24.7442 13.1836 25.3555C13.0727 25.9667 13.0831 26.5938 13.2143 27.201C13.4808 28.4276 14.221 29.4985 15.2732 30.1794C16.5188 30.9922 18.0147 31.3283 19.4873 31.1262C20.9583 30.9242 22.3077 30.1981 23.2886 29.0808C23.7429 28.5699 24.0808 27.9662 24.2791 27.3114C24.4764 26.6581 24.5311 25.9699 24.4396 25.2935C24.3484 24.6159 24.1105 23.9665 23.7426 23.3907C23.3763 22.8137 22.8898 22.3229 22.3165 21.952C21.0793 21.1276 19.5818 20.7905 18.1116 21.0053C17.9447 21.0228 17.7792 21.052 17.6164 21.0926L17.6347 21.0972Z" fill="#FEE643"/>
<path d="M35.4933 30.006C33.8082 30.25 32.0929 29.855 30.683 28.8984C30.0106 28.4498 29.4403 27.8641 29.0093 27.1794C28.5808 26.4948 28.301 25.7273 28.1885 24.9271C27.73 21.6454 30.2841 18.5705 33.8654 18.0741C35.5504 17.8306 37.2655 18.2255 38.6756 19.1818C39.349 19.6291 39.9196 20.2151 40.3493 20.9008C40.7807 21.5856 41.0605 22.3552 41.1701 23.1576C41.2794 23.9583 41.2169 24.7731 40.9867 25.5477C40.7533 26.3229 40.3596 27.0402 39.8312 27.6528C38.8577 28.8091 37.5258 29.6052 36.0481 29.9141C35.8648 29.9541 35.6796 29.9847 35.4933 30.006ZM33.5031 19.0577C30.6785 19.669 28.725 22.1556 29.0873 24.8168C29.1852 25.492 29.4243 26.139 29.7889 26.7151C30.152 27.2911 30.6315 27.7843 31.1966 28.1629C32.4263 28.9772 33.9089 29.3169 35.3695 29.119C36.8299 28.9161 38.1674 28.1895 39.1342 27.0737C39.5826 26.5609 39.9157 25.9573 40.1109 25.304C40.3068 24.6505 40.36 23.9623 40.2668 23.2863C40.1763 22.6107 39.94 21.9628 39.5744 21.388C39.2133 20.8102 38.7314 20.3178 38.162 19.9448C36.9371 19.115 35.4483 18.7709 33.9846 18.9796C33.8241 19.0025 33.6636 19.0301 33.5261 19.0669L33.5031 19.0577Z" fill="#FEE643"/>
<path d="M19.6013 32.2926C17.8274 32.5518 16.0207 32.1422 14.5306 31.1432C13.821 30.6817 13.2184 30.0729 12.7636 29.3579C12.3119 28.6436 12.0186 27.8404 11.9036 27.0027C11.7879 26.1629 11.8553 25.308 12.101 24.4968C12.3448 23.686 12.7599 22.9372 13.3182 22.3016C14.4953 20.9495 16.1215 20.0709 17.8954 19.8286C19.668 19.5858 21.4686 19.9923 22.9662 20.9733C23.2058 21.1328 23.4349 21.3074 23.6523 21.4961C24.2371 22.0069 24.7161 22.628 25.0621 23.3239C25.403 24.0189 25.6042 24.7743 25.6543 25.5472C25.7016 26.3214 25.5979 27.0973 25.3488 27.8317C25.0998 28.5641 24.7085 29.2398 24.1974 29.8196C23.1644 31.0236 21.7634 31.8516 20.2123 32.1749C20.0008 32.2361 19.8034 32.2597 19.6013 32.2926ZM17.5007 20.8226C16.1424 21.1011 14.9154 21.8254 14.0137 22.881C13.8396 23.0728 13.6824 23.2793 13.5437 23.4981C13.1876 24.05 12.9441 24.6672 12.8271 25.314C12.7101 25.9608 12.7221 26.6244 12.8623 27.2665C13.1444 28.5573 13.9251 29.6836 15.0335 30.399C16.3424 31.2561 17.9161 31.6106 19.4651 31.3976C21.0131 31.1823 22.4324 30.4166 23.4643 29.2401C23.9445 28.7045 24.3008 28.0692 24.5076 27.3795C24.7184 26.6923 24.7761 25.9671 24.6768 25.2551C24.5804 24.5423 24.3302 23.8592 23.9436 23.2531C23.5581 22.647 23.0468 22.1313 22.4445 21.7411C21.1418 20.8734 19.5656 20.5179 18.0176 20.7425C17.8418 20.7621 17.6676 20.7935 17.496 20.8367L17.5007 20.8226Z" fill="#FEE643"/>
<path d="M28.9313 25.3715C29.0142 25.3533 29.0894 25.3065 29.1454 25.2382C29.2041 25.1699 29.2402 25.0826 29.2481 24.99C29.2573 24.8991 29.2393 24.8073 29.1967 24.728C29.1532 24.65 29.0892 24.5877 29.0126 24.5488C28.8842 24.489 27.694 23.9788 25.0738 24.8153C24.9737 24.8521 24.8898 24.9275 24.8383 25.0268C24.7902 25.1293 24.7795 25.2473 24.8084 25.3577C24.823 25.4122 24.8475 25.463 24.8806 25.5072C24.9137 25.5514 24.9546 25.588 25.001 25.6151C25.0469 25.6424 25.0974 25.6598 25.1496 25.6661C25.2018 25.6724 25.2546 25.6675 25.305 25.6519C27.6426 24.9073 28.6701 25.3439 28.6787 25.3439C28.7584 25.3803 28.8464 25.39 28.9313 25.3715Z" fill="#FEE643"/>
<path d="M34.7826 28.2701C34.2692 28.3823 33.7388 28.3921 33.2217 28.2987C32.7046 28.2054 32.2109 28.0108 31.7688 27.7261C31.3268 27.4414 30.945 27.0721 30.6454 26.6394C30.3459 26.2067 30.1343 25.7191 30.0228 25.2044C29.9116 24.6898 29.9026 24.1583 29.9963 23.6403C30.0901 23.1222 30.2847 22.6277 30.5692 22.1851C30.8537 21.7424 31.2223 21.3603 31.6542 21.0606C32.086 20.7608 32.5726 20.5493 33.086 20.438C33.5994 20.3258 34.1298 20.3161 34.6469 20.4094C35.164 20.5028 35.6577 20.6974 36.0998 20.9821C36.5418 21.2669 36.9236 21.6361 37.2231 22.0688C37.5227 22.5015 37.7343 22.9891 37.8457 23.5038C37.957 24.0184 37.966 24.5499 37.8723 25.068C37.7785 25.586 37.5838 26.0804 37.2994 26.523C37.0149 26.9657 36.6462 27.3479 36.2144 27.6476C35.7826 27.9474 35.296 28.1589 34.7826 28.2701Z" fill="white"/>
<path d="M30.1561 25.6082C30.0298 25.2171 29.9819 24.8049 30.0151 24.3952C30.0482 23.9855 30.1618 23.5863 30.3493 23.2207C30.5368 22.8552 30.7944 22.5304 31.1075 22.2649C31.4206 21.9994 31.7829 21.7985 32.1737 21.6738C32.9684 21.4419 33.8225 21.5358 34.5482 21.9349C35.2739 22.3339 35.8119 23.0055 36.0439 23.8019C36.1707 24.1927 36.219 24.6047 36.1861 25.0143C36.1532 25.4238 36.0396 25.8229 35.8521 26.1882C35.6645 26.5536 35.4065 26.878 35.0932 27.1429C34.7798 27.4079 34.4172 27.608 34.0262 27.7317C33.2321 27.9637 32.3786 27.8704 31.653 27.4723C30.9274 27.0742 30.389 26.4038 30.1561 25.6082Z" fill="#2238A8"/>
<path d="M30.9741 32.0304C30.9454 32.2116 30.2404 32.2145 29.3404 32.1382C28.0685 32.026 26.8055 31.8313 25.5594 31.5554C25.3958 31.5087 25.4927 31.3365 25.5492 31.3026C26.5456 30.6982 27.9257 29.8012 28.4501 29.6791C28.4959 29.6683 28.5433 29.6664 28.5897 29.6734C28.6264 29.6775 28.662 29.6881 28.6949 29.7047C29.3464 30.0107 31.0156 31.7734 30.9741 32.0304Z" fill="#FEE643"/>
<path d="M30.7077 35.168C30.7648 35.3952 29.934 38.4703 28.1703 38.6705C27.9384 38.6974 27.7034 38.676 27.4805 38.6074C25.2731 37.9609 24.2511 34.9115 24.2399 34.7813L27.4733 34.3197C27.4733 34.3197 30.6454 34.9133 30.7077 35.168Z" fill="#FEE643"/>
<path d="M31.5355 33.8612C31.3403 34.974 30.7487 35.981 29.8682 36.6991C29.2163 37.2282 28.4595 37.5319 27.7479 37.4698C26.9309 37.3812 26.1537 37.0751 25.4987 36.5839C24.8437 36.0928 24.3353 35.4349 24.0277 34.6802C23.9559 34.498 23.8989 34.3104 23.8572 34.1192C23.4205 32.1582 24.913 31.4229 25.7455 31.4108C26.578 31.3988 27.8063 31.9882 29.1344 31.9323C31.045 31.8548 31.8504 31.8637 31.5355 33.8612Z" fill="#2238A8"/>
<path d="M29.868 36.7008C29.2161 37.2299 28.4593 37.5336 27.7477 37.4715C26.9308 37.3829 26.1535 37.0768 25.4985 36.5856C24.8435 36.0945 24.3352 35.4366 24.0275 34.6819C25.0262 34.2852 26.4031 34.1502 27.9692 34.8921C28.7856 35.2719 29.4529 35.9076 29.868 36.7008Z" fill="#E8641F"/>
<path d="M22.969 36.39L21.6537 36.4822C21.4818 36.4948 21.3179 36.5592 21.1841 36.6669C21.0503 36.7745 20.953 36.9202 20.9052 37.0843L18.9821 37.1765C17.7282 37.2375 16.4754 37.0361 15.3054 36.5853C14.1354 36.1344 13.0745 35.4444 12.1918 34.56C10.3833 32.7343 10.0286 32.3571 9.98315 32.2907L9.76682 32.4236L9.58944 32.25C9.37312 32.4493 9.37312 32.4493 11.8457 34.905C12.7762 35.8431 13.8961 36.5761 15.1322 37.0562C16.3683 37.5362 17.6927 37.7524 19.0189 37.6907L20.9355 37.5986C20.9982 37.7698 21.115 37.9163 21.2686 38.0163C21.4222 38.1164 21.6044 38.1645 21.7878 38.1536L23.1031 38.0572C23.2128 38.0494 23.3199 38.0211 23.4189 37.9736C23.5195 37.926 23.6096 37.859 23.6839 37.7766C23.7581 37.6942 23.8151 37.598 23.8516 37.4936C23.886 37.3901 23.8992 37.2808 23.8905 37.1722C23.8835 37.0604 23.854 36.9511 23.804 36.8507C23.7507 36.7498 23.6771 36.6608 23.5876 36.5893C23.5012 36.5176 23.4012 36.4637 23.2934 36.4307C23.1891 36.3958 23.0788 36.382 22.969 36.39Z" fill="#FEE643"/>
<path d="M22.8864 36.8336L21.5712 36.9258C21.3993 36.9384 21.2354 37.0028 21.1016 37.1105C20.9678 37.2181 20.8704 37.3638 20.8227 37.5279L18.8996 37.6201C17.6457 37.6811 16.3929 37.4797 15.2229 37.0289C14.0529 36.578 12.9919 35.888 12.1093 35.0036C10.3008 33.1779 9.94605 32.8007 9.90063 32.7343L9.6843 32.8672L9.50692 32.6936C9.2906 32.8929 9.2906 32.8929 11.7632 35.3486C12.6937 36.2867 13.8136 37.0197 15.0497 37.4998C16.2858 37.9798 17.6102 38.196 18.9364 38.1343L20.853 38.0422C20.9157 38.2134 21.0325 38.3599 21.1861 38.4599C21.3397 38.56 21.5218 38.6081 21.7053 38.5972L23.0206 38.5008C23.1302 38.4931 23.2374 38.4647 23.3364 38.4172C23.437 38.3696 23.5271 38.3026 23.6014 38.2202C23.6756 38.1378 23.7326 38.0416 23.769 37.9372C23.8035 37.8337 23.8167 37.7244 23.808 37.6158C23.8009 37.504 23.7715 37.3947 23.7214 37.2943C23.6682 37.1934 23.5946 37.1044 23.5051 37.0329C23.4187 36.9612 23.3187 36.9073 23.2109 36.8743C23.1066 36.8394 22.9963 36.8256 22.8864 36.8336Z" fill="#FEE643"/>
<path d="M11.0569 38.4454C13.1011 38.0404 14.3774 35.8354 13.9102 33.5168C13.4429 31.1983 11.4052 29.6597 9.36742 30.0647C7.32967 30.4697 6.04688 32.6747 6.5163 34.9933C6.98572 37.3119 9.00833 38.8526 11.0569 38.4454Z" fill="#FFD12E"/>
<path d="M10.1048 36.3985C11.0978 36.2014 11.7208 35.1299 11.4915 34.0049C11.2622 32.8799 10.2736 32.1278 9.27849 32.327C8.28341 32.5263 7.66256 33.5956 7.89186 34.7228C8.12116 35.8499 9.10976 36.5978 10.1048 36.3985Z" fill="#F49B26"/>
<path d="M27.5794 4.99353C26.5759 6.96991 24.9361 12.2107 24.2416 14.584C24.225 14.6107 24.2344 14.6541 24.4056 14.6139C24.5768 14.5738 26.0995 9.99238 26.8769 8.44938C27.4818 7.01944 28.9618 4.91867 29.671 5.36604C31.2048 6.33352 30.9711 9.16486 30.7399 10.4235C31.0312 9.94432 31.4458 9.09471 31.3204 7.35183C31.1636 5.17324 29.6249 3.43932 29.4233 3.19226C29.2217 2.9452 28.8337 2.52306 27.5794 4.99353Z" fill="#4A83F9"/>
<path d="M33.6235 15.6692C32.1406 15.1942 28.5222 15.3525 27.0541 15.559C26.8964 15.1654 31.1165 14.5778 32.4297 14.6294C33.7429 14.681 34.8849 14.6679 35.7604 15.7005C36.4608 16.5266 37.0476 17.5486 37.2204 18.3991C36.5166 17.5472 35.1063 16.1441 33.6235 15.6692Z" fill="#4A83F9"/>
<path d="M21.3337 36.4612C20.9874 36.6782 20.7493 37.0472 20.7709 37.5789C20.7925 38.1106 21.0082 38.5233 21.5502 38.588C22.0922 38.6527 22.904 38.6202 23.3685 38.5555C23.8331 38.4908 24.1045 38.1214 24.1478 37.5572C24.1911 36.9929 23.8957 36.6041 23.5201 36.4395C23.0329 36.226 21.6801 36.2442 21.3337 36.4612Z" fill="#FFF7C9"/>
<path d="M28.1835 14.4739L27.4883 15.2854C29.1379 14.815 31.4268 14.6824 31.1721 14.6611C30.9175 14.6399 29.0058 14.4827 28.1835 14.4739Z" fill="#F49B26"/>
<path d="M19.6038 29.9547C19.0814 30.0689 18.5416 30.0788 18.0153 29.9838C17.489 29.8888 16.9866 29.6908 16.5367 29.401C16.0868 29.1113 15.6983 28.7355 15.3934 28.2951C15.0885 27.8548 14.8732 27.3585 14.7598 26.8347C14.6466 26.3111 14.6374 25.7701 14.7328 25.2429C14.8282 24.7157 15.0263 24.2124 15.3158 23.762C15.6053 23.3115 15.9805 22.9226 16.42 22.6175C16.8595 22.3125 17.3547 22.0972 17.8772 21.984C18.3996 21.8697 18.9394 21.8598 19.4657 21.9548C19.992 22.0498 20.4944 22.248 20.9443 22.5377C21.3942 22.8275 21.7827 23.2033 22.0876 23.6436C22.3925 24.084 22.6078 24.5802 22.7212 25.104C22.8344 25.6277 22.8436 26.1686 22.7482 26.6959C22.6528 27.2231 22.4547 27.7262 22.1652 28.1767C21.8757 28.6272 21.5005 29.0162 21.061 29.3212C20.6215 29.6263 20.1264 29.8415 19.6038 29.9547Z" fill="white"/>
<path d="M14.9184 27.123C14.7859 26.7126 14.7357 26.28 14.7705 25.8501C14.8053 25.4202 14.9244 25.0014 15.1212 24.6178C15.3179 24.2342 15.5883 23.8934 15.9168 23.6148C16.2453 23.3362 16.6255 23.1254 17.0355 22.9945C17.8695 22.7512 18.7657 22.8498 19.5272 23.2685C20.2887 23.6872 20.8532 24.3919 21.0966 25.2276C21.2297 25.6376 21.2804 26.07 21.2458 26.4997C21.2113 26.9295 21.0922 27.3482 20.8953 27.7316C20.6985 28.115 20.4278 28.4554 20.099 28.7334C19.7702 29.0114 19.3897 29.2214 18.9795 29.3512C18.1462 29.5947 17.2505 29.4968 16.4892 29.079C15.7278 28.6613 15.1628 27.9578 14.9184 27.123Z" fill="#2238A8"/>
</svg>
