<svg width="32" height="32" viewBox="0 0 32 32" fill="none" xmlns="http://www.w3.org/2000/svg">
<circle cx="16" cy="16" r="14" fill="#FFFBE9"/>
<path d="M21.8833 14.5382C21.7804 14.3775 21.6271 14.2432 21.4398 14.1497C21.2524 14.0561 21.0381 14.0069 20.8197 14.0073H18.5618L21.2556 9.44727C21.3486 9.29491 21.3927 9.12505 21.3835 8.95424C21.3743 8.78344 21.3122 8.61754 21.2033 8.47273C21.0953 8.32822 20.945 8.209 20.7666 8.1263C20.5882 8.0436 20.3874 8.00014 20.1833 8H14.1941C13.9422 8.00078 13.6969 8.06704 13.4922 8.18956C13.2875 8.31209 13.1337 8.48478 13.0521 8.68363L10.0619 16.1818C10.0023 16.332 9.98542 16.4916 10.0127 16.6482C10.0399 16.8047 10.1105 16.9538 10.2188 17.0836C10.3306 17.2123 10.4774 17.3169 10.6472 17.389C10.8169 17.4611 11.0047 17.4985 11.1952 17.4982H13.9936L13.0085 22.8509C12.9662 23.0739 13.0166 23.3023 13.1514 23.4981C13.2862 23.6939 13.4973 23.8454 13.7495 23.9273C13.8905 23.9758 14.0416 24.0006 14.1941 24C14.3888 24.0009 14.5807 23.9615 14.7526 23.8853C14.9245 23.8092 15.0711 23.6986 15.1793 23.5636L21.77 15.5636C21.8973 15.4169 21.9749 15.2442 21.9949 15.0638C22.0148 14.8834 21.9763 14.7019 21.8833 14.5382Z" fill="#F49B26"/>
</svg>
