<svg width="20" height="20" viewBox="0 0 20 20" fill="none" xmlns="http://www.w3.org/2000/svg">
<path d="M10.0001 1.25049C5.40841 1.25049 1.66675 4.76715 1.66675 9.09215C1.6694 10.1496 1.89318 11.1948 2.32372 12.1607C2.75426 13.1265 3.38204 13.9916 4.16675 14.7005L3.55842 16.6255C3.49712 16.8018 3.48864 16.9921 3.534 17.1731C3.57936 17.3542 3.67659 17.518 3.81376 17.6446C3.95093 17.7711 4.12207 17.8549 4.30617 17.8855C4.49026 17.9162 4.6793 17.8924 4.85008 17.8172L7.30008 16.5172C8.16901 16.8001 9.07794 16.9408 9.99175 16.9338C14.5834 16.9338 18.3251 13.4172 18.3251 9.09215C18.3251 4.76715 14.5917 1.25049 10.0001 1.25049ZM9.80841 14.1672C9.53657 14.1672 9.27586 14.0592 9.08363 13.8669C8.89141 13.6747 8.78342 13.414 8.78342 13.1422C8.77895 13.0048 8.80216 12.8679 8.85166 12.7397C8.90117 12.6114 8.97596 12.4945 9.07158 12.3957C9.16721 12.297 9.28173 12.2185 9.40831 12.1649C9.53489 12.1113 9.67096 12.0837 9.80841 12.0838C9.94587 12.0837 10.0819 12.1113 10.2085 12.1649C10.3351 12.2185 10.4496 12.297 10.5452 12.3957C10.6409 12.4945 10.7157 12.6114 10.7652 12.7397C10.8147 12.8679 10.8379 13.0048 10.8334 13.1422C10.8334 13.414 10.7254 13.6747 10.5332 13.8669C10.341 14.0592 10.0803 14.1672 9.80841 14.1672ZM12.8251 7.78382C12.6645 8.13536 12.4338 8.45044 12.1472 8.70979C11.8607 8.96914 11.5242 9.1673 11.1584 9.29215H11.1084C10.9292 9.35746 10.7585 9.4442 10.6001 9.55049V10.2922C10.6001 10.4963 10.5196 10.6921 10.376 10.8372C10.2325 10.9823 10.0375 11.065 9.83342 11.0672C9.62787 11.0672 9.43075 10.9855 9.2854 10.8402C9.14006 10.6948 9.05842 10.4977 9.05842 10.2922V9.58382C9.05712 9.35602 9.1092 9.13107 9.2105 8.92703C9.3118 8.72298 9.4595 8.5455 9.64175 8.40882C9.89729 8.22086 10.1778 8.06941 10.4751 7.95882C11.0334 7.71715 11.3084 7.56715 11.4167 7.26715C11.4918 7.1006 11.5168 6.9158 11.4887 6.73528C11.4606 6.55477 11.3806 6.38632 11.2584 6.25049C11.1083 6.07914 10.9221 5.94319 10.7132 5.85241C10.5042 5.76164 10.2778 5.71829 10.0501 5.72549C9.09175 5.72549 8.77508 6.01715 8.65841 6.16715C8.60484 6.24698 8.56276 6.33394 8.53341 6.42549C8.53085 6.45042 8.53085 6.47555 8.53341 6.50049C8.52906 6.70092 8.44636 6.89167 8.30306 7.03186C8.15975 7.17205 7.96723 7.25054 7.76675 7.25049C7.66475 7.25392 7.56313 7.23649 7.46811 7.19929C7.37308 7.16208 7.28665 7.10587 7.2141 7.0341C7.14155 6.96233 7.08441 6.87651 7.04618 6.78189C7.00795 6.68727 6.98942 6.58585 6.99175 6.48382V6.43382C6.99672 6.40347 6.99672 6.37251 6.99175 6.34215C7.00327 6.24963 7.01996 6.15782 7.04175 6.06715C7.11375 5.76697 7.244 5.48383 7.42508 5.23382C7.74379 4.85033 8.15283 4.55208 8.6154 4.36588C9.07797 4.17969 9.57957 4.1114 10.0751 4.16715C10.5357 4.15824 10.9925 4.25238 11.4121 4.4427C11.8316 4.63302 12.2034 4.9147 12.5001 5.26715C12.7739 5.61946 12.9485 6.03865 13.0056 6.48119C13.0628 6.92373 13.0004 7.3735 12.8251 7.78382Z" fill="white"/>
</svg>
