<svg width="65" height="64" viewBox="0 0 65 64" fill="none" xmlns="http://www.w3.org/2000/svg">
<g clip-path="url(#clip0_12319_88990)">
<path d="M34.664 15.4725C31.7 10.0683 25.068 1.02974 19.8763 3.67463C16.614 5.50485 26.8816 13.5018 26.8816 13.5018C26.8816 13.5018 15.4627 12.1487 20.0681 20.5307C22.8718 25.6326 28.2006 23.7736 31.9408 21.5379C28.6387 30.0296 35.7089 20.7232 35.7089 20.7232C39.739 15.7134 45.0918 12.4193 46.936 9.06578C51.8433 0.1416 41.9083 1.31525 34.664 15.4725Z" fill="#D5DFEE"/>
<path d="M37.9241 60.7001C34.1496 60.8758 30.3288 60.7931 26.4664 60.6638C17.8217 60.3736 12.2021 53.3838 11.915 44.2309L10.9554 28.0491C10.7599 21.8795 15.6533 18.3148 22.2704 17.9298C29.36 17.5169 36.0716 17.5504 43.2843 17.9298C49.2818 18.2451 53.4555 22.072 53.4555 29.1055L52.4996 44.9051C52.6913 55.1173 46.0751 60.3197 37.9241 60.7001Z" fill="#D5DFEE"/>
<path d="M22.5708 46.3237C23.4225 44.3813 22.0272 41.8849 19.4544 40.7477C16.8817 39.6106 14.1056 40.2634 13.254 42.2058C12.4023 44.1482 13.7976 46.6446 16.3703 47.7817C18.9431 48.9189 21.7192 48.2661 22.5708 46.3237Z" fill="#BECBDF"/>
<path d="M48.0969 47.1744C50.6697 46.0373 52.0649 43.5408 51.2133 41.5984C50.3616 39.656 47.5856 39.0032 45.0129 40.1404C42.4401 41.2775 41.0449 43.774 41.8965 45.7164C42.7482 47.6587 45.5242 48.3115 48.0969 47.1744Z" fill="#BECBDF"/>
<path d="M42.218 35.6074C40.6859 34.8591 39.6585 33.9536 39.0548 33.1528C38.7319 32.7246 38.8489 32.1401 39.239 31.7722C39.6996 31.3377 40.4136 31.3183 40.9177 31.7015C41.6479 32.2566 42.6541 32.9671 43.6647 33.5407C44.8961 34.2397 46.8355 34.6728 48.1288 34.878C48.5733 34.9485 48.8973 35.3494 48.851 35.7971C48.8099 36.1945 48.4896 36.5145 48.0916 36.5505C46.8786 36.66 44.576 36.759 42.218 35.6074Z" fill="#8C9CB6"/>
<path d="M22.3132 35.9401C23.8454 35.1918 24.8727 34.2862 25.4765 33.4855C25.7993 33.0573 25.6823 32.4728 25.2922 32.1048C24.8317 31.6703 24.1176 31.651 23.6136 32.0342C22.8833 32.5893 21.8772 33.2998 20.8666 33.8734C19.6351 34.5723 17.6958 35.0055 16.4025 35.2106C15.9579 35.2812 15.6339 35.682 15.6802 36.1298C15.7214 36.5272 16.0417 36.8472 16.4396 36.8831C17.6526 36.9927 19.9553 37.0917 22.3132 35.9401Z" fill="#8C9CB6"/>
<path d="M44.5172 21.5823C43.47 18.7862 46.4464 13.6566 47.523 12.3584C48.5996 11.0601 52.1875 18.6883 50.0233 21.9459C48.378 24.4225 45.187 23.371 44.5172 21.5823Z" fill="#EAF2FD"/>
<path d="M33.0449 51.6586C33.1213 50.7128 33.3359 44.7184 32.8582 41.3489C30.2719 42.8197 26.0595 47.9847 26.7038 48.6912C28.3978 50.5484 33.0449 51.6586 33.0449 51.6586Z" fill="#C6D2E4"/>
<path d="M33.0407 51.6583L32.8501 41.3403C36.7034 43.6651 39.5731 47.407 39.3769 48.2613C38.4428 49.1383 35.1841 51.3932 33.0407 51.6583Z" fill="#B5C3D9"/>
<path d="M33.0645 44.0689C30.6871 44.1528 28.0777 46.5865 26.814 48.1781C26.4983 48.5757 26.8067 48.9028 27.2428 48.6429C28.3587 47.9777 30.0781 47.0502 32.9203 46.9527C35.1989 46.8746 37.3219 47.6373 38.8152 48.3204C39.1832 48.4887 39.5154 48.0957 39.253 47.7878C37.8448 46.1355 35.4395 43.9851 33.0645 44.0689Z" fill="#8C9CB6"/>
<path d="M19.3749 43.0282C13.4554 43.0282 8.64014 38.8123 8.64014 33.6294C8.64014 28.4464 13.4554 24.2306 19.3749 24.2306C25.2943 24.2306 30.1105 28.4464 30.1105 33.6294C30.1105 38.8123 25.2943 43.0282 19.3749 43.0282ZM19.3749 25.5396C14.1803 25.5396 9.95298 29.1692 9.95298 33.6294C9.95298 38.0896 14.1803 41.7192 19.3749 41.7192C24.5694 41.7192 28.7967 38.0905 28.7967 33.6294C28.7967 29.1683 24.5731 25.5396 19.3749 25.5396Z" fill="#A4B3CD"/>
<path d="M45.0311 43.0271C39.1117 43.0271 34.2964 38.8103 34.2964 33.6283C34.2964 28.4462 39.1089 24.2313 45.0311 24.2313C50.9533 24.2313 55.7667 28.4481 55.7667 33.631C55.7667 38.814 50.9505 43.0271 45.0311 43.0271ZM45.0311 25.5384C39.8366 25.5384 35.6092 29.1672 35.6092 33.6283C35.6092 38.0894 39.8366 41.7181 45.0311 41.7181C50.2256 41.7181 54.453 38.0884 54.453 33.6283C54.453 29.1681 50.2265 25.5384 45.0311 25.5384Z" fill="#A4B3CD"/>
<path d="M29.6746 33.7576L28.8481 32.7403C28.877 32.7152 28.9562 32.6279 29.0205 32.5545C29.7389 31.7639 31.9229 29.3587 35.5661 32.4124L34.721 33.4148C32.0468 31.1721 30.7144 32.6427 29.9942 33.4333C29.8959 33.5492 29.7891 33.6576 29.6746 33.7576Z" fill="#A4B3CD"/>
</g>
<defs>
<clipPath id="clip0_12319_88990">
<rect width="57.6" height="57.6" fill="white" transform="translate(3.53369 3.20044)"/>
</clipPath>
</defs>
</svg>
