<svg width="65" height="64" viewBox="0 0 65 64" fill="none" xmlns="http://www.w3.org/2000/svg">
<g clip-path="url(#clip0_12319_89006)">
<path d="M47.5033 9.06937C46.1521 11.4849 42.9493 13.8725 39.7324 16.8928L39.7268 16.8983C38.432 18.0942 37.2185 19.3731 36.0943 20.7269C36.0943 20.7269 28.9092 30.0321 32.2653 21.5407C28.4644 23.776 23.05 25.6359 20.2008 20.5336C15.5207 12.1528 27.1282 13.5018 27.1282 13.5018C25.5568 12.2778 24.0553 10.9686 22.6306 9.58033H22.6259C20.2939 7.27076 18.2731 4.63138 20.0052 3.67447C25.0943 1.12335 31.5478 9.44284 34.6979 14.8851L34.7101 14.9056C34.822 15.0979 34.9302 15.2874 35.0336 15.4723C37.2556 11.1996 39.7287 8.1106 41.9582 6.12526C47.1159 1.52841 50.9835 2.8402 47.5033 9.06937Z" fill="#D5DFEE"/>
<path d="M54.1332 29.1072L53.9198 32.5576L53.1581 44.9072C53.3527 55.1192 46.6256 60.3208 38.3422 60.7008C34.5066 60.8764 30.624 60.7937 26.7 60.6646C17.9125 60.3729 12.2047 53.3837 11.9123 44.2318L10.9372 28.0537C10.7425 21.8821 15.715 18.3174 22.4431 17.9328C25.0882 17.7804 27.6826 17.6894 30.2695 17.6541C34.7248 17.5918 39.1594 17.6931 43.7971 17.9328C49.8914 18.2505 54.1332 22.0744 54.1332 29.1072Z" fill="#D5DFEE"/>
<path d="M21.2041 38.831C23.7722 38.831 25.8541 36.7059 25.8541 34.0846C25.8541 31.4632 23.7722 29.3381 21.2041 29.3381C18.6361 29.3381 16.5542 31.4632 16.5542 34.0846C16.5542 36.7059 18.6361 38.831 21.2041 38.831Z" fill="white"/>
<path d="M21.4343 29.5718C22.0397 29.5733 22.6382 29.6991 23.1919 29.9413C23.7455 30.1834 24.2421 30.5366 24.6503 30.9784C24.7102 31.0437 24.7892 31.0889 24.8764 31.1077C24.9635 31.1265 25.0544 31.118 25.1365 31.0834C25.1988 31.0565 25.2537 31.0153 25.2965 30.9631C25.3394 30.911 25.369 30.8495 25.3829 30.7837C25.3968 30.718 25.3946 30.6499 25.3764 30.5852C25.3583 30.5204 25.3247 30.461 25.2784 30.4117C24.791 29.8829 24.1975 29.4601 23.5357 29.1702C22.8739 28.8804 22.1582 28.7299 21.4343 28.7283C18.5088 28.7301 16.126 31.153 16.126 34.1315C16.126 37.11 18.506 39.532 21.4315 39.532C22.4236 39.5325 23.3947 39.2499 24.2281 38.7182C24.2894 38.6784 24.3392 38.6237 24.3728 38.5594C24.4064 38.495 24.4225 38.4231 24.4197 38.3507C24.4169 38.2784 24.3951 38.208 24.3566 38.1463C24.3181 38.0847 24.2641 38.034 24.1999 37.9991C24.1329 37.9625 24.0572 37.9444 23.9807 37.9469C23.9042 37.9493 23.8298 37.9722 23.7654 38.013C23.0699 38.4551 22.2604 38.6902 21.4333 38.6903C18.9771 38.6903 16.9798 36.6464 16.9798 34.1315C16.9798 31.6166 18.9781 29.5718 21.4343 29.5718Z" fill="#8C9CB6"/>
<path d="M21.6092 38.001C23.7079 38.001 25.4093 36.2997 25.4093 34.201C25.4093 32.1022 23.7079 30.4009 21.6092 30.4009C19.5104 30.4009 17.8091 32.1022 17.8091 34.201C17.8091 36.2997 19.5104 38.001 21.6092 38.001Z" fill="#8C9CB6"/>
<path d="M14.1418 25.9124C14.2368 25.6509 14.3538 25.3976 14.4916 25.1553C14.624 24.92 14.7684 24.6915 14.9242 24.4706C15.2332 24.0342 15.5735 23.6204 15.9425 23.2322C16.3119 22.8447 16.7061 22.481 17.1227 22.1434C17.3323 21.9761 17.5458 21.8108 17.7658 21.6547C17.9859 21.4986 18.2116 21.349 18.4438 21.2078C18.5585 21.1354 18.6751 21.0657 18.7936 20.9988C18.9112 20.931 19.0296 20.8622 19.151 20.8C19.3917 20.6718 19.6399 20.5556 19.8901 20.4414C20.3947 20.2153 20.9167 20.0289 21.451 19.8839C21.5845 19.8468 21.719 19.8087 21.8553 19.7818C21.9917 19.7548 22.1271 19.7177 22.2653 19.6963L22.6791 19.6257L23.0975 19.5764C23.6571 19.5226 24.2203 19.5179 24.7807 19.5625C25.0346 19.5753 25.2729 19.6872 25.4433 19.8737C25.6136 20.0601 25.7021 20.3057 25.6891 20.5566C25.6761 20.8074 25.5628 21.0429 25.3741 21.2112C25.1854 21.3795 24.9368 21.4668 24.6829 21.454H24.6594C24.2038 21.4407 23.7478 21.4553 23.2941 21.4977C22.838 21.5431 22.3859 21.6204 21.9409 21.729C21.829 21.7559 21.7162 21.782 21.6062 21.8154C21.4961 21.8489 21.3833 21.8758 21.2733 21.9139L20.9423 22.0207L20.6141 22.1406C20.3969 22.226 20.1797 22.3134 19.9672 22.4128C19.8581 22.4583 19.7528 22.5057 19.6465 22.5605C19.5403 22.6153 19.434 22.6636 19.3306 22.7194C19.1199 22.8271 18.914 22.9442 18.7099 23.065C18.5059 23.1857 18.3028 23.3102 18.1034 23.4412C17.7075 23.706 17.3154 23.9828 16.944 24.2866C16.5687 24.5855 16.2093 24.9033 15.8673 25.2389C15.7827 25.3225 15.7009 25.4089 15.6162 25.4934C15.5316 25.578 15.4536 25.6662 15.3783 25.7554C15.2248 25.9259 15.0816 26.1052 14.9495 26.2924L14.9392 26.3073C14.8784 26.3972 14.7865 26.462 14.6807 26.4896C14.575 26.5172 14.4626 26.5057 14.3649 26.4571C14.2671 26.4086 14.1907 26.3265 14.1499 26.2261C14.1092 26.1258 14.107 26.0143 14.1437 25.9124H14.1418Z" fill="#8C9CB6"/>
<path d="M50.7615 24.8005C50.6087 24.6295 50.4457 24.4676 50.2735 24.3156C50.1879 24.2357 50.0958 24.1595 50.0055 24.0833C49.9152 24.0071 49.8174 23.9328 49.7234 23.8594C49.3449 23.5644 48.9506 23.2896 48.5423 23.0363C48.138 22.778 47.7167 22.5476 47.2917 22.3293C47.0782 22.2234 46.8629 22.1212 46.6447 22.0255C46.4266 21.9298 46.2103 21.8397 45.9865 21.7533C45.8765 21.7096 45.7655 21.6697 45.6536 21.6325C45.5417 21.5954 45.4317 21.5545 45.3189 21.522C45.0951 21.4476 44.8694 21.3854 44.6437 21.3259L44.3033 21.2442L43.962 21.1764C43.8491 21.1513 43.7344 21.1374 43.6197 21.1169C43.505 21.0965 43.3921 21.0835 43.2774 21.0695C42.8225 21.0125 42.364 20.9874 41.9055 20.9943C41.45 21.0046 40.9956 21.0425 40.5448 21.1076H40.5251C40.2774 21.1435 40.0253 21.0823 39.8227 20.9371C39.6201 20.7918 39.4829 20.5741 39.4406 20.3303C39.3982 20.0866 39.454 19.8361 39.596 19.6325C39.738 19.4288 39.955 19.288 40.2006 19.2403C40.7522 19.1322 41.3123 19.0725 41.8744 19.0619H42.2957L42.7142 19.0842C42.8543 19.0907 42.9963 19.1102 43.1317 19.1223C43.2671 19.1344 43.4081 19.1557 43.5454 19.178C44.0933 19.2596 44.6338 19.3839 45.1618 19.5496C45.4233 19.6342 45.6837 19.7206 45.9376 19.8209C46.0655 19.8692 46.1906 19.9231 46.3137 19.9779C46.4369 20.0327 46.5639 20.0857 46.6899 20.1451C46.9362 20.2585 47.1779 20.383 47.4158 20.5112C47.6537 20.6394 47.886 20.7806 48.1117 20.9237C48.566 21.2126 49.001 21.53 49.414 21.8741C49.8258 22.2181 50.2123 22.5907 50.5706 22.9889C50.7512 23.1902 50.9213 23.4005 51.0803 23.6188C51.2455 23.8441 51.3917 24.0825 51.5176 24.3314C51.5653 24.4284 51.5756 24.5392 51.5467 24.6432C51.5178 24.7472 51.4515 24.8372 51.3603 24.8965C51.2691 24.9558 51.1592 24.9802 51.0511 24.9653C50.943 24.9504 50.8441 24.8971 50.7728 24.8154L50.7615 24.8005Z" fill="#8C9CB6"/>
<path d="M23.7195 46.3758C24.5849 44.4335 23.1672 41.9373 20.553 40.8003C17.9388 39.6633 15.118 40.3161 14.2525 42.2583C13.3871 44.2006 14.8048 46.6969 17.419 47.8339C20.0332 48.9709 22.854 48.3181 23.7195 46.3758Z" fill="#BECBDF"/>
<path d="M49.4089 45.631C52.0231 44.494 53.4408 41.9977 52.5754 40.0555C51.71 38.1132 48.8892 37.4604 46.275 38.5974C43.6607 39.7344 42.2431 42.2307 43.1085 44.1729C43.9739 46.1152 46.7947 46.768 49.4089 45.631Z" fill="#BECBDF"/>
<path d="M19.7193 44.5832C13.7454 44.5832 8.88574 40.3673 8.88574 35.1842C8.88574 30.0011 13.7454 25.7852 19.7193 25.7852C25.6933 25.7852 30.5539 30.0011 30.5539 35.1842C30.5539 40.3673 25.6933 44.5832 19.7193 44.5832ZM19.7193 27.0942C14.477 27.0942 10.2107 30.7239 10.2107 35.1842C10.2107 39.6445 14.477 43.2742 19.7193 43.2742C24.9617 43.2742 29.228 39.6454 29.228 35.1842C29.228 30.723 24.9655 27.0942 19.7193 27.0942Z" fill="#A4B3CD"/>
<path d="M36.8287 42.9537C36.2506 43.2798 34.471 44.064 32.6276 44.774C31.9229 45.0458 31.2094 45.3063 30.5528 45.5255C29.0333 46.0293 27.0249 46.8739 27.0249 46.8739C27.1795 44.4971 30.3851 41.3784 31.3649 40.5803C31.399 40.5523 31.4366 40.5286 31.4766 40.5096C31.4954 40.4999 31.5146 40.4913 31.5343 40.4837C31.6123 40.4541 31.6952 40.4389 31.7788 40.4389C32.7393 40.4328 37.0575 40.6218 39.4143 43.3885C41.1416 45.4168 37.0942 42.8062 36.8287 42.9537Z" fill="#C6D2E4"/>
<path d="M45.6124 42.9929C39.6384 42.9929 34.7788 38.776 34.7788 33.5938C34.7788 28.4117 39.6356 24.1967 45.6124 24.1967C51.5891 24.1967 56.4469 28.4135 56.4469 33.5966C56.4469 38.7797 51.5863 42.9929 45.6124 42.9929ZM45.6124 25.5038C40.37 25.5038 36.1037 29.1326 36.1037 33.5938C36.1037 38.055 40.37 41.6838 45.6124 41.6838C50.8547 41.6838 55.121 38.0541 55.121 33.5938C55.121 29.1335 50.8557 25.5038 45.6124 25.5038Z" fill="#A4B3CD"/>
<path d="M30.1134 33.9789L29.2793 32.9616C29.3084 32.9366 29.3884 32.8492 29.4533 32.7758C30.1783 31.9852 32.3824 29.58 36.0591 32.6337L35.2062 33.6361C32.5075 31.3934 31.1628 32.8641 30.4359 33.6547C30.3367 33.7706 30.2289 33.879 30.1134 33.9789Z" fill="#A4B3CD"/>
<path d="M36.4952 55.8834C36.2642 56.0177 36.0169 56.1224 35.7591 56.1949C35.6199 56.2346 35.4777 56.2635 35.3338 56.2812C32.2068 56.6625 28.459 51.1997 28.459 50.7856C28.459 50.3197 34.692 48.4838 34.692 48.4838L35.4779 48.4096L40.4553 47.9369C40.4553 47.9369 40.7862 46.8576 40.8456 47.2639C41.0316 48.4787 40.0309 53.8534 36.4952 55.8834Z" fill="#C6D2E4"/>
<path d="M36.8284 42.9541C36.2503 43.2802 34.4707 44.0644 32.6274 44.7744C32.4248 44.3353 32.2667 43.9212 32.2178 43.6529C32.0895 42.942 31.755 41.5772 31.4756 40.5065C31.4943 40.4969 31.5135 40.4882 31.5332 40.4807C31.6112 40.451 31.6941 40.4358 31.7777 40.4358C32.7383 40.4298 37.0563 40.6187 39.4131 43.3855C41.1412 45.4172 37.0939 42.8066 36.8284 42.9541Z" fill="#B5C3D9"/>
<path d="M36.494 55.8841C36.2631 56.0184 36.0157 56.1231 35.7579 56.1955C35.4409 55.3604 35.0209 54.2113 34.7686 53.3485L35.4811 48.4051L40.4584 47.9324C40.4584 47.9324 40.7894 46.8531 40.8488 47.2594C41.0304 48.4793 40.0297 53.8541 36.494 55.8841Z" fill="#B5C3D9"/>
<path d="M27.4939 49.4004C28.2702 51.2562 29.8516 52.7763 31.5709 53.5941C32.9166 54.2343 34.3513 54.4431 35.5537 54.0419C38.0188 53.218 40.3974 50.7636 40.793 47.6983C40.8383 47.3551 40.8573 47.009 40.8497 46.663C40.7746 43.1172 37.8188 42.2364 36.447 42.7885C34.9407 43.3924 33.1226 44.6555 30.8095 45.1118C27.4782 45.7675 26.1107 46.0945 27.4939 49.4004Z" fill="#8C9CB6"/>
<path d="M31.5713 53.5903C32.9169 54.2305 34.3516 54.4392 35.554 54.0381C38.0191 53.2142 40.3978 50.7597 40.7934 47.6945C38.9028 47.4244 36.4596 47.7669 34.0809 49.6908C32.8341 50.6835 31.9523 52.0537 31.5713 53.5903Z" fill="#A4B3CD"/>
<path d="M47.9491 29.3851C47.6924 29.5802 47.4291 29.7623 47.163 29.9425C46.8969 30.1228 46.6299 30.2928 46.3609 30.4619C45.8224 30.7988 45.2808 31.1246 44.736 31.4392C44.1972 31.756 43.6443 32.057 43.1553 32.3812C43.034 32.4611 42.9165 32.5429 42.8149 32.6246C42.7326 32.6871 42.6555 32.7561 42.5845 32.8309C42.5751 32.8411 42.5733 32.8448 42.5751 32.8393C42.5896 32.8116 42.6012 32.7827 42.6099 32.7529C42.6226 32.7117 42.6311 32.6693 42.6353 32.6265C42.6381 32.5931 42.6381 32.5596 42.6353 32.5262C42.6343 32.4836 42.6286 32.4412 42.6184 32.3998C42.6081 32.3535 42.5929 32.3084 42.5733 32.2651L42.5488 32.214C42.5413 32.1982 42.5328 32.1843 42.5244 32.1694L42.4905 32.122C42.4849 32.1137 42.4717 32.0997 42.4708 32.0979V32.0932L42.4839 32.1053L42.5074 32.1248L42.5394 32.1499C42.5845 32.1843 42.6334 32.2233 42.6964 32.2614C42.9296 32.4165 43.2052 32.5689 43.4788 32.7175C43.7524 32.8662 44.0345 33.0167 44.3129 33.1718C44.8677 33.4859 45.4046 33.8417 45.9481 34.1938C47.0323 34.8961 48.1156 35.6171 49.1584 36.416C49.2283 36.469 49.2772 36.5446 49.2964 36.6295C49.3157 36.7145 49.3042 36.8034 49.2639 36.8808C49.2236 36.9582 49.1571 37.0192 49.076 37.0531C48.9948 37.087 48.9042 37.0917 48.8199 37.0664C47.5579 36.6893 46.3212 36.2344 45.1169 35.7044C44.5101 35.45 43.9166 35.1656 43.3387 34.8525C43.0516 34.689 42.7695 34.5155 42.4924 34.3322C42.2103 34.1464 41.9282 33.9606 41.6339 33.7451C41.5596 33.6902 41.4825 33.6345 41.3988 33.5685L41.3358 33.5184L41.2671 33.4598C41.2446 33.4403 41.2164 33.4125 41.191 33.3892C41.1656 33.366 41.1637 33.3623 41.1477 33.3456L41.1016 33.2963C41.0866 33.2805 41.0621 33.2499 41.0433 33.2267C41.0187 33.1954 40.9958 33.1628 40.9747 33.1291C40.9606 33.1068 40.9465 33.0836 40.9343 33.0594C40.9199 33.0342 40.9071 33.0081 40.8957 32.9814C40.8691 32.9192 40.848 32.8549 40.8327 32.7891C40.8196 32.7279 40.8111 32.6658 40.8073 32.6033C40.8056 32.55 40.8072 32.4966 40.812 32.4435C40.8204 32.3605 40.8374 32.2786 40.8628 32.1992C40.8976 32.0931 40.9442 31.9912 41.002 31.8954C41.0423 31.8313 41.0859 31.7692 41.1327 31.7095C41.2062 31.6164 41.285 31.5274 41.3687 31.4429C41.443 31.3667 41.5154 31.2961 41.5869 31.2311C41.7298 31.101 41.869 30.9849 42.0072 30.8716C42.539 30.4419 43.1008 30.0498 43.6885 29.6982C44.2597 29.3554 44.8531 29.05 45.4648 28.784C45.7704 28.653 46.0807 28.5295 46.3985 28.4236C46.7168 28.3107 47.0418 28.2176 47.3718 28.1448C47.5288 28.1109 47.6929 28.1307 47.837 28.2011C47.9811 28.2715 48.0966 28.3882 48.1647 28.5321C48.2327 28.6759 48.2492 28.8384 48.2114 28.9928C48.1736 29.1471 48.0838 29.2842 47.9567 29.3814L47.9491 29.3851Z" fill="#8C9CB6"/>
</g>
<defs>
<clipPath id="clip0_12319_89006">
<rect width="57.6009" height="57.6009" fill="white" transform="translate(3.8667 3.20007)"/>
</clipPath>
</defs>
</svg>
