<svg width="64" height="64" viewBox="0 0 64 64" fill="none" xmlns="http://www.w3.org/2000/svg">
<g clip-path="url(#clip0_12319_88998)">
<path d="M46.8437 9.20948C45.5047 11.6249 42.3312 14.0125 39.1437 17.0327L39.1381 17.0382C37.8551 18.2341 36.6527 19.513 35.5387 20.8667C35.5387 20.8667 28.4192 30.1717 31.7446 21.6805C27.9785 23.9157 22.6134 25.7756 19.7902 20.6735C15.1529 12.2929 26.6545 13.6418 26.6545 13.6418C25.0974 12.4178 23.6096 11.1087 22.1979 9.72044H22.1932C19.8825 7.41092 17.8802 4.7716 19.5964 3.81472C24.6391 1.26366 31.0337 9.58294 34.1551 15.0251L34.1672 15.0455C34.278 15.2378 34.3852 15.4273 34.4877 15.6122C36.6894 11.3397 39.1399 8.25074 41.3491 6.26545C46.4598 1.66871 50.2921 2.98047 46.8437 9.20948Z" fill="#D5DFEE"/>
<path d="M53.4125 29.2462L53.202 32.6974L52.4472 45.0468C52.6401 55.2575 45.9734 60.46 37.7666 60.8399C33.9659 61.0155 30.1187 60.9328 26.2296 60.8046C17.5233 60.5129 11.8685 53.523 11.5778 44.3704L10.9163 33.2855L10.742 30.3693L10.6125 28.1936C10.4178 22.0268 15.3384 18.4631 21.9957 18.0739H22.0106C24.6317 17.9224 27.2024 17.8305 29.7656 17.7952C34.1812 17.7329 38.5735 17.8342 43.1698 18.0739C49.2103 18.3907 53.4125 22.2145 53.4125 29.2462Z" fill="#D5DFEE"/>
<path d="M44.5292 37.9452C47.3261 37.9452 49.5935 35.6096 49.5935 32.7284C49.5935 29.8472 47.3261 27.5115 44.5292 27.5115C41.7322 27.5115 39.4648 29.8472 39.4648 32.7284C39.4648 35.6096 41.7322 37.9452 44.5292 37.9452Z" fill="white"/>
<path d="M49.1309 32.7803C49.1309 35.5434 46.9557 37.7899 44.2776 37.7899C43.3768 37.79 42.4951 37.5316 41.7377 37.0455C41.6674 37.0005 41.5862 36.9753 41.5027 36.9726C41.4193 36.9699 41.3366 36.9898 41.2635 37.0302C41.1936 37.0685 41.1348 37.1243 41.0928 37.192C41.0509 37.2597 41.0272 37.3371 41.0241 37.4167C41.021 37.4962 41.0386 37.5752 41.0752 37.646C41.1118 37.7167 41.1661 37.7768 41.2328 37.8205C42.14 38.4053 43.1973 38.7163 44.2776 38.716C47.4636 38.716 50.0547 36.0529 50.0547 32.7803C50.0547 29.5076 47.4677 26.8435 44.2776 26.8435C43.489 26.8454 42.7095 27.0109 41.9885 27.3294C41.2676 27.648 40.621 28.1126 40.0899 28.6938C40.0398 28.7481 40.0035 28.8136 39.9839 28.8847C39.9643 28.9558 39.962 29.0306 39.9772 29.1028C39.9925 29.175 40.0247 29.2426 40.0714 29.2998C40.1181 29.3571 40.1778 29.4024 40.2456 29.432C40.3349 29.4701 40.4339 29.4794 40.5288 29.4588C40.6237 29.4381 40.7098 29.3884 40.775 29.3166C41.2194 28.8307 41.7602 28.4421 42.3631 28.1756C42.9661 27.9091 43.618 27.7705 44.2776 27.7686C46.9557 27.7686 49.1309 30.0171 49.1309 32.7803Z" fill="#8C9CB6"/>
<path d="M44.3523 36.983C46.4912 36.983 48.2251 35.1407 48.2251 32.868C48.2251 30.5954 46.4912 28.7531 44.3523 28.7531C42.2134 28.7531 40.4795 30.5954 40.4795 32.868C40.4795 35.1407 42.2134 36.983 44.3523 36.983Z" fill="#8C9CB6"/>
<path d="M19.1422 37.9454C16.3453 37.9454 14.0779 35.6097 14.0779 32.7285C14.0779 29.8473 16.3453 27.5116 19.1422 27.5116C21.9392 27.5116 24.2065 29.8473 24.2065 32.7285C24.2065 35.6097 21.9392 37.9454 19.1422 37.9454Z" fill="white"/>
<path d="M14.5415 32.7804C14.5415 35.5435 16.7167 37.79 19.3948 37.79C20.2955 37.7902 21.1773 37.5317 21.9346 37.0456C22.0049 37.0006 22.0861 36.9755 22.1696 36.9728C22.2531 36.9701 22.3357 36.9899 22.4088 37.0303C22.4788 37.0686 22.5376 37.1244 22.5795 37.1921C22.6215 37.2599 22.6452 37.3372 22.6483 37.4168C22.6513 37.4963 22.6337 37.5753 22.5972 37.6461C22.5606 37.7168 22.5063 37.777 22.4395 37.8206C21.5324 38.4054 20.4751 38.7164 19.3948 38.7161C16.2087 38.7161 13.6177 36.0531 13.6177 32.7804C13.6177 29.5077 16.2046 26.8436 19.3948 26.8436C20.1834 26.8455 20.9629 27.011 21.6838 27.3296C22.4048 27.6481 23.0514 28.1127 23.5825 28.6939C23.6325 28.7482 23.6689 28.8137 23.6885 28.8848C23.7081 28.956 23.7104 29.0308 23.6951 29.103C23.6799 29.1752 23.6476 29.2427 23.6009 29.3C23.5543 29.3572 23.4946 29.4025 23.4268 29.4322C23.3375 29.4702 23.2385 29.4796 23.1436 29.4589C23.0487 29.4382 22.9626 29.3885 22.8973 29.3168C22.453 28.8308 21.9122 28.4422 21.3092 28.1757C20.7063 27.9093 20.0543 27.7707 19.3948 27.7688C16.7167 27.7688 14.5415 30.0173 14.5415 32.7804Z" fill="#8C9CB6"/>
<path d="M19.3196 36.983C17.1807 36.983 15.4468 35.1407 15.4468 32.868C15.4468 30.5954 17.1807 28.7531 19.3196 28.7531C21.4585 28.7531 23.1924 30.5954 23.1924 32.868C23.1924 35.1407 21.4585 36.983 19.3196 36.983Z" fill="#8C9CB6"/>
<path d="M21.4082 44.6089C22.1307 42.9725 20.8877 40.8433 18.6318 39.8531C16.3759 38.8629 13.9614 39.3868 13.2389 41.0232C12.5164 42.6596 13.7594 44.7889 16.0153 45.7791C18.2712 46.7692 20.6857 46.2454 21.4082 44.6089Z" fill="#BECBDF"/>
<path d="M48.1548 45.7949C50.4244 44.7987 51.672 42.6497 50.9414 40.9949C50.2108 39.3401 47.7786 38.8062 45.509 39.8024C43.2393 40.7986 41.9917 42.9477 42.7223 44.6024C43.4529 46.2572 45.8851 46.7911 48.1548 45.7949Z" fill="#BECBDF"/>
<path d="M19.3124 42.1172C13.3929 42.1172 8.57764 37.9013 8.57764 32.7184C8.57764 27.5354 13.3929 23.3196 19.3124 23.3196C25.2318 23.3196 30.048 27.5354 30.048 32.7184C30.048 37.9013 25.2318 42.1172 19.3124 42.1172ZM19.3124 24.6286C14.1178 24.6286 9.89048 28.2582 9.89048 32.7184C9.89048 37.1785 14.1178 40.8082 19.3124 40.8082C24.5069 40.8082 28.7342 37.1795 28.7342 32.7184C28.7342 28.2573 24.5106 24.6286 19.3124 24.6286Z" fill="#A4B3CD"/>
<path d="M44.9686 42.1163C39.0492 42.1163 34.2339 37.8995 34.2339 32.7175C34.2339 27.5355 39.0464 23.3206 44.9686 23.3206C50.8908 23.3206 55.7042 27.5373 55.7042 32.7203C55.7042 37.9032 50.888 42.1163 44.9686 42.1163ZM44.9686 24.6277C39.7741 24.6277 35.5467 28.2564 35.5467 32.7175C35.5467 37.1786 39.7741 40.8073 44.9686 40.8073C50.1631 40.8073 54.3905 37.1777 54.3905 32.7175C54.3905 28.2573 50.164 24.6277 44.9686 24.6277Z" fill="#A4B3CD"/>
<path d="M29.6121 32.8465L28.7856 31.8293C28.8145 31.8042 28.8937 31.7169 28.958 31.6435C29.6764 30.8529 31.8604 28.4477 35.5036 31.5013L34.6585 32.5037C31.9843 30.2611 30.6519 31.7317 29.9317 32.5223C29.8334 32.6382 29.7266 32.7466 29.6121 32.8465Z" fill="#A4B3CD"/>
<path d="M31.9829 48.9129C32.5282 48.3596 32.5564 44.5701 31.9516 41.8238C31.8177 41.8052 24.4117 44.5176 25.0931 45.9705C26.0244 47.9561 31.91 48.9868 31.9829 48.9129Z" fill="#C6D2E4"/>
<path d="M31.9801 48.914L31.9375 41.8212C32.4978 41.8731 39.1306 44.4377 39.0918 45.7888C38.9385 46.9637 33.952 48.7256 31.9801 48.914Z" fill="#B5C3D9"/>
<path fill-rule="evenodd" clip-rule="evenodd" d="M25.0068 45.6733C25.0068 45.3093 25.3019 45.0142 25.666 45.0142H38.4592C38.8232 45.0142 39.1183 45.3093 39.1183 45.6733C39.1183 46.0373 38.8232 46.3324 38.4592 46.3324H25.666C25.3019 46.3324 25.0068 46.0373 25.0068 45.6733Z" fill="#8C9CB6"/>
</g>
<defs>
<clipPath id="clip0_12319_88998">
<rect width="57.6" height="57.6" fill="white" transform="translate(3.33984 3.34058)"/>
</clipPath>
</defs>
</svg>
