<svg width="360" height="74" viewBox="0 0 360 74" fill="none" xmlns="http://www.w3.org/2000/svg">
<g clip-path="url(#clip0_13291_116694)">
<path d="M46.1338 16.2462C46.521 15.9777 47.1293 15.7501 47.4844 16.109C47.6641 16.3156 47.7397 16.5829 47.7361 16.8823L48.0401 23.1457C48.0323 23.391 48.1078 23.6583 48.2083 23.8969C48.4258 24.2371 48.7474 24.5165 49.1396 24.6556C51.2431 25.7776 53.2462 26.661 55.1543 28.067C56.2232 28.8445 55.1157 29.6466 54.8825 29.7969C53.0291 30.808 51.1714 31.765 49.2553 32.6711C49.0178 32.7673 48.8096 32.8888 48.6348 33.0899C48.3852 33.3772 48.403 33.9472 48.2953 34.3073C47.4544 37.1056 47.5028 38.408 46.4145 40.4872C46.2526 40.8507 45.1829 41.7865 44.2802 40.6997C43.344 39.5333 40.9419 34.9758 40.3857 34.1397C40.1098 33.7487 39.4801 33.7057 39.105 33.7831C36.7375 34.1458 36.2134 34.749 33.2961 35.3903C32.5209 35.5738 31.5454 35.6336 31.0855 34.9819C30.7426 34.4318 31.0122 33.7082 31.2946 33.147C32.0049 31.7981 32.8322 30.5507 33.8306 29.4017C34.3505 28.7443 35.2905 27.5445 35.339 26.7801C35.3754 26.2067 34.3764 24.9354 33.8446 23.717C33.5722 23.0267 32.8735 21.7641 32.5719 21.0484C32.2703 20.3326 31.9973 19.2887 32.6555 19.0036C33.8678 18.4941 38.5776 19.8642 40.5008 20.4262C41.3351 20.647 44.3474 17.4164 46.1338 16.2462Z" fill="#4A83F9"/>
<path d="M308.85 27.8961C309.162 27.6797 309.652 27.4963 309.938 27.7855C310.083 27.9519 310.144 28.1673 310.141 28.4085L310.386 33.4547C310.379 33.6523 310.44 33.8677 310.521 34.0599C310.696 34.334 310.956 34.5591 311.272 34.6712C312.966 35.5752 314.58 36.2869 316.117 37.4196C316.978 38.046 316.086 38.6923 315.898 38.8134C314.405 39.628 312.908 40.399 311.365 41.129C311.173 41.2065 311.006 41.3044 310.865 41.4664C310.664 41.6978 310.678 42.1571 310.591 42.4472C309.914 44.7017 309.953 45.751 309.076 47.4261C308.946 47.719 308.084 48.4729 307.356 47.5973C306.602 46.6576 304.667 42.9858 304.219 42.3121C303.997 41.9971 303.489 41.9625 303.187 42.0248C301.28 42.3171 300.857 42.8031 298.507 43.3197C297.882 43.4676 297.097 43.5157 296.726 42.9907C296.45 42.5475 296.667 41.9645 296.894 41.5124C297.467 40.4256 298.133 39.4207 298.938 38.495C299.356 37.9653 300.114 36.9987 300.153 36.3828C300.182 35.9209 299.377 34.8966 298.949 33.915C298.729 33.3588 298.166 32.3416 297.924 31.765C297.681 31.1883 297.461 30.3473 297.991 30.1176C298.968 29.7071 302.762 30.811 304.312 31.2637C304.984 31.4416 307.411 28.8388 308.85 27.8961Z" fill="#4A83F9"/>
<path d="M327.979 11.4878C328.071 11.2759 328.264 11.0237 328.504 11.0805C328.633 11.1196 328.733 11.2109 328.809 11.3361L330.561 13.8565C330.621 13.9603 330.722 14.0517 330.825 14.1246C331.004 14.2094 331.21 14.2419 331.409 14.1979C332.573 14.1178 333.633 13.9648 334.79 14.0532C335.435 14.0986 335.183 14.7188 335.126 14.8416C334.619 15.7421 334.096 16.6211 333.536 17.4943C333.462 17.5958 333.408 17.7003 333.387 17.829C333.358 18.013 333.513 18.2449 333.562 18.4223C333.939 19.8018 334.297 20.3297 334.385 21.4749C334.412 21.6678 334.211 22.3336 333.554 22.1168C332.863 21.8756 330.684 20.6075 330.236 20.4048C330.02 20.3141 329.748 20.4596 329.612 20.589C328.724 21.3537 328.663 21.7401 327.618 22.763C327.344 23.0403 326.955 23.3182 326.595 23.167C326.31 23.0277 326.234 22.6575 326.206 22.3513C326.151 21.6072 326.17 20.875 326.287 20.1391C326.332 19.7314 326.411 18.9897 326.232 18.6598C326.099 18.4125 325.354 18.144 324.818 17.7764C324.526 17.5605 323.908 17.2179 323.597 16.9991C323.286 16.7803 322.902 16.4179 323.101 16.1288C323.472 15.6029 325.782 14.9496 326.726 14.6839C327.13 14.5591 327.542 12.4369 327.979 11.4878Z" fill="#4A83F9"/>
<path d="M102.029 71.2152C102.029 72.068 102.078 73.0127 102.159 74H139.86C139.985 73.126 140.04 72.2432 140.024 71.3603C140.016 70.3768 139.905 69.3971 139.692 68.4375C139.24 66.4666 138.992 64.8353 138.586 63.2678C138.266 61.9354 137.79 60.6465 137.168 59.4285C136.902 58.9048 136.594 58.367 136.233 57.7937C135.242 56.2898 133.899 55.0562 132.323 54.2022C129.806 52.819 126.958 52.1709 124.097 52.3303C114.729 52.8859 111.866 53.8129 109.997 55.0337C109.489 55.3663 109.051 55.7237 108.596 56.0953C108.383 56.2651 108.162 56.4491 107.924 56.6119C107.126 57.2649 106.443 58.0497 105.904 58.9331C104.726 60.8164 103.777 62.836 103.076 64.9485C102.692 66.0532 102.399 67.1882 102.201 68.3419C102.155 68.6144 102.124 68.8727 102.106 69.1133C102.04 69.7078 102.019 70.4226 102.029 71.2152Z" fill="#FF8961"/>
<path d="M135.632 63.1188C135.807 63.1542 138.59 63.2639 138.59 63.2639C138.59 63.2639 140.102 58.4162 134.039 48.7561C127.976 39.0961 124.997 39.6445 124.84 40.7131C124.682 41.7818 124.57 51.2543 124.108 52.3229C123.646 53.3915 135.632 63.1188 135.632 63.1188Z" fill="#FF8961"/>
<path d="M112.392 66.6679C112.616 66.1654 110.074 55.0758 110.074 55.0758C110.074 55.0758 98.5713 48.059 95.9879 47.9387C93.4044 47.8184 95.5888 68.2744 102.072 71.2361C108.555 74.1978 112.392 66.6679 112.392 66.6679Z" fill="#FF8961"/>
<path d="M127.343 60.9671C127.343 60.9671 128.631 64.7427 132.244 64.2013C135.611 63.7024 135.314 59.7004 135.314 59.7004L127.493 60.7973L127.343 60.9671Z" fill="white"/>
<path d="M135.026 59.4886C134.403 59.5346 133.784 59.5877 133.16 59.6514C132.537 59.7151 131.921 59.7752 131.302 59.8531L129.446 60.0831C128.822 60.1355 128.206 60.2699 127.616 60.4829C127.509 60.5255 127.424 60.609 127.378 60.715C127.332 60.8211 127.329 60.9411 127.371 61.0491C127.4 61.1261 127.45 61.1931 127.516 61.242C127.582 61.2909 127.66 61.3197 127.742 61.3251C128.364 61.3482 128.986 61.2899 129.593 61.1517L131.431 60.7979C132.044 60.6846 132.656 60.5502 133.265 60.444C133.875 60.3379 134.487 60.1822 135.096 60.0371C135.133 60.0285 135.168 60.0124 135.199 59.9896C135.229 59.9669 135.255 59.938 135.274 59.9048C135.293 59.8716 135.305 59.8348 135.309 59.7967C135.314 59.7586 135.31 59.7199 135.299 59.6832C135.281 59.6254 135.244 59.5753 135.195 59.5403C135.145 59.5052 135.086 59.4871 135.026 59.4886Z" fill="#2C2C31"/>
<path d="M109.78 63.2286C109.78 63.2286 111.152 67.4465 114.887 66.622C118.622 65.7975 118.297 61.9441 118.297 61.9441L118.185 61.7814L117.646 62.0715L109.79 63.2074L109.78 63.2286Z" fill="white"/>
<path d="M117.849 61.6047C117.177 61.6613 116.512 61.7533 115.85 61.8665C115.189 61.9798 114.531 62.1036 113.869 62.2204C113.207 62.3371 112.549 62.4681 111.891 62.6025C111.233 62.737 110.575 62.875 109.917 63.013C109.871 63.0232 109.831 63.0511 109.805 63.0909C109.78 63.1306 109.771 63.1789 109.78 63.2253C109.789 63.2677 109.812 63.3056 109.846 63.3317C109.881 63.3578 109.923 63.3703 109.966 63.3668C110.638 63.3102 111.306 63.2642 111.975 63.197C112.644 63.1298 113.312 63.0696 113.981 62.9918C114.65 62.9139 115.315 62.8573 115.98 62.7653C116.645 62.6733 117.31 62.5848 117.968 62.4433C118.079 62.4273 118.178 62.3677 118.245 62.2774C118.312 62.1872 118.341 62.0737 118.325 61.962C118.309 61.8504 118.25 61.7496 118.161 61.6819C118.072 61.6142 117.96 61.5852 117.849 61.6011V61.6047Z" fill="#2C2C31"/>
<path d="M129.53 60.7301C129.516 60.9226 129.524 61.116 129.551 61.3069C129.747 62.7789 130.917 63.8263 132.163 63.6423C133.409 63.4583 134.263 62.1208 134.06 60.6488C134.036 60.4705 133.998 60.2943 133.948 60.1215C133.948 60.1215 130.644 60.5815 129.53 60.7301Z" fill="#2C2C31"/>
<path d="M112.371 62.6133C112.354 62.8016 112.354 62.9911 112.371 63.1794C112.525 64.7151 113.771 65.8439 115.144 65.7023C116.516 65.5608 117.52 64.2056 117.37 62.6734C117.343 62.3945 117.278 62.1206 117.177 61.8596C116.376 61.9976 113.491 62.4929 112.371 62.6133Z" fill="#2C2C31"/>
<path d="M122.077 60.1929C122.571 60.2743 123.425 58.597 122.942 56.3926C122.459 54.1881 120.842 53.675 120.078 54.1952C119.315 54.7153 118.902 55.6884 119.9 57.4789C120.898 59.2693 121.584 60.1115 122.077 60.1929Z" fill="#ED6639"/>
<path d="M124.671 59.4246C124.321 57.9668 124.142 55.7694 125.742 54.5274C128.133 52.6697 129.127 55.5358 128.367 56.4806C127.608 57.4254 124.919 60.4118 124.671 59.4246Z" fill="#ED6639"/>
<path d="M119.364 60.1461C119.924 60.0399 118.976 57.885 117.884 57.0995C116.231 55.907 113.756 55.7867 113.62 56.9509C113.515 57.8284 113.62 58.7802 115.181 59.4702C116.291 59.9479 117.88 60.4433 119.364 60.1461Z" fill="#ED6639"/>
<path d="M108.59 56.0876C109.333 57.7365 105.072 57.8922 103.77 62.103C102.468 66.3138 102.874 69.4701 101.516 68.0017C100.158 66.5332 96.0899 52.4571 97.0665 51.017C98.0432 49.5768 107.89 54.5519 108.59 56.0876Z" fill="#FFC8B6"/>
<path d="M127.93 51.997C125.525 51.6432 125.063 42.3759 126.233 42.0468C127.402 41.7178 137.018 52.5207 137.2 59.1978C137.249 61.0945 133.57 52.8463 127.93 51.997Z" fill="#FFC8B6"/>
<path d="M114.897 71.2072C115.186 69.7909 113.95 68.336 112.136 67.9576C110.322 67.5793 108.618 68.4207 108.328 69.837C108.039 71.2533 109.275 72.7082 111.089 73.0865C112.903 73.4649 114.608 72.6235 114.897 71.2072Z" fill="#FFA98C"/>
<path d="M136.885 69.6747C138.472 68.7096 139.16 66.9227 138.423 65.6835C137.685 64.4443 135.801 64.2221 134.214 65.1872C132.627 66.1523 131.938 67.9392 132.676 69.1784C133.413 70.4176 135.298 70.6398 136.885 69.6747Z" fill="#FFA98C"/>
<path d="M129.332 70.0403C129.294 69.9975 129.244 69.969 129.188 69.96C129.132 69.951 129.075 69.9618 129.027 69.9908C128.124 70.5428 126.346 70.196 125.684 69.6015C125.675 68.9163 125.586 68.2345 125.418 67.5705C127.238 66.5726 128.316 65.6491 127.469 64.2018C126.57 62.6661 125.11 65.6703 124.963 66.9866C124.963 66.9866 123.493 64.6052 121.896 65.1466C120.3 65.688 121.501 67.0998 122.152 67.3157C122.964 67.5881 124.147 67.8712 124.781 67.8217C124.908 68.4032 124.981 68.9956 124.998 69.5909C124.571 69.9448 123.923 70.5003 123.17 70.4189C122.689 70.3764 122.237 70.1649 121.893 69.8209C121.87 69.797 121.843 69.7779 121.813 69.7648C121.783 69.7518 121.75 69.745 121.718 69.745C121.685 69.745 121.653 69.7518 121.623 69.7648C121.592 69.7779 121.565 69.797 121.543 69.8209C121.519 69.8437 121.5 69.8712 121.487 69.9016C121.474 69.932 121.468 69.9648 121.468 69.9979C121.468 70.031 121.474 70.0637 121.487 70.0941C121.5 70.1245 121.519 70.152 121.543 70.1748C121.995 70.7069 122.612 71.0687 123.293 71.2009C123.615 71.247 123.943 71.2225 124.255 71.1291C124.566 71.0357 124.854 70.8755 125.099 70.6596C125.154 70.6166 125.218 70.5893 125.287 70.5805C125.355 70.5718 125.425 70.582 125.488 70.61C125.771 70.7428 126.064 70.8552 126.363 70.9462C127.522 71.2788 128.397 70.978 129.286 70.3942C129.312 70.374 129.334 70.3489 129.35 70.3202C129.367 70.2915 129.377 70.2597 129.382 70.2268C129.386 70.1939 129.384 70.1605 129.375 70.1285C129.366 70.0965 129.352 70.0665 129.332 70.0403Z" fill="#C03B17"/>
<path d="M87.7381 73.9963C87.7381 73.9963 87.178 70.4579 90.157 69.828C90.157 69.828 91.5818 67.7651 93.5946 67.7934C95.6074 67.8217 95.9365 68.9788 95.9365 68.9788C95.9365 68.9788 97.0812 67.8712 98.0368 69.4918C98.9925 71.1125 97.5503 73.9963 97.5503 73.9963H87.7381Z" fill="#FF8961"/>
<path d="M91.2313 72.694C91.0843 73.4265 90.2862 73.5433 89.432 73.4229C88.5779 73.3026 88.2803 72.3296 88.8649 71.268C89.4495 70.2065 90.9373 70.072 91.2313 70.7337C91.5254 71.3954 91.2978 72.3472 91.2313 72.694Z" fill="#ED6639"/>
<path d="M93.2582 73.0406C92.3201 73.2069 91.8335 72.8849 91.8335 72.071C91.8335 71.2572 92.2256 69.8984 93.1357 69.5941C94.0459 69.2898 94.2524 70.967 94.1859 71.6429C94.1194 72.3187 94.0459 72.9026 93.2582 73.0406Z" fill="#ED6639"/>
<path d="M95.093 71.3245C94.7954 72.0004 94.5959 72.7824 95.282 73.0053C95.9681 73.2282 97.0848 73.1362 97.2913 72.1667C97.5294 71.0521 97.5714 70.2347 96.5912 70.0436C95.9191 69.9339 95.471 70.4788 95.093 71.3245Z" fill="#ED6639"/>
<path d="M143.323 73.9965C143.323 73.9965 142.865 70.4581 145.742 69.853C145.742 69.853 147.195 68.2041 149.131 67.8714C151.066 67.5388 151.42 69.1311 151.42 69.1311C151.42 69.1311 152.516 67.9493 153.611 69.3151C154.707 70.681 153.153 74.0001 153.153 74.0001L143.323 73.9965Z" fill="#FF8961"/>
<path d="M145.116 73.4942C145.697 73.9365 146.68 73.7454 147.216 73.3172C147.566 73.0271 147.436 69.6726 146.064 70.5785C144.296 71.7426 144.941 73.3597 145.116 73.4942Z" fill="#ED6639"/>
<path d="M148.05 70.0544C147.5 70.5533 147.419 71.2398 147.647 72.1987C147.843 73.0232 148.256 73.2036 149.012 73.1612C149.877 73.1152 150.728 71.7741 150.745 70.5604C150.763 69.3467 149.338 68.8937 148.05 70.0544Z" fill="#ED6639"/>
<path d="M152.121 70.2454C151.039 70.4896 150.608 71.1442 150.745 72.0854C150.881 73.0267 151.036 73.5999 151.704 73.745C152.544 73.929 153.493 72.7294 153.493 71.5476C153.493 70.3657 153.048 70.0366 152.121 70.2454Z" fill="#ED6639"/>
<path d="M74.3407 73.2707L74.5332 73.7307C74.5332 73.7307 74.5332 73.759 74.5542 73.7696C74.5822 73.8439 74.6172 73.9217 74.6487 73.9996H85.2765C83.6345 70.6337 82.558 67.0152 82.091 63.2921C82.091 63.2072 82.0735 63.1152 82.0665 63.0303C82.042 62.864 82.028 62.6764 82.014 62.5208C81.944 61.7494 81.9055 60.9674 81.9055 60.1889C81.9055 59.835 81.9055 59.506 81.93 59.1663C81.93 58.9717 81.9475 58.7806 81.9615 58.5895C81.9755 58.3984 81.9895 58.2038 82.007 58.0127C82.1882 55.945 82.678 53.9169 83.4597 51.9973C85.5811 46.8559 90.3033 43.0803 93.8809 39.1986L94.3255 38.7103C94.6266 38.3753 94.9171 38.0357 95.1972 37.6912C95.3232 37.5379 95.4457 37.3857 95.5647 37.2348C95.6907 37.0685 95.8133 36.9092 95.9148 36.7429C95.9309 36.727 95.945 36.7092 95.9568 36.6898C96.0653 36.5377 96.1773 36.3855 96.2823 36.2334C96.3874 36.0812 96.5099 35.8795 96.6324 35.7238C96.7549 35.5681 96.8459 35.37 96.9475 35.2108C97.0945 34.9595 97.231 34.7083 97.357 34.4535C97.42 34.3261 97.4795 34.1988 97.5391 34.0678L97.6861 33.714C97.7491 33.5689 97.8051 33.4168 97.8576 33.2681C98.8413 30.5718 98.6802 27.5641 96.4574 23.877C89.0046 11.4569 75.2438 22.9075 83.3477 26.3221L83.4387 26.361C83.7643 26.4955 84.0723 26.637 84.3524 26.7786C84.4294 26.8175 84.5134 26.8599 84.5869 26.9024C85.0167 27.1345 85.4225 27.4095 85.7981 27.7233L85.9871 27.8826L86.1797 28.0666C86.2322 28.1161 86.2812 28.1692 86.3267 28.2152C86.3722 28.2612 86.4597 28.3673 86.5192 28.4416C86.5458 28.4705 86.5704 28.5013 86.5927 28.5336C86.5946 28.5394 86.5946 28.5456 86.5927 28.5513C86.6382 28.6077 86.6802 28.6668 86.7188 28.7283C86.7769 28.8058 86.8295 28.8874 86.8763 28.9724C86.8973 29.0007 86.9148 29.0361 86.9358 29.0644L86.9568 29.1104C87.0018 29.1896 87.0427 29.2711 87.0793 29.3546C87.0806 29.3652 87.0806 29.3758 87.0793 29.3864C87.1143 29.4572 87.1458 29.5315 87.1738 29.6058C87.2018 29.6801 87.2438 29.8004 87.2718 29.903C87.2998 30.0057 87.3103 30.0375 87.3244 30.1047C87.3384 30.172 87.3454 30.1932 87.3524 30.2392C87.3548 30.2521 87.3548 30.2653 87.3524 30.2781C87.3524 30.356 87.3804 30.4303 87.3909 30.5117C87.8039 33.6291 84.8354 37.5072 81.8739 41.0669C81.1738 41.9303 80.4457 42.769 79.7736 43.5828C78.4121 45.2476 77.2205 47.0472 76.217 48.9542C72.0758 56.7176 71.3022 65.7832 74.3407 73.2707Z" fill="#FF8961"/>
<path d="M83.3474 26.3221L83.4384 26.361C86.0429 27.4402 87.1981 28.8556 87.4326 30.5116C88.3462 29.1458 87.7651 27.6808 87.7406 26.2301C87.6986 24.1813 90.009 22.5642 92.0394 21.9839C92.4174 21.8742 91.6648 21.4779 91.2867 21.3965C88.3497 20.7666 83.96 20.8091 83.3474 26.3221Z" fill="#ED6639"/>
<path d="M89.9989 34.6729C91.2521 34.6269 93.0899 34.7684 93.538 35.7946C94.1016 37.0932 93.7585 38.2715 93.888 39.2057C95.6383 37.3161 97.1016 35.4018 97.8682 33.2929C95.8099 30.6249 92.3548 32.0686 90.1389 33.4557C89.5998 33.7741 89.3583 34.6941 89.9989 34.6729Z" fill="#ED6639"/>
<path d="M76.2131 48.9616C77.3228 48.7635 79.7487 46.3361 81.1875 45.3205C82.3287 44.5102 82.9973 46.2511 83.3473 47.4825C83.4628 47.9107 84.0089 47.3268 84.0789 46.8845C84.7791 42.4791 83.2773 41.3008 81.9261 41.0673C79.7231 43.464 77.8057 46.1135 76.2131 48.9616Z" fill="#ED6639"/>
<path d="M74.3201 61.0094C75.2372 63.0759 78.7868 64.1693 81.0867 63.4864C81.4141 63.3845 81.7506 63.3158 82.0914 63.2811C81.8796 61.5292 81.8514 59.7596 82.0074 58.0017C80.5021 58.6528 79.0284 60.3477 77.9292 60.8926C77.519 61.0943 77.0589 61.1683 76.6071 61.1053C76.1552 61.0423 75.7321 60.8451 75.3913 60.5388C74.9467 60.2168 74.0925 60.4857 74.3201 61.0094Z" fill="#ED6639"/>
<path d="M74.3408 73.2706L74.5334 73.7306C74.5334 73.7306 74.5334 73.7589 74.5544 73.7695C74.5859 73.8474 74.6209 73.9252 74.6524 73.9995H80.4948C81.0667 73.9219 81.6439 73.8923 82.2206 73.9111C82.7247 73.9111 83.3933 73.2494 82.9523 73.0088C80.5018 71.6712 76.1261 69.9232 74.3408 73.2706Z" fill="#ED6639"/>
<g clip-path="url(#clip1_13291_116694)">
<path d="M192.029 87.7198C182.971 95.3435 167.683 93.3941 157.965 82.0803C157.618 81.6626 157.271 81.2623 156.942 80.8271C154.477 77.6767 152.517 74.0737 151.007 70.3488C147.085 60.6538 146.391 50.1581 148.595 44.8494C151.77 37.2256 160.638 36.1813 164.282 34.9107C167.909 33.6226 166.919 34.9977 172.056 47.9998C173.288 51.1155 175.249 54.9621 177.678 58.6173C179.101 60.7757 180.698 62.8121 182.45 64.7094C184.463 66.8329 186.615 68.6083 188.836 69.7048C200.202 75.2399 202.337 79.0517 192.029 87.7198Z" fill="url(#paint0_linear_13291_116694)"/>
<path d="M166.659 43.2829C166.815 43.3003 171.084 45.4934 171.084 45.4934C171.084 45.4934 168.308 37.9567 168.568 31.3251C168.759 26.3296 169.887 22.0652 163.64 20.4117C160.863 21.1427 163.206 30.2634 161.002 31.4992C161.002 31.4992 156.959 30.9074 155.293 34.8933C154.235 37.3997 148.942 37.3301 147.137 43.0914C145.211 49.2357 148.439 62.0115 148.439 62.0115L156.681 61.089L166.659 43.2829Z" fill="#4A83F9"/>
<path d="M192.792 67.4595C194.111 79.9046 195.083 96.3182 203.013 102.149C212.696 109.286 234.96 103.89 237.65 101.244C240.339 98.5984 229.372 79.922 229.98 71.4454C230.604 62.9688 192.792 67.4595 192.792 67.4595Z" fill="url(#paint1_linear_13291_116694)"/>
<path d="M232.374 73.6385C231.403 74.0389 227.967 75.4139 227.967 75.4139C227.967 75.4139 228.418 94.3514 237.667 101.244C237.667 101.244 246.257 94.0033 248.842 84.7086C251.428 75.4139 237.441 73.4123 236.348 71.6543C235.255 69.8963 232.374 73.6385 232.374 73.6385Z" fill="url(#paint2_linear_13291_116694)"/>
<path d="M235.949 11.4128C235.099 12.0917 234.335 12.5964 234.335 12.5964L223.629 21.6648C223.629 21.6648 230.674 20.0113 233.312 23.5795C235.949 27.1477 231.559 31.8124 227.741 31.2728C225.763 30.9943 222.379 29.5845 219.568 28.2616C222.553 32.6653 217.503 28.6097 217.503 28.6097C213.321 26.6603 208.844 25.0416 205.547 22.1348C203.343 20.2376 201.781 17.6963 201.087 14.8766C198.883 6.2085 201.035 4.72901 203.656 8.40163C203.864 8.69753 204.072 8.97602 204.28 9.25451C204.28 9.25451 204.298 9.25451 204.298 9.27192C208.844 15.5728 212.939 20.0983 216.045 23.7535C216.167 23.5273 216.271 23.301 216.393 23.0573C216.393 23.0573 216.41 23.0225 216.445 22.9703C219.03 17.9226 223.299 9.60263 232.6 8.05352C240.895 6.67846 238.153 9.63744 235.949 11.4128Z" fill="url(#paint3_linear_13291_116694)"/>
<path d="M227.342 31.9517C227.342 31.9517 237.702 31.151 238.656 32.2476C239.611 33.3616 244.712 37.7304 246.552 48.3653C247.575 55.7628 240.27 69.7222 234.058 73.8648C229.025 77.2241 208.237 75.5532 208.237 75.5532L227.342 31.9517Z" fill="url(#paint4_linear_13291_116694)"/>
<path d="M240.895 44.6057C238.535 54.614 236.886 60.3231 235.081 66.1715C233.919 69.9485 231.958 74.7525 226.544 75.2051C216.115 76.0928 207.404 76.1972 196.367 73.9867C192.567 73.2208 189.964 69.5308 189.686 65.6493C189.495 62.9166 189.374 60.3928 189.305 57.9908C189.218 55.3103 189.235 52.769 189.339 50.28C189.461 47.2862 189.704 44.3446 190.085 41.2638C190.085 41.2464 190.085 41.2116 190.103 41.1594C190.12 41.1072 190.12 41.0723 190.12 41.0201C190.12 40.9679 190.138 40.8983 190.155 40.8287C190.172 40.759 190.172 40.672 190.19 40.6024L190.294 39.8714C191.439 31.6036 196.124 27.4088 203.794 26.4341C206.779 26.0338 209.781 25.7901 212.783 25.703C218.544 25.5638 223.663 26.1556 228.817 27.6351C241.311 31.2033 242.96 35.8854 240.895 44.6057Z" fill="url(#paint5_linear_13291_116694)"/>
<path d="M274.785 65.9277C273.535 70.2966 271.644 74.6828 269.11 78.5817C268.382 79.6957 267.601 80.7574 266.768 81.7844C257.31 93.307 243.636 95.2913 234.596 87.6501C225.555 80.009 226.683 74.6654 237.927 68.8171C239.906 67.7901 241.641 66.328 243.168 64.5701C244.747 62.7773 246.118 60.706 247.315 58.5303C249.259 55.0143 250.734 51.2372 251.931 47.9998C256.773 34.8932 255.749 33.5356 259.41 34.7366C263.072 35.9376 271.956 36.773 275.305 44.3271C277.318 48.8875 277.232 57.3815 274.785 65.9277Z" fill="url(#paint6_linear_13291_116694)"/>
<path d="M257.016 44.0835C256.859 44.1009 252.643 46.3985 252.643 46.3985C252.643 46.3985 255.246 38.8096 254.829 32.1606C254.517 27.1651 253.302 22.9355 259.514 21.1427C262.308 21.8041 260.174 30.9944 262.395 32.1606C262.395 32.1606 266.421 31.4817 268.191 35.4328C269.301 37.9219 274.594 37.7304 276.537 43.4395C278.602 49.5315 275.652 62.3944 275.652 62.3944L267.375 61.6634L257.016 44.0835Z" fill="#4A83F9"/>
<path d="M274.785 65.9277C273.535 70.2966 271.644 74.6828 269.11 78.5817C261.059 84.987 251.254 90.3132 249.918 79.7653C249.918 79.7653 236.695 85.2481 243.185 64.5875C244.764 62.7947 246.135 60.7234 247.333 58.5477C246.205 66.0147 246.049 73.7081 253.215 70.2269C253.181 70.2269 259.289 81.8888 274.785 65.9277Z" fill="#A0CBFD"/>
<path d="M175.11 79.1039C175.11 79.1039 176.134 95.4828 156.942 80.8445C154.477 77.6767 152.517 74.0737 151.007 70.3488C159.145 75.9013 168.967 78.6166 172.368 69.7222C172.368 69.7222 181.513 74.4392 177.678 58.5825C179.101 60.7408 180.698 62.7773 182.45 64.6745C183.457 71.4802 184.515 85.2656 175.11 79.1039Z" fill="#A0CBFD"/>
<path d="M261.51 32.5435C260.746 33.5357 260.121 34.6148 259.618 35.7462C259.132 36.8776 258.733 38.0786 258.733 39.21C258.733 39.7147 258.872 40.2021 259.132 40.6372C259.184 40.7243 259.254 40.8113 259.341 40.8983L259.618 41.1594C259.705 41.2464 259.809 41.2986 259.913 41.3683C260.017 41.4379 260.121 41.4727 260.226 41.5249C260.677 41.6816 261.18 41.699 261.649 41.5597C262.169 41.4031 262.672 41.1594 263.106 40.8461L263.141 40.8113C263.245 40.7243 263.384 40.6894 263.523 40.7069C263.661 40.7243 263.783 40.7939 263.87 40.8983C263.956 41.0027 264.009 41.142 263.991 41.2812C263.991 41.4205 263.922 41.5423 263.818 41.6468C263.557 41.8904 263.28 42.1167 262.985 42.3082C262.69 42.4996 262.36 42.6563 262.013 42.7781C261.319 43.0218 260.486 43.1088 259.722 42.813C259.531 42.7433 259.358 42.6563 259.184 42.5519C259.028 42.4474 258.855 42.343 258.699 42.2212L258.282 41.8382C258.143 41.6816 258.022 41.5249 257.918 41.3335C257.501 40.6024 257.466 39.8017 257.553 39.1055C257.744 37.6956 258.334 36.5121 258.976 35.3981C259.636 34.2841 260.416 33.2572 261.319 32.3521C261.336 32.3347 261.371 32.3173 261.406 32.3173C261.44 32.3173 261.458 32.3347 261.492 32.3521C261.51 32.3695 261.527 32.4043 261.527 32.4217C261.544 32.4913 261.544 32.5261 261.51 32.5435Z" fill="#1E5AF6"/>
<path d="M267.982 36.4598C267.549 36.6165 267.132 36.982 266.75 37.3301C266.369 37.6956 266.004 38.0959 265.692 38.5137C265.032 39.3318 264.477 40.2543 264.061 41.229C263.644 42.1689 263.401 43.1784 263.332 44.2054C263.297 45.1975 263.488 46.1896 263.904 47.0947L264.234 47.7562C264.373 47.965 264.529 48.1565 264.668 48.3654C264.737 48.4698 264.807 48.5742 264.876 48.6613L265.137 48.9223C265.31 49.0964 265.449 49.3053 265.657 49.4271C266.403 50.0885 267.323 50.5237 268.277 50.837C270.221 51.4462 272.425 51.5332 274.542 51.2895H274.559C274.629 51.2895 274.681 51.3069 274.733 51.3417C274.785 51.3766 274.819 51.4288 274.837 51.4984C274.854 51.568 274.837 51.6202 274.802 51.6899C274.767 51.7421 274.715 51.7943 274.663 51.8117C272.511 52.4905 270.186 52.682 267.913 52.1076C266.785 51.8117 265.657 51.3243 264.737 50.5237C264.477 50.3496 264.304 50.1059 264.078 49.8971L263.766 49.5664C263.679 49.4445 263.592 49.3227 263.505 49.2008C263.332 48.9572 263.158 48.7135 263.002 48.4524L262.603 47.6343C262.134 46.5203 261.961 45.3019 262.082 44.0835C262.221 42.9173 262.568 41.786 263.089 40.7416C263.609 39.7147 264.269 38.7748 265.067 37.9567C265.466 37.539 265.883 37.156 266.334 36.8079C266.82 36.4946 267.254 36.1291 267.896 36.0073C267.948 35.9898 268 36.0073 268.052 36.0421C268.104 36.0769 268.139 36.1117 268.156 36.1639C268.173 36.2161 268.156 36.2683 268.139 36.3206C268.121 36.3728 268.069 36.4076 268.017 36.425L267.982 36.4598Z" fill="#1E5AF6"/>
<path d="M157.462 35.8506C158.434 36.4772 159.284 37.2778 159.996 38.2003C160.724 39.1228 161.314 40.115 161.783 41.1941C162.234 42.3081 162.494 43.4917 162.529 44.6753C162.581 45.8937 162.269 47.1295 161.766 48.2435L161.332 49.0615C161.176 49.3226 160.985 49.5489 160.811 49.81C160.464 50.3148 160.013 50.7325 159.596 51.1502C158.694 51.9509 157.636 52.6471 156.421 52.9778C155.206 53.3086 153.939 53.2737 152.742 52.856C151.614 52.4731 150.59 51.7943 149.775 50.924C149.74 50.8717 149.705 50.8195 149.705 50.7673C149.705 50.7151 149.723 50.6455 149.757 50.6107C149.792 50.5584 149.844 50.541 149.914 50.5236C149.966 50.5062 150.035 50.5236 150.087 50.5584L150.104 50.5759C151.892 51.7768 154.13 52.2816 155.97 51.5854C156.907 51.2721 157.722 50.6455 158.486 49.9666C158.85 49.6011 159.232 49.2356 159.544 48.8353C159.701 48.6264 159.891 48.4523 160.013 48.2261L160.395 47.5646C160.863 46.677 161.228 45.7022 161.245 44.6579C161.297 43.5961 161.141 42.5518 160.829 41.5422C160.481 40.5153 159.996 39.5406 159.388 38.6355C158.781 37.7304 158.087 36.8601 157.236 36.1987L157.219 36.1813C157.184 36.1465 157.15 36.0942 157.15 36.042C157.15 35.9898 157.15 35.9376 157.184 35.8854C157.219 35.8506 157.254 35.8157 157.306 35.7983C157.375 35.7983 157.427 35.8157 157.462 35.8506Z" fill="#1E5AF6"/>
<path d="M193.001 34.3711C194.753 32.1606 197.009 30.4026 199.56 29.2364C200.862 28.6446 202.215 28.2095 203.603 27.9136C204.992 27.6177 206.397 27.461 207.82 27.4262C208.167 27.4262 208.48 27.548 208.74 27.7917C208.983 28.0354 209.122 28.3487 209.139 28.6968C209.156 29.0449 209.017 29.3757 208.792 29.6193C208.566 29.863 208.237 30.0197 207.907 30.0371H207.837C206.553 30.0023 205.269 30.0719 204.002 30.2111C202.736 30.3504 201.469 30.6115 200.254 31.0118C199.022 31.3947 197.825 31.9169 196.714 32.5609C195.569 33.2223 194.493 33.9882 193.521 34.8759C193.452 34.9281 193.383 34.9629 193.296 34.9629C193.209 34.9629 193.122 34.9281 193.07 34.8759C193.001 34.8237 192.966 34.7366 192.966 34.6496C192.931 34.5278 192.966 34.4407 193.001 34.3711Z" fill="#2238A8"/>
<path d="M223.125 28.1572C226.11 28.6446 229.06 29.393 231.854 30.594C233.259 31.1858 234.596 31.9343 235.845 32.822C237.094 33.7097 238.205 34.7888 239.09 36.0246C239.142 36.1117 239.159 36.1987 239.159 36.3031C239.142 36.4076 239.09 36.4946 239.021 36.5468C238.951 36.599 238.847 36.6338 238.743 36.6338C238.639 36.6164 238.552 36.5816 238.483 36.512C237.546 35.4328 236.435 34.5451 235.203 33.8315C233.971 33.1353 232.652 32.5609 231.299 32.1257C228.574 31.2555 225.728 30.8203 222.865 30.6463C222.535 30.6114 222.24 30.4722 222.032 30.2285C221.824 29.9848 221.702 29.6541 221.737 29.3408C221.754 29.0101 221.911 28.7142 222.154 28.4879C222.396 28.2617 222.709 28.1572 223.039 28.1746C223.056 28.1572 223.091 28.1572 223.125 28.1572Z" fill="#2238A8"/>
<path d="M232.322 61.6111C235.515 60.5667 237.459 57.747 236.678 55.2928C235.897 52.8386 232.652 51.6898 229.459 52.7341C226.266 53.7785 224.323 56.5982 225.104 59.0524C225.902 61.5066 229.129 62.638 232.322 61.6111Z" fill="#4A83F9"/>
<path d="M198.589 56.8768C197.79 59.331 194.563 60.4798 191.37 59.4354C190.624 59.1917 189.93 58.8436 189.287 58.4085C189.201 55.728 189.218 53.1867 189.322 50.6977C190.693 50.0885 192.463 49.9841 194.216 50.5585C197.409 51.6028 199.37 54.44 198.589 56.8768Z" fill="#4A83F9"/>
<path d="M212.748 25.6682C208.132 26.0511 203.274 26.7648 199.456 28.0876C192.254 30.5766 190.519 38.2526 190.155 40.585L190.259 39.8539C191.404 31.5862 196.089 27.3914 203.759 26.4167C206.744 25.9989 209.746 25.7552 212.748 25.6682Z" fill="url(#paint7_linear_13291_116694)"/>
<path d="M161.523 31.8821C162.703 32.5261 163.761 33.379 164.646 34.3885C165.514 35.4155 166.33 36.599 166.607 38.0437C166.729 38.7748 166.659 39.5406 166.434 40.2543C166.364 40.4283 166.312 40.6024 166.225 40.7764L165.965 41.2812C165.861 41.4379 165.722 41.5945 165.601 41.7338C165.462 41.873 165.306 41.9948 165.15 42.1167C164.455 42.5692 163.588 42.604 162.894 42.43C162.2 42.2559 161.558 41.96 160.985 41.5423C160.933 41.5075 160.898 41.4727 160.863 41.4204C160.829 41.3682 160.811 41.316 160.794 41.2638C160.777 41.2116 160.777 41.1594 160.794 41.1071C160.811 41.0549 160.829 41.0027 160.846 40.9505C160.881 40.8983 160.915 40.8635 160.968 40.8287C161.02 40.7938 161.072 40.7764 161.124 40.759C161.176 40.7416 161.228 40.7416 161.28 40.759C161.332 40.7764 161.384 40.7938 161.436 40.8112L161.453 40.8287C161.957 41.142 162.512 41.3682 163.085 41.4901C163.64 41.5945 164.178 41.5249 164.56 41.2464C164.941 40.9679 165.236 40.4457 165.34 39.9061C165.445 39.3666 165.427 38.7922 165.288 38.2526C165.15 37.6782 164.959 37.1212 164.733 36.5816C164.455 36.0247 164.143 35.5025 163.796 34.9977C163.067 33.9708 162.217 33.0309 161.245 32.2128C161.193 32.178 161.176 32.1258 161.158 32.0561C161.158 32.0039 161.158 31.9343 161.193 31.8821C161.228 31.8299 161.28 31.7951 161.332 31.7776C161.419 31.8473 161.488 31.8647 161.523 31.8821Z" fill="#1E5AF6"/>
<path d="M230.778 55.7628C230.605 55.7802 230.431 55.7802 230.275 55.7802C222.935 55.9716 216.826 50.7325 216.636 44.0661C216.462 37.5563 222.015 32.0735 229.112 31.6384C229.286 31.6209 229.459 31.6209 229.615 31.6209C236.956 31.4121 243.064 36.6686 243.255 43.335C243.428 49.8448 237.875 55.3102 230.778 55.7628ZM218.423 44.0139C218.579 49.6881 223.872 54.1788 230.223 54.0048C236.574 53.8307 241.624 49.0615 241.467 43.3873C241.311 37.713 236.019 33.2223 229.668 33.3963C223.299 33.5704 218.267 38.3396 218.423 44.0139Z" fill="#FEE643"/>
<path d="M199.039 55.6062C198.623 55.6236 198.207 55.641 197.79 55.6236C191.057 55.3799 185.799 49.8797 186.025 43.3699C186.268 36.8602 191.925 31.7777 198.64 32.0213C205.373 32.265 210.631 37.7653 210.406 44.275C210.197 50.367 205.2 55.2233 199.039 55.6062ZM197.512 33.8141C192.254 34.1449 188.003 38.2526 187.812 43.4395C187.604 48.9572 192.116 53.6219 197.859 53.8308C203.603 54.0397 208.427 49.723 208.636 44.188C208.844 38.6529 204.332 34.0056 198.588 33.7967C198.224 33.7967 197.859 33.7967 197.512 33.8141Z" fill="#FEE643"/>
<path d="M217.052 44.7971C216.896 44.7101 213.321 42.5866 210.041 44.9538L209 43.4917C213.269 40.4283 217.798 43.1436 217.989 43.2654L217.052 44.7971Z" fill="#FEE643"/>
<path d="M221.407 61.6112C221.338 62.7773 221.164 63.9261 220.887 65.0575C220.574 66.2411 220.123 67.3899 219.498 68.4516C217.555 71.9328 214.327 74.7699 212.696 74.3174C211.134 73.8822 209.729 72.7334 208.531 71.0277C208.028 70.2966 207.594 69.5308 207.213 68.7301C206.692 67.6161 206.258 66.45 205.911 65.2664C204.54 60.532 204.089 57.9211 205.946 56.3894L206.05 56.3024C209.121 53.7437 209.954 53.0997 211.447 51.6202C212.262 50.8196 212.748 50.2104 213.946 51.4288C215.282 52.8038 217.451 54.4052 218.908 55.6062C219.325 55.9543 219.672 56.2676 219.932 56.5287C220.956 57.5556 221.511 59.2614 221.407 61.6112Z" fill="#1737AA"/>
<path d="M218.683 55.6584C215.872 56.372 215.178 57.1379 211.69 57.1727C211.603 57.1727 211.499 57.1727 211.412 57.1727C210.527 57.1727 208.306 56.6679 206.224 56.3372C206.206 56.3372 206.189 56.3198 206.172 56.3198C206.154 56.3024 206.154 56.285 206.154 56.2676C206.154 56.2502 206.154 56.2328 206.154 56.2153C206.154 56.1979 206.172 56.1805 206.189 56.1805C209.139 53.7263 209.972 53.0823 211.43 51.6202C211.846 51.2025 212.176 50.837 212.575 50.7499C212.939 50.6803 213.356 50.837 213.928 51.4288C215.23 52.769 217.277 54.2833 218.735 55.4669C218.752 55.4843 218.77 55.5017 218.77 55.5191C218.77 55.5365 218.787 55.5539 218.77 55.5887C218.77 55.6061 218.752 55.6236 218.735 55.641C218.735 55.641 218.718 55.641 218.683 55.6584Z" fill="#FEE643"/>
<path d="M221.408 61.6111C221.338 62.7773 221.165 63.9261 220.887 65.0574C219.742 69.7918 214.848 74.9091 212.714 74.3173C211.152 73.8822 209.746 72.7334 208.549 71.0276C208.723 68.1383 210.215 65.2489 213.529 63.0384C216.479 61.0541 219.29 60.9149 221.408 61.6111Z" fill="#DB6249"/>
<path d="M219.516 68.4342C217.729 71.6021 214.9 74.2651 213.165 74.3348C213.009 74.3522 212.853 74.3348 212.714 74.2999C211.152 73.8648 209.746 72.716 208.549 71.0103C208.046 70.2792 207.612 69.5134 207.23 68.7127C208.584 70.0529 210.319 71.5324 211.898 71.6195C212.089 71.6369 212.263 71.6369 212.436 71.6195C215.195 71.5498 217.815 69.8441 219.516 68.4342Z" fill="#FEE643"/>
<path d="M218.683 55.6584C215.872 56.372 215.178 57.1379 211.69 57.1727C211.655 55.3799 212.176 52.3861 212.575 50.7499C212.939 50.6803 213.356 50.837 213.928 51.4288C215.23 52.769 217.277 54.2833 218.735 55.4669C218.752 55.4843 218.77 55.5017 218.77 55.5191C218.77 55.5365 218.77 55.5539 218.77 55.5713C218.77 55.5887 218.752 55.6061 218.735 55.6235C218.718 55.641 218.7 55.641 218.683 55.6584Z" fill="#F6C516"/>
<path d="M219.516 68.4342C217.729 71.6021 214.9 74.2651 213.165 74.3348L212.436 71.6021C215.195 71.5498 217.815 69.8441 219.516 68.4342Z" fill="#F6C516"/>
<path d="M205.529 22.1348C203.326 20.2376 201.764 17.6963 201.07 14.8766C198.866 6.2085 201.018 4.72901 203.638 8.40163C203.846 8.69753 204.054 8.97602 204.263 9.25451C202.718 7.84465 201.556 7.16582 201.451 8.22757C200.584 14.2848 203.742 19.6458 205.529 22.1348Z" fill="url(#paint8_linear_13291_116694)"/>
<path d="M235.949 11.4129C237.007 10.1248 237.389 9.09789 235.984 8.99345C225.711 8.36685 217.191 21.7345 216.427 22.9529C219.013 17.9052 223.281 9.58525 232.583 8.03614C240.895 6.67848 238.153 9.63747 235.949 11.4129Z" fill="url(#paint9_linear_13291_116694)"/>
<path d="M198.918 49.7752C195.951 49.253 193.973 46.1896 194.545 42.9695C195.118 39.7321 197.999 37.5389 200.966 38.0785C203.083 38.444 204.697 40.115 205.235 42.2037C205.252 42.3255 205.339 42.43 205.408 42.517C205.478 42.604 205.599 42.6562 205.738 42.6911C205.825 42.7085 205.946 42.7085 206.05 42.6562C206.154 42.604 206.241 42.5692 206.311 42.4996C206.38 42.43 206.432 42.3429 206.449 42.2385C206.467 42.1515 206.484 42.0296 206.449 41.9252C205.79 39.3665 203.812 37.3127 201.174 36.8427C197.513 36.1987 193.99 38.8618 193.296 42.7607C192.619 46.6596 195.031 50.367 198.675 51.0284C201.122 51.4636 203.517 50.4018 205.026 48.5046C205.078 48.435 205.113 48.3653 205.131 48.2783C205.148 48.1913 205.165 48.1217 205.148 48.0346C205.148 47.965 205.096 47.8606 205.061 47.8084C205.026 47.7387 204.974 47.6691 204.905 47.6169C204.818 47.5647 204.731 47.5125 204.627 47.495C204.523 47.4776 204.402 47.4776 204.298 47.5299C204.194 47.5647 204.089 47.6343 204.02 47.7387C202.823 49.2704 200.896 50.1059 198.918 49.7752Z" fill="#2238A8"/>
<path d="M205.373 44.8668C205.946 41.6293 203.95 38.6007 200.914 38.0611C197.894 37.5215 194.979 39.7147 194.406 42.9347C193.834 46.1722 195.829 49.2008 198.866 49.7404C201.903 50.28 204.818 48.1043 205.373 44.8668Z" fill="white"/>
<path d="M201.729 47.0425C204.263 46.1896 205.582 43.3698 204.714 40.7068C203.829 38.0611 201.07 36.599 198.536 37.4519C196.003 38.3048 194.684 41.1245 195.552 43.7876C196.437 46.4333 199.196 47.8954 201.729 47.0425Z" fill="#2238A8"/>
<path d="M223.021 46.3984C222.986 46.2766 222.917 46.1722 222.83 46.1025C222.744 46.0155 222.639 45.9633 222.501 45.9459C222.396 45.9285 222.292 45.9285 222.188 45.9633C222.119 45.9807 222.032 46.0155 221.963 46.0677C221.893 46.1199 221.841 46.1896 221.789 46.2592C221.754 46.3462 221.72 46.4158 221.72 46.5029C221.72 46.5725 221.72 46.6769 221.737 46.7466C222.119 47.965 222.83 49.0441 223.785 49.8796C224.739 50.7151 225.884 51.3069 227.134 51.568C231.021 52.3338 234.821 49.6881 235.619 45.7022C236.4 41.6989 233.884 37.8348 229.997 37.0515C228.644 36.7904 227.255 36.9297 226.006 37.4519C224.739 37.9566 223.646 38.8095 222.848 39.9409C222.796 40.0105 222.761 40.0975 222.744 40.1846C222.744 40.2542 222.726 40.3586 222.744 40.4457C222.761 40.5327 222.796 40.6023 222.848 40.6893C222.9 40.759 222.969 40.8112 223.039 40.8634C223.108 40.8982 223.195 40.9504 223.281 40.9504C223.403 40.9678 223.542 40.9504 223.663 40.9156C223.785 40.8808 223.889 40.7938 223.958 40.6893C224.6 39.7842 225.503 39.088 226.526 38.6703C227.55 38.2525 228.678 38.1481 229.754 38.3396C232.912 38.9662 234.96 42.1688 234.318 45.4759C233.658 48.783 230.57 50.9588 227.394 50.3321C226.388 50.1233 225.451 49.6533 224.687 48.9571C223.906 48.2609 223.351 47.3732 223.021 46.3984Z" fill="#2238A8"/>
<path d="M234.595 45.5978C235.255 42.2907 233.173 39.1228 229.962 38.4614C226.752 37.8174 223.611 39.9757 222.969 43.2654C222.31 46.5725 224.392 49.7403 227.602 50.4018C230.813 51.0458 233.936 48.9049 234.595 45.5978Z" fill="white"/>
<path d="M233.155 43.5091C232.93 46.3288 230.361 48.3653 227.706 48.1042C225.051 47.8431 223.403 45.3889 223.576 42.5866C223.75 39.6972 225.971 37.6782 228.626 37.9393C231.264 38.2178 233.433 40.202 233.155 43.5091Z" fill="#2238A8"/>
</g>
</g>
<defs>
<linearGradient id="paint0_linear_13291_116694" x1="152.598" y1="34.1391" x2="208.24" y2="96.8926" gradientUnits="userSpaceOnUse">
<stop offset="0.331017" stop-color="#4A83F9"/>
<stop offset="0.836473" stop-color="#1E5AF6"/>
</linearGradient>
<linearGradient id="paint1_linear_13291_116694" x1="211.719" y1="64.538" x2="228.571" y2="114.192" gradientUnits="userSpaceOnUse">
<stop offset="0.344195" stop-color="#1E5AF6"/>
<stop offset="0.934233" stop-color="#1A48D0"/>
</linearGradient>
<linearGradient id="paint2_linear_13291_116694" x1="226.788" y1="78.7063" x2="247.204" y2="104.341" gradientUnits="userSpaceOnUse">
<stop stop-color="#1E5AF6"/>
<stop offset="0.414987" stop-color="#1A48D0"/>
</linearGradient>
<linearGradient id="paint3_linear_13291_116694" x1="213.038" y1="1.06409" x2="219.229" y2="31.3087" gradientUnits="userSpaceOnUse">
<stop stop-color="#4A83F9"/>
<stop offset="0.783015" stop-color="#1E5AF6"/>
</linearGradient>
<linearGradient id="paint4_linear_13291_116694" x1="243.364" y1="21.2775" x2="225.941" y2="89.4501" gradientUnits="userSpaceOnUse">
<stop offset="0.00698924" stop-color="#1E5AF6"/>
<stop offset="0.773859" stop-color="#1A48D0"/>
</linearGradient>
<linearGradient id="paint5_linear_13291_116694" x1="202.112" y1="13.7212" x2="220.104" y2="80.5695" gradientUnits="userSpaceOnUse">
<stop offset="0.150014" stop-color="#4A83F9"/>
<stop offset="0.70892" stop-color="#1E5AF6"/>
</linearGradient>
<linearGradient id="paint6_linear_13291_116694" x1="279.723" y1="40.3887" x2="215.003" y2="84.5868" gradientUnits="userSpaceOnUse">
<stop offset="0.268759" stop-color="#4A83F9"/>
<stop offset="1" stop-color="#1E5AF6"/>
</linearGradient>
<linearGradient id="paint7_linear_13291_116694" x1="194.805" y1="23.4479" x2="200.5" y2="35.791" gradientUnits="userSpaceOnUse">
<stop offset="0.140217" stop-color="#DBEEFF"/>
<stop offset="1" stop-color="#4A83F9"/>
</linearGradient>
<linearGradient id="paint8_linear_13291_116694" x1="194.929" y1="4.29658" x2="208.035" y2="21.0635" gradientUnits="userSpaceOnUse">
<stop offset="0.147287" stop-color="#DBEEFF"/>
<stop offset="1" stop-color="#4A83F9"/>
</linearGradient>
<linearGradient id="paint9_linear_13291_116694" x1="230.533" y1="4.29661" x2="226.445" y2="25.2968" gradientUnits="userSpaceOnUse">
<stop stop-color="#DBEEFF"/>
<stop offset="1" stop-color="#4A83F9"/>
</linearGradient>
<clipPath id="clip0_13291_116694">
<rect width="360" height="74" fill="white"/>
</clipPath>
<clipPath id="clip1_13291_116694">
<rect width="130.841" height="139.42" fill="white" transform="translate(146.495 6.43481)"/>
</clipPath>
</defs>
</svg>
