<svg width="182" height="47" viewBox="0 0 182 47" fill="none" xmlns="http://www.w3.org/2000/svg">
<line y1="-2" x2="94" y2="-2" transform="matrix(-0.951808 0.306694 -0.484105 -0.87501 89.5 14)" stroke="#ECF6FF" stroke-width="4"/>
<line y1="-2" x2="94" y2="-2" transform="matrix(0.951808 0.306694 0.484105 -0.87501 92.5 14)" stroke="#ECF6FF" stroke-width="4"/>
<path d="M97.3764 14.5559C97.8414 9.98476 94.9925 5.84607 91.0131 5.31184C87.0337 4.77761 83.4307 8.05014 82.9656 12.6212C82.5006 17.1923 85.3495 21.331 89.3289 21.8653C93.3083 22.3995 96.9113 19.127 97.3764 14.5559Z" fill="#DAC230"/>
<path d="M90.8124 19.829C94.7912 19.2885 97.6566 15.3533 97.2125 11.0393C96.7684 6.72531 93.183 3.66627 89.2042 4.20672C85.2254 4.74718 82.36 8.68247 82.8041 12.9964C83.2482 17.3104 86.8337 20.3694 90.8124 19.829Z" fill="#FEE643"/>
<path d="M93.4745 11.4946C95.1655 9.03119 94.7978 5.45953 92.6532 3.5171C90.5087 1.57466 87.3993 1.99702 85.7083 4.46045C84.0173 6.92389 84.385 10.4956 86.5296 12.438C88.6741 14.3804 91.7835 13.9581 93.4745 11.4946Z" fill="#DAC230"/>
<path d="M90.0083 12.0178C92.7205 11.6494 94.6698 8.92914 94.3623 5.94192C94.0548 2.9547 91.6068 0.831729 88.8947 1.20013C86.1825 1.56854 84.2332 4.28881 84.5407 7.27603C84.8482 10.2633 87.2962 12.3862 90.0083 12.0178Z" fill="#FEEE71"/>
</svg>
