<svg width="18" height="17" viewBox="0 0 18 17" fill="none" xmlns="http://www.w3.org/2000/svg">
<path d="M8.99984 0.0839844C6.7897 0.0839844 4.67008 0.961952 3.10728 2.52475C1.54448 4.08756 0.666504 6.20718 0.666504 8.41732C0.666504 10.6275 1.54448 12.7471 3.10728 14.3099C4.67008 15.8727 6.7897 16.7507 8.99984 16.7507C11.21 16.7507 13.3296 15.8727 14.8924 14.3099C16.4552 12.7471 17.3332 10.6275 17.3332 8.41732C17.3332 6.20718 16.4552 4.08756 14.8924 2.52475C13.3296 0.961952 11.21 0.0839844 8.99984 0.0839844ZM13.8082 7.46732L8.62484 12.584C8.40267 12.805 8.10472 12.9331 7.79151 12.9423C7.47945 12.9353 7.18165 12.8102 6.95817 12.5923L4.27484 9.99232C4.18161 9.89941 4.10764 9.78902 4.05717 9.66747C4.00669 9.54592 3.98071 9.41559 3.98071 9.28398C3.98071 9.15236 4.00669 9.02205 4.05717 8.9005C4.10764 8.77895 4.18161 8.66856 4.27484 8.57565L4.62484 8.21731C4.71717 8.12308 4.82737 8.04821 4.949 7.9971C5.07063 7.94599 5.20124 7.91968 5.33317 7.91968C5.4651 7.91968 5.59571 7.94599 5.71734 7.9971C5.83896 8.04821 5.94917 8.12308 6.0415 8.21731L7.8415 9.96732L12.1498 5.71731C12.3385 5.53105 12.593 5.42662 12.8582 5.42662C13.1233 5.42662 13.3778 5.53105 13.5665 5.71731L13.9165 6.07565C14.0814 6.2768 14.1623 6.53392 14.1421 6.79326C14.1219 7.05261 14.0023 7.29411 13.8082 7.46732Z" fill="#46B492"/>
</svg>
