<svg width="18" height="17" viewBox="0 0 18 17" fill="none" xmlns="http://www.w3.org/2000/svg">
<path d="M8.99984 16.916C7.90549 16.916 6.82186 16.7005 5.81081 16.2817C4.79976 15.8629 3.8811 15.2491 3.10728 14.4752C1.54448 12.9124 0.666504 10.7928 0.666504 8.58268C0.666504 6.37255 1.54448 4.25292 3.10728 2.69012C3.8811 1.9163 4.79976 1.30247 5.81081 0.883682C6.82186 0.464893 7.90549 0.24935 8.99984 0.24935C11.21 0.24935 13.3296 1.12732 14.8924 2.69012C16.4552 4.25292 17.3332 6.37255 17.3332 8.58268C17.3332 10.7928 16.4552 12.9124 14.8924 14.4752C13.3296 16.038 11.21 16.916 8.99984 16.916ZM10.2498 3.74935C10.2498 3.48413 10.1445 3.22978 9.95694 3.04224C9.76941 2.85471 9.51505 2.74935 9.24984 2.74935H8.74984C8.48462 2.74935 8.23027 2.85471 8.04273 3.04224C7.85519 3.22978 7.74984 3.48413 7.74984 3.74935V8.41602C7.74984 8.68124 7.85519 8.93559 8.04273 9.12312C8.23027 9.31066 8.48462 9.41602 8.74984 9.41602H9.24984C9.51505 9.41602 9.76941 9.31066 9.95694 9.12312C10.1445 8.93559 10.2498 8.68124 10.2498 8.41602V3.74935ZM8.99984 10.8743C8.61306 10.8743 8.24213 11.028 7.96864 11.3015C7.69515 11.575 7.5415 11.9459 7.5415 12.3327C7.5415 12.7195 7.69515 13.0904 7.96864 13.3639C8.24213 13.6374 8.61306 13.791 8.99984 13.791C9.38661 13.791 9.75754 13.6374 10.031 13.3639C10.3045 13.0904 10.4582 12.7195 10.4582 12.3327C10.4582 11.9459 10.3045 11.575 10.031 11.3015C9.75754 11.028 9.38661 10.8743 8.99984 10.8743Z" fill="#9297A1"/>
</svg>
