<svg width="16" height="16" viewBox="0 0 16 16" fill="none" xmlns="http://www.w3.org/2000/svg">
<path d="M14.0002 10.3473L12.5202 8.86732C12.4054 8.75287 12.2692 8.66217 12.1193 8.60039C11.9695 8.53862 11.8089 8.50699 11.6468 8.50732C11.4846 8.50626 11.3239 8.53755 11.1739 8.59936C11.0239 8.66118 10.8878 8.75227 10.7735 8.86732L10.2535 9.38732C10.0828 9.5343 9.87874 9.63727 9.65911 9.68724C9.43948 9.73721 9.21096 9.73266 8.99349 9.67398C8.34576 9.53838 7.75493 9.20808 7.30015 8.72732C6.81939 8.27255 6.48909 7.68172 6.35349 7.03398C6.29539 6.81647 6.29114 6.58808 6.34109 6.36855C6.39103 6.14902 6.49368 5.94496 6.64016 5.77398L7.16016 5.25399C7.27521 5.13965 7.3663 5.00353 7.42811 4.85357C7.48993 4.70362 7.52121 4.54284 7.52015 4.38065C7.52107 4.21947 7.48969 4.05974 7.42786 3.91089C7.36603 3.76203 7.27501 3.62708 7.16016 3.51399L5.65349 2.00065C5.53871 1.8862 5.40251 1.7955 5.25266 1.73373C5.1028 1.67196 4.94224 1.64033 4.78015 1.64065C4.61796 1.63959 4.45719 1.67088 4.30723 1.7327C4.15728 1.79451 4.02115 1.8856 3.90682 2.00065L3.38682 2.52065C2.89412 3.02359 2.56225 3.66179 2.43348 4.35398C2.28389 5.08867 2.28389 5.84597 2.43348 6.58065C2.81457 8.27321 3.67293 9.82103 4.90682 11.0407C6.12645 12.2745 7.67427 13.1329 9.36682 13.514C9.77042 13.5973 10.1814 13.6397 10.5935 13.6407C10.9294 13.6421 11.2645 13.6086 11.5935 13.5407C12.2857 13.4119 12.9239 13.08 13.4268 12.5873L13.9468 12.0673C14.1766 11.8432 14.3105 11.5388 14.3204 11.2181C14.3304 10.8973 14.2156 10.5852 14.0002 10.3473Z" fill="white"/>
</svg>
