<svg width="24" height="24" viewBox="0 0 24 24" fill="none" xmlns="http://www.w3.org/2000/svg">
<path d="M20.9997 15.521L18.7797 13.301C18.6076 13.1293 18.4033 12.9932 18.1785 12.9006C17.9537 12.8079 17.7129 12.7605 17.4697 12.761C17.2265 12.7594 16.9853 12.8063 16.7604 12.899C16.5354 12.9918 16.3312 13.1284 16.1597 13.301L15.3797 14.081C15.1237 14.3015 14.8176 14.4559 14.4882 14.5309C14.1587 14.6058 13.816 14.599 13.4897 14.511C12.5181 14.3076 11.6319 13.8121 10.9497 13.091C10.2286 12.4088 9.73315 11.5226 9.52974 10.551C9.4426 10.2247 9.43622 9.88212 9.51114 9.55283C9.58606 9.22353 9.74003 8.91743 9.95975 8.66098L10.7397 7.88098C10.9123 7.70948 11.049 7.50529 11.1417 7.28036C11.2344 7.05543 11.2813 6.81427 11.2797 6.57098C11.2811 6.32921 11.234 6.08961 11.1413 5.86633C11.0486 5.64305 10.912 5.44062 10.7397 5.27098L8.47974 3.00098C8.30758 2.8293 8.10328 2.69325 7.8785 2.60059C7.65372 2.50793 7.41287 2.46049 7.16974 2.46098C6.92645 2.45939 6.68529 2.50633 6.46036 2.59905C6.23543 2.69177 6.03124 2.82841 5.85974 3.00098L5.07975 3.78098C4.34069 4.53539 3.84288 5.49269 3.64974 6.53098C3.42535 7.633 3.42535 8.76895 3.64974 9.87098C4.22137 12.4098 5.50891 14.7315 7.35974 16.561C9.18918 18.4118 11.5109 19.6993 14.0497 20.271C14.6551 20.396 15.2716 20.4596 15.8897 20.461C16.3936 20.4631 16.8963 20.4128 17.3897 20.311C18.428 20.1178 19.3853 19.62 20.1397 18.881L20.9197 18.101C21.2643 17.7649 21.4652 17.3083 21.4801 16.8271C21.495 16.346 21.3229 15.8778 20.9997 15.521Z" fill="#1E5AF6"/>
</svg>
