<svg width="54" height="53" viewBox="0 0 54 53" fill="none" xmlns="http://www.w3.org/2000/svg">
<rect x="12.9026" y="14.6484" width="26" height="25" fill="white"/>
<path d="M27.0001 4.87988C21.216 4.87988 15.6688 7.16731 11.5788 11.239C7.48885 15.3106 5.19113 20.8329 5.19113 26.5911C5.19113 32.3493 7.48885 37.8716 11.5788 41.9433C15.6688 46.0149 21.216 48.3023 27.0001 48.3023C32.7842 48.3023 38.3313 46.0149 42.4213 41.9433C46.5113 37.8716 48.809 32.3493 48.809 26.5911C48.809 20.8329 46.5113 15.3106 42.4213 11.239C38.3313 7.16731 32.7842 4.87988 27.0001 4.87988ZM35.1784 29.1747L24.274 34.8848C23.7683 35.1443 23.2072 35.2783 22.6383 35.2756C22.0011 35.2716 21.3765 35.0993 20.8281 34.7762C20.3944 34.522 20.034 34.1606 19.7818 33.7269C19.5297 33.2933 19.3943 32.8022 19.3887 32.3012V20.8811C19.3943 20.38 19.5297 19.8889 19.7818 19.4553C20.034 19.0217 20.3944 18.6602 20.8281 18.406C21.3507 18.113 21.9404 17.9591 22.5401 17.9591C23.1399 17.9591 23.7295 18.113 24.2521 18.406L35.1566 24.116C35.6282 24.3457 36.0301 24.6958 36.3213 25.1306C36.6125 25.5654 36.7826 26.0694 36.8141 26.5911C36.8039 27.1293 36.6461 27.6544 36.3578 28.1098C36.0695 28.5652 35.6617 28.9334 35.1784 29.1747Z" fill="#1E5AF6"/>
</svg>
