<svg width="12" height="12" viewBox="0 0 12 12" fill="none" xmlns="http://www.w3.org/2000/svg">
<path d="M11.4774 2.84022H10.8681L11.8613 0.782647C11.9011 0.700776 11.9202 0.609732 11.9167 0.518108C11.9131 0.426485 11.8871 0.337304 11.8411 0.258984C11.7951 0.180663 11.7305 0.115786 11.6536 0.0704747C11.5766 0.0251637 11.4898 0.000913778 11.4013 1.36952e-05H8.85751C8.77949 -0.000665103 8.7032 0.0239047 8.63931 0.0702948C8.57541 0.116685 8.52709 0.182581 8.50108 0.258788L7.24596 3.89425C7.2254 3.95341 7.21891 4.01683 7.22703 4.07915C7.23515 4.14146 7.25765 4.20083 7.29262 4.25223C7.32759 4.30363 7.374 4.34554 7.42792 4.37441C7.48185 4.40329 7.54169 4.41827 7.60239 4.41811H8.58943L8.1081 6.90802C8.08568 7.03008 8.1032 7.1564 8.15787 7.26699C8.21254 7.37758 8.30125 7.46613 8.40996 7.51864C8.51867 7.57114 8.64117 7.5846 8.75809 7.55688C8.87502 7.52917 8.97968 7.46186 9.05553 7.3656L11.8856 3.70806C11.947 3.6292 11.9853 3.5339 11.9963 3.43328C12.0073 3.33266 11.9903 3.2309 11.9475 3.13987C11.9047 3.04885 11.8378 2.97233 11.7545 2.91927C11.6713 2.8662 11.5752 2.83878 11.4774 2.84022Z" fill="#D5B83B"/>
<path d="M11.8856 3.70806L9.05553 7.3656C9.0051 7.43085 8.9411 7.48347 8.86831 7.51953C8.79552 7.5556 8.71581 7.57417 8.63512 7.57389C8.55554 7.57413 8.4769 7.55601 8.40491 7.52085C8.33292 7.4857 8.26939 7.43438 8.21893 7.37063C8.16847 7.30687 8.13235 7.23228 8.11317 7.15226C8.094 7.07225 8.09227 6.98881 8.1081 6.90802L8.58943 4.41811H7.60239C7.54169 4.41827 7.48185 4.40328 7.42792 4.37441C7.374 4.34554 7.32759 4.30363 7.29262 4.25223C7.25765 4.20083 7.23515 4.14146 7.22703 4.07915C7.21891 4.01683 7.2254 3.95341 7.24596 3.89425L8.50108 0.258788C8.52709 0.182581 8.57541 0.116685 8.63931 0.0702948C8.7032 0.0239047 8.77949 -0.000665103 8.85751 1.36952e-05H11.4013C11.4903 -0.00015753 11.5779 0.0233112 11.6557 0.0681799C11.7334 0.113049 11.7988 0.17782 11.8456 0.256312C11.8923 0.334803 11.9189 0.424396 11.9227 0.516539C11.9265 0.608682 11.9075 0.700299 11.8674 0.782647L10.8742 2.84022H11.4835C11.5807 2.83999 11.676 2.86829 11.7584 2.92183C11.8407 2.97537 11.9067 3.05196 11.9488 3.14275C11.9909 3.23355 12.0073 3.33482 11.9961 3.43486C11.9849 3.5349 11.9466 3.62962 11.8856 3.70806V3.70806Z" fill="#FFF3A8"/>
<path d="M6.62191 6.8575L4.81539 2.64453C4.76028 2.51474 4.66984 2.40442 4.55513 2.32707C4.44042 2.24972 4.30642 2.2087 4.16955 2.20903H0.714923C0.588366 2.20752 0.463738 2.24124 0.354059 2.30667C0.24438 2.3721 0.153674 2.46684 0.0914172 2.58099C0.0291601 2.69514 -0.00236398 2.82452 0.000138161 2.9556C0.0026403 3.08668 0.0390768 3.21467 0.105641 3.32618L1.68368 5.99597H0.876383C0.750035 5.99603 0.626326 6.03343 0.519777 6.10377C0.413228 6.17411 0.32826 6.27448 0.274847 6.3931C0.221434 6.51171 0.201792 6.64364 0.218227 6.77342C0.234662 6.90319 0.286492 7.02541 0.367632 7.12574L4.06597 11.6764C4.19164 11.8336 4.36553 11.9415 4.55866 11.9821C4.7518 12.0227 4.95253 11.9935 5.12741 11.8994C5.3023 11.8053 5.4408 11.652 5.51983 11.465C5.59886 11.278 5.61366 11.0686 5.56176 10.8716L4.80625 7.88944H5.97607C6.09413 7.88962 6.21036 7.85916 6.31413 7.80084C6.41791 7.74252 6.50593 7.6582 6.57015 7.55558C6.63438 7.45296 6.67276 7.3353 6.6818 7.21336C6.69084 7.09142 6.67025 6.96907 6.62191 6.8575V6.8575Z" fill="#FEE643"/>
</svg>
