<svg width="24" height="24" viewBox="0 0 24 24" fill="none" xmlns="http://www.w3.org/2000/svg">
<g clip-path="url(#clip0_6042_230883)">
<rect x="7" y="6" width="10" height="12" fill="#FEE643"/>
<path fill-rule="evenodd" clip-rule="evenodd" d="M13.6971 2.96149C12.9288 1.6795 11.0712 1.6795 10.3029 2.96149L9.84707 3.72224C9.39906 4.46988 8.51455 4.83626 7.66909 4.62439L6.80881 4.40881C5.3591 4.04551 4.04551 5.3591 4.40881 6.80881L4.62439 7.66909C4.83626 8.51455 4.46988 9.39906 3.72224 9.84707L2.96149 10.3029C1.6795 11.0712 1.6795 12.9288 2.96149 13.6971L3.72224 14.1529C4.46988 14.6009 4.83626 15.4855 4.62439 16.3309L4.40881 17.1912C4.04551 18.6409 5.3591 19.9545 6.80881 19.5912L7.66909 19.3756C8.51455 19.1637 9.39906 19.5301 9.84707 20.2778L10.3029 21.0385C11.0712 22.3205 12.9288 22.3205 13.6971 21.0385L14.1529 20.2778C14.6009 19.5301 15.4855 19.1637 16.3309 19.3756L17.1912 19.5912C18.6409 19.9545 19.9545 18.6409 19.5912 17.1912L19.3756 16.3309C19.1637 15.4855 19.5301 14.6009 20.2778 14.1529L21.0385 13.6971C22.3205 12.9288 22.3205 11.0712 21.0385 10.3029L20.2778 9.84707C19.5301 9.39906 19.1637 8.51455 19.3756 7.66909L19.5912 6.80881C19.9545 5.3591 18.6409 4.04551 17.1912 4.40881L16.3309 4.62439C15.4855 4.83626 14.6009 4.46988 14.1529 3.72224L13.6971 2.96149ZM9.03236 9.0198V14.9802C9.03236 15.7732 10.0462 16.2344 10.776 15.7735L15.4951 12.7933C16.1108 12.4045 16.1108 11.5955 15.4951 11.2067L10.776 8.22646C10.0462 7.76555 9.03236 8.22682 9.03236 9.0198Z" fill="#1E5AF6"/>
</g>
<defs>
<clipPath id="clip0_6042_230883">
<rect width="24" height="24" fill="white"/>
</clipPath>
</defs>
</svg>
