<svg width="360" height="640" viewBox="0 0 360 640" fill="none" xmlns="http://www.w3.org/2000/svg">
<g clip-path="url(#clip0_5765_228087)">
<path opacity="0.8" d="M-126 596C-126 462.899 10.777 355 179.5 355C348.223 355 485 462.899 485 596C485 729.101 348.223 837 179.5 837C10.777 837 -126 729.101 -126 596Z" fill="url(#paint0_radial_5765_228087)"/>
<path opacity="0.3" fill-rule="evenodd" clip-rule="evenodd" d="M193.284 527.809L251.563 262.419H135L193.284 527.809ZM193.217 528.632L418.39 360.84L329.092 290.113L193.074 528.686L193.003 528.713L193.058 528.714L193.03 528.764L193.022 528.761L193.029 528.766L193.022 528.777L193.032 528.77L407.363 709.107L465.648 613.812L193.037 528.766L193.105 528.716L480 536.809L459.757 428.448L193.217 528.632ZM234.371 796.969L192.993 528.82L151.611 796.969L42.0752 759.334L192.988 528.784L192.987 528.775L-21.3383 709.107L-79.6227 613.812L192.985 528.767L192.985 528.764L192.919 528.715L-94.0001 536.809L-73.7571 428.448L192.828 528.647L-32.3654 360.84L56.9273 290.113L192.956 528.695L193.003 528.713L192.966 528.714L192.995 528.764L193.003 528.761L193.001 528.774L193.003 528.777L193 528.776L192.999 528.784L343.912 759.334L234.371 796.969ZM192.996 528.772L192.994 528.775L192.991 528.771L192.993 528.77L192.996 528.772ZM192.998 528.769L193.003 528.761L192.996 528.767L192.998 528.769Z" fill="url(#paint1_radial_5765_228087)"/>
</g>
<defs>
<radialGradient id="paint0_radial_5765_228087" cx="0" cy="0" r="1" gradientUnits="userSpaceOnUse" gradientTransform="translate(179.5 570.215) rotate(-91.8165) scale(220.826 279.926)">
<stop stop-color="#00B6EF"/>
<stop offset="1" stop-color="#00AEEF" stop-opacity="0"/>
</radialGradient>
<radialGradient id="paint1_radial_5765_228087" cx="0" cy="0" r="1" gradientUnits="userSpaceOnUse" gradientTransform="translate(193 530.166) rotate(90) scale(266.803 287)">
<stop stop-color="#4A83F9"/>
<stop offset="1" stop-color="#A0CBFD" stop-opacity="0"/>
</radialGradient>
<clipPath id="clip0_5765_228087">
<rect width="360" height="640" fill="white"/>
</clipPath>
</defs>
</svg>
