<svg width="145" height="120" viewBox="0 0 145 120" fill="none" xmlns="http://www.w3.org/2000/svg">
<g clip-path="url(#clip0_5811_228185)">
<path fill-rule="evenodd" clip-rule="evenodd" d="M46.0084 67.6091L46.0088 67.6072L137.876 -4.91416L101.474 -35.4578L46.0102 67.6005L69.7656 -47H22.2487L46.0074 67.6056L46.0049 67.6102L46.0079 67.6079L46.0082 67.6092L46.0059 67.6101L163 71.1067L154.748 24.3103L46.0084 67.6091ZM46.0141 67.6206L133.38 145.495L157.14 104.341L46.0099 67.6138L46.0088 67.612L46.009 67.6135L46.0045 67.612L46.0095 67.6165L62.8799 183.438L107.534 167.186L46.0141 67.6206ZM46.0039 67.612L-15.5215 167.186L29.1306 183.438L46.0039 67.612ZM46.0039 67.612L-65.1315 104.341L-41.3719 145.495L46.0039 67.612ZM46.0039 67.6101L-62.7404 24.3103L-70.9924 71.1067L46.0039 67.6101ZM-9.46701 -35.4577L46.0039 67.6101L-45.8671 -4.91411L-9.46701 -35.4577Z" fill="url(#paint0_radial_5811_228185)"/>
<ellipse opacity="0.7" cx="48" cy="64.5" rx="74" ry="73.5" fill="url(#paint1_radial_5811_228185)"/>
<path d="M6.60544 63.3177L-15.3047 72.8516L-14.6819 70.5959L1.61906 62.5379L6.60544 63.3177Z" fill="#EAF2FD"/>
<path d="M-19.8718 31.4927C-19.5414 30.1548 -18.3718 29.2815 -17.1518 29.5664L81.1332 50.5764C82.3316 50.784 83.0752 52.1602 82.8364 53.3958L70.2327 112.171C69.9022 113.509 68.7327 114.382 67.5126 114.097L-30.7632 93.1082C-31.9615 92.9007 -32.7051 91.5244 -32.4663 90.2889L-19.8718 31.4927Z" fill="url(#paint2_linear_5811_228185)"/>
<path d="M65.9354 107.564L-27.36 87.8568C-28.2348 87.7062 -28.8114 86.878 -28.6616 86.0046C-28.65 85.9747 -28.6533 85.9389 -28.6358 85.8939L-27.2419 79.3799C-27.0922 78.5066 -26.2636 77.9319 -25.3888 78.0825C-25.3587 78.0942 -25.3229 78.0909 -25.2778 78.1084L68.0559 97.7611C68.9248 97.9267 69.5164 98.7607 69.3517 99.6283C69.34 99.6582 69.3434 99.694 69.3317 99.724L67.9378 106.238C67.7164 107.118 66.8519 107.696 65.9354 107.564Z" fill="#A0CBFD"/>
<path d="M1.82646 53.3631L1.53681 54.5961L-2.98322 53.5964L-2.69939 52.3784L1.82646 53.3631ZM1.35954 55.4071L1.06988 56.6401L-3.45015 55.6403L-3.16632 54.4223L1.35954 55.4071Z" fill="#A0CBFD"/>
<path d="M14.6752 51.1844C14.9431 51.6509 15.0025 52.2089 14.8401 52.715L14.3459 55.3177L12.9907 54.9801L13.5042 52.5057C13.5616 52.2693 13.5532 52.0245 13.473 51.7862C13.3245 51.5904 13.1018 51.452 12.8533 51.4243C12.6164 51.3667 12.3746 51.4106 12.1696 51.5378C11.9737 51.6859 11.8353 51.9081 11.8079 52.1562L11.2945 54.6306L9.95433 54.2989L10.4678 51.8245C10.5252 51.5881 10.5167 51.3432 10.4366 51.105C10.2881 50.9092 10.0654 50.7708 9.81686 50.7431C9.58002 50.6854 9.33822 50.7294 9.13314 50.8566C8.93725 51.0046 8.79892 51.2269 8.77151 51.475L8.25807 53.9494L6.84954 53.6601L7.8449 49.1476L9.25344 49.4369L9.09775 50.0147C9.30283 49.8875 9.51709 49.7811 9.74053 49.6955C10.0032 49.6424 10.2875 49.6668 10.5486 49.7511C10.8755 49.8438 11.1849 49.9815 11.471 50.1791C11.7121 50.3591 11.8823 50.6324 11.9391 50.9306C12.1917 50.7701 12.4018 50.5413 12.6911 50.4641C13.0037 50.3269 13.3506 50.3239 13.645 50.4557C14.0645 50.5327 14.444 50.8011 14.6752 51.1844Z" fill="#A0CBFD"/>
<path d="M8.84426 62.5226L10.5191 59.5513L11.9876 59.8639L9.46365 64.0404L7.75239 63.685L7.09903 58.7898L8.56761 59.1025L8.84426 62.5226Z" fill="#A0CBFD"/>
<path d="M25.6863 57.9337L25.3967 59.1667L20.8766 58.167L21.1605 56.9489L25.6863 57.9337ZM25.2644 59.9951L24.9748 61.2281L20.4548 60.2284L20.7386 59.0104L25.2644 59.9951Z" fill="#A0CBFD"/>
<path d="M34.3684 53.3038C34.4225 53.0315 34.5575 52.7735 34.7317 52.548C34.9267 52.3133 35.2093 52.1645 35.5262 52.1498C35.8838 52.0302 36.2466 52.1196 36.6686 52.1458C37.0522 52.226 37.4275 52.3721 37.7795 52.5781C38.0414 52.749 38.2324 53.0131 38.3251 53.308C38.4745 53.5904 38.4838 53.9218 38.3522 54.2156C38.319 54.4788 38.1748 54.716 37.9672 54.894C37.8197 55.0954 37.5905 55.1959 37.3379 55.3564C37.5998 55.5274 37.7967 55.7765 37.8835 56.0863C38.0121 56.3779 38.0272 56.6943 37.9106 56.994C37.8574 57.3529 37.6724 57.695 37.4207 57.9421C37.1873 58.2308 36.898 58.308 36.4803 58.4043C36.1226 58.5239 35.7598 58.4345 35.3379 58.4083C34.9576 58.3638 34.5973 58.2236 34.287 57.9994C34.0068 57.7868 33.7857 57.511 33.6538 57.1836C33.5161 56.8712 33.5393 56.5007 33.5474 56.1243C33.6073 55.8371 33.7482 55.5641 33.9282 55.3236C34.1808 55.1631 34.3908 54.9343 34.7227 54.9254C34.3547 54.3164 34.2127 53.8816 34.3684 53.3038ZM35.2867 55.6969C35.1175 55.8209 34.9332 55.939 34.9426 56.2704C34.9118 56.4827 34.9619 56.7092 35.0804 56.8934C35.2139 57.0833 35.4066 57.2101 35.6401 57.2319C35.9336 57.2771 36.1313 57.3023 36.3005 57.1784C36.4697 57.0544 36.6539 56.9363 36.6446 56.6049C36.6754 56.3926 36.6253 56.1661 36.5068 55.9819C36.3466 55.8161 36.1539 55.6893 35.9321 55.6375C35.7219 55.5557 35.4859 55.5847 35.2867 55.6969ZM36.9344 53.5949C36.8251 53.4316 36.6507 53.3465 36.4623 53.3422C36.2138 53.3145 36.1087 53.2736 35.9245 53.3917C35.7611 53.5006 35.6761 53.6746 35.672 53.8628C35.6446 54.1109 35.6038 54.2158 35.7223 54.4C35.8316 54.5633 36.0059 54.6483 36.1943 54.6527C36.4428 54.6803 36.5479 54.7212 36.7322 54.6031C36.8956 54.4942 36.9805 54.3202 36.9846 54.1321C36.9887 53.9439 37.0995 53.6592 36.9344 53.5949Z" fill="#A0CBFD"/>
<path d="M38.6763 57.7829L38.8593 56.6464L42.2168 53.5707L43.8055 53.9301L43.0724 57.4577L43.7287 57.5923L43.5224 58.7887L42.8661 58.6541L42.6464 59.7073L41.2228 59.4121L41.4425 58.359L38.6763 57.7829ZM42.2141 55.0879L40.407 56.8001L41.7472 57.1318L42.2141 55.0879Z" fill="#A0CBFD"/>
<path d="M49.236 56.5355C49.4529 56.6889 49.6106 56.9055 49.6849 57.1587L49.8189 56.5035L51.2274 56.7928L50.2321 61.3053C50.1463 61.7032 49.9856 62.072 49.7405 62.3907C49.5072 62.6795 49.1804 62.8973 48.8194 62.9811C48.3958 63.0924 47.9564 63.1112 47.5161 63.0433C46.9348 62.9379 46.3935 62.641 45.9972 62.1935C45.6493 61.7994 45.5065 61.278 45.603 60.7634L46.9432 61.0951C46.9749 61.28 47.0634 61.4525 47.2052 61.5767C47.3295 61.7458 47.5339 61.8426 47.7374 61.8527C48.01 61.9071 48.2727 61.854 48.4894 61.6968C48.7187 61.5963 48.8295 61.3116 48.9578 60.9819L49.0917 60.3267C48.9442 60.5281 48.7149 60.6287 48.3573 60.7483C48.0446 60.8854 47.7569 60.8252 47.4484 60.7741C47.0889 60.7205 46.7461 60.5354 46.4984 60.2837C46.2298 60.0412 46.0412 59.7262 45.951 59.3806C45.8299 58.9366 45.8313 58.4886 45.9554 58.0366C46.0377 57.6028 46.231 57.195 46.4877 56.8463C46.7269 56.5425 47.0387 56.3188 47.3872 56.1784C47.6998 56.0412 48.0709 56.0649 48.5079 56.0969C48.7581 56.2978 49.0283 56.4029 49.236 56.5355ZM49.2141 57.9244C49.0831 57.6837 48.8362 57.5186 48.5577 57.4792C48.285 57.4249 48.0223 57.4779 47.8056 57.6351C47.553 57.7956 47.3822 58.0569 47.3372 58.35C47.2773 58.6373 47.3133 58.9446 47.4477 59.2211C47.5695 59.4411 47.7956 59.6153 48.0441 59.643C48.3018 59.6915 48.5794 59.6443 48.7962 59.4871C49.0488 59.3266 49.2196 59.0653 49.2645 58.7722C49.2727 58.3958 49.3776 58.1261 49.2141 57.9244Z" fill="#A0CBFD"/>
<path d="M54.1248 57.5643C54.4375 57.4271 54.6627 57.5148 55.0338 57.5384L54.7225 59.0045L54.3689 58.9359C54.0153 58.8674 53.7043 58.8671 53.5801 59.0086C53.3509 59.1091 53.2634 59.3339 53.1118 59.7235L52.6065 61.8215L51.198 61.5321L52.1934 57.0197L53.6019 57.309L53.4271 58.0691C53.6463 57.8611 53.8839 57.6948 54.1248 57.5643Z" fill="#A0CBFD"/>
<path d="M55.4378 58.7635C55.677 58.4597 55.9888 58.236 56.3373 58.0956C56.6499 57.9584 57.021 57.9821 57.458 58.0141C57.7399 58.0893 58.0193 58.2152 58.2603 58.3953C58.4772 58.5487 58.6349 58.7653 58.7243 59.0244L58.8582 58.3692L60.2668 58.6585L59.2714 63.1709L57.8629 62.8816L57.9968 62.2264C57.8493 62.4278 57.6201 62.5283 57.2857 62.588C56.9731 62.7252 56.6853 62.665 56.3768 62.6139C56.0174 62.5603 55.6745 62.3751 55.4268 62.1235C55.1582 61.8809 54.9696 61.566 54.8852 61.2053C54.7583 60.7764 54.7506 60.3076 54.8838 59.8763C54.9845 59.4842 55.172 59.0913 55.4378 58.7635ZM58.1551 59.8208C58.024 59.5801 57.7771 59.415 57.4986 59.3756C57.2259 59.3212 56.9633 59.3743 56.7315 59.5257C56.4789 59.6862 56.3081 59.9475 56.2632 60.2406C56.2033 60.5278 56.2393 60.8351 56.3736 61.1117C56.4955 61.3316 56.7215 61.5058 56.97 61.5335C57.2427 61.5879 57.5054 61.5348 57.7371 61.3835C57.9897 61.223 58.1606 60.9616 58.2055 60.6686C58.2053 60.358 58.3161 60.0733 58.1551 59.8208Z" fill="#A0CBFD"/>
<path d="M68.1862 60.9289C68.454 61.3955 68.5135 61.9535 68.3511 62.4596L67.8569 65.0622L66.5167 64.7305L67.0301 62.2561C67.1026 62.0255 67.0791 61.7749 66.999 61.5367C66.8505 61.3408 66.6278 61.2024 66.3793 61.1747C66.1424 61.1171 65.9006 61.161 65.6955 61.2882C65.4996 61.4363 65.3613 61.6585 65.3339 61.9066L64.8205 64.381L63.4803 64.0493L63.9704 61.6348C64.0278 61.3984 64.0194 61.1536 63.9392 60.9154C63.7907 60.7195 63.568 60.5811 63.3195 60.5534C63.0827 60.4958 62.8409 60.5397 62.6358 60.6669C62.4399 60.815 62.3016 61.0372 62.2742 61.2853L61.7607 63.7597L60.3372 63.4646L61.3384 58.9371L62.7469 59.2265L62.5912 59.8042C62.7963 59.677 63.0106 59.5706 63.234 59.485C63.4967 59.4319 63.781 59.4563 64.042 59.5406C64.369 59.6333 64.6784 59.771 64.9645 59.9686C65.2056 60.1487 65.3758 60.4219 65.4326 60.7201C65.6852 60.5596 65.8953 60.3308 66.1846 60.2536C66.4972 60.1165 66.8441 60.1134 67.1385 60.2452C67.5696 60.2922 67.955 60.5457 68.1862 60.9289Z" fill="#A0CBFD"/>
<path d="M37.1521 67.2955C37.2062 67.0232 37.3412 66.7652 37.5154 66.5397C37.7104 66.305 37.993 66.1562 38.3099 66.1415C38.6675 66.0219 39.0153 66.1055 39.4523 66.1375C39.8359 66.2177 40.2112 66.3638 40.5632 66.5698C40.8251 66.7407 41.0161 67.0048 41.1088 67.2997C41.2582 67.5821 41.2825 67.9194 41.1359 68.2074C41.1027 68.4705 40.9585 68.7077 40.751 68.8857C40.6034 69.0871 40.3742 69.1876 40.1274 69.3332C40.3893 69.5041 40.5862 69.7532 40.6789 70.0481C40.8074 70.3396 40.8226 70.6561 40.706 70.9558C40.6528 71.3146 40.4678 71.6567 40.2161 71.9038C39.9493 72.1451 39.625 72.3122 39.2757 72.366C38.918 72.4856 38.5552 72.3962 38.1333 72.37C37.753 72.3256 37.3927 72.1854 37.0824 71.9611C36.8021 71.7485 36.581 71.4727 36.4491 71.1453C36.3114 70.833 36.3346 70.4624 36.3428 70.086C36.4027 69.7988 36.5435 69.5258 36.7235 69.2853C36.9761 69.1248 37.1862 68.896 37.518 68.8871C37.1984 68.3314 36.9814 67.8674 37.1521 67.2955ZM38.0704 69.6886C37.9012 69.8126 37.7169 69.9307 37.7263 70.2621C37.6955 70.4744 37.7456 70.7009 37.8641 70.8851C37.9976 71.075 38.2053 71.2076 38.4388 71.2295C38.7323 71.2747 38.93 71.2998 39.0992 71.1759C39.2684 71.052 39.4527 70.9339 39.4433 70.6025C39.4741 70.3901 39.424 70.1636 39.3055 69.9795C39.1453 69.8136 38.9526 69.6869 38.7308 69.6351C38.4998 69.5624 38.2638 69.5914 38.0704 69.6886ZM39.7355 67.5417C39.6262 67.3784 39.4519 67.2933 39.2635 67.2889C39.075 67.2846 38.9099 67.2204 38.7256 67.3385C38.5623 67.4474 38.4773 67.6214 38.4732 67.8096C38.4458 68.0577 38.405 68.1626 38.5234 68.3467C38.6328 68.51 38.8071 68.5951 38.9955 68.5994C39.244 68.6271 39.3491 68.668 39.5334 68.5499C39.6967 68.441 39.7817 68.267 39.7858 68.0788C39.8708 67.9048 39.8449 67.705 39.7355 67.5417Z" fill="#A0CBFD"/>
<path d="M43.8282 69.773C44.0524 69.4634 44.3792 69.2455 44.7644 69.1884C45.1671 69.0863 45.5974 69.0467 46.0077 69.1029C46.5865 69.2591 46.9768 69.4109 47.3014 69.8651C47.6284 70.2684 47.7862 70.7956 47.7556 71.3185L46.287 71.0058C46.2502 70.6119 46.0716 70.4044 45.6347 70.3724C45.3978 70.3148 45.156 70.3587 44.9509 70.4859C44.8034 70.6873 44.6109 70.8712 44.5702 71.2867C44.5295 71.7021 44.4963 71.9653 44.5973 72.1943C44.6983 72.4234 44.9001 72.571 45.1487 72.5987C45.4664 72.6705 45.7882 72.5542 45.9649 72.2779L47.4335 72.5906C47.241 73.0851 46.8801 73.4795 46.425 73.7164C45.9431 73.9775 45.4286 73.967 44.8924 73.8792C44.4787 73.7872 44.0434 73.6178 43.8048 73.3869C43.4945 73.1627 43.2759 72.8361 43.2123 72.4663C43.1004 72.0432 43.0811 71.6043 43.1484 71.1647C43.3832 70.428 43.5582 69.9785 43.8282 69.773Z" fill="#A0CBFD"/>
<path d="M55.9337 71.7439C56.2016 72.2104 56.261 72.7684 56.0986 73.2745L55.6044 75.8771L54.2643 75.5454L54.7777 73.071C54.8351 72.8346 54.8267 72.5898 54.7465 72.3516C54.598 72.1558 54.3753 72.0173 54.1268 71.9896C53.89 71.932 53.6482 71.9759 53.4431 72.1031C53.2472 72.2512 53.1089 72.4734 53.0815 72.7215L52.553 75.1901L51.2128 74.8584L51.7263 72.384C51.7837 72.1475 51.7753 71.9027 51.6951 71.6645C51.5466 71.4687 51.3239 71.3303 51.0754 71.3026C50.8385 71.2449 50.5967 71.2888 50.3917 71.4161C50.1958 71.5641 50.0574 71.7863 50.03 72.0345L49.5166 74.5088L48.1081 74.2195L49.0826 69.7162L50.4911 70.0055L50.3354 70.5833C50.5405 70.4561 50.7548 70.3497 50.9782 70.2641C51.2409 70.211 51.5252 70.2354 51.7863 70.3197C52.1132 70.4125 52.4226 70.5501 52.7087 70.7477C52.9498 70.9278 53.12 71.201 53.1768 71.4992C53.4294 71.3387 53.6395 71.1099 53.9288 71.0327C54.2414 70.8956 54.5883 70.8925 54.8827 71.0243C55.2538 71.048 55.6266 71.2448 55.9337 71.7439Z" fill="#A0CBFD"/>
<path d="M58.3387 68.8645C58.6688 68.6825 58.9407 68.6502 59.3993 68.7597C59.6929 68.8049 59.9181 68.8925 60.0366 69.0767C60.2201 69.1826 60.3444 69.3517 60.427 69.5391C60.5096 69.7266 60.5147 69.9356 60.4598 70.1212C60.4649 70.3303 60.3532 70.5283 60.184 70.6523C60.0414 70.7521 59.8689 70.8402 59.7021 70.9133C59.8973 70.9893 60.0425 71.1493 60.1101 71.3309C60.2019 71.5391 60.2162 71.769 60.1646 71.9904C60.1697 72.1994 60.058 72.3975 59.8888 72.5215C59.7137 72.6604 59.5353 72.7635 59.3235 72.8191C59.0876 72.848 58.8633 72.847 58.6356 72.8102C58.222 72.7182 57.8316 72.5663 57.7089 72.2598C57.5145 71.9599 57.451 71.5901 57.5342 71.2429L58.3557 71.4418C58.3749 71.57 58.3107 71.7349 58.3925 71.8357C58.4292 71.919 58.5944 71.9833 58.6995 72.0242C58.8404 72.0617 58.9838 72.0485 59.0939 71.9878C59.1981 71.9421 59.2689 71.8489 59.2589 71.7415C59.2396 71.6132 59.3038 71.4484 59.1386 71.3842C59.1019 71.3009 58.8917 71.2191 58.6432 71.1914L58.5148 71.2104L58.6663 70.5103L58.7947 70.4912C59.0432 70.5189 59.1483 70.5598 59.2491 70.4783C59.395 70.4143 59.4784 70.3777 59.4825 70.1895C59.4633 70.0613 59.5099 69.9414 59.4649 69.9239C59.419 69.8197 59.3256 69.7489 59.218 69.7588C59.0896 69.7778 58.9695 69.7311 58.952 69.776C58.8478 69.8218 58.7919 69.9208 58.787 70.0224L57.9655 69.8235C57.8761 69.2539 58.0494 68.9417 58.3387 68.8645Z" fill="#A0CBFD"/>
<path d="M-1.34628 69.5694C-0.860327 69.1201 -0.221634 68.9891 0.539769 69.1646C1.30117 69.3401 1.86084 69.6787 2.07624 70.2801C2.32005 71.0306 2.33708 71.8308 2.12644 72.5942C1.94756 73.5425 1.56261 74.2209 1.14501 74.6277C0.65906 75.077 0.0203668 75.208 -0.741036 75.0325C-1.50244 74.857 -2.06212 74.5184 -2.27752 73.917C-2.52133 73.1665 -2.53836 72.3663 -2.32771 71.6029C-2.08879 70.6779 -1.83224 70.0186 -1.34628 69.5694ZM0.970828 70.9886C0.910645 70.6547 0.636204 70.4271 0.295144 70.4151C-0.058448 70.3466 -0.347772 70.4238 -0.49776 70.676C-0.715237 71.0572 -0.863478 71.4825 -0.909989 71.913C-0.990747 72.2094 -1.02647 72.5233 -1.00549 72.8248C-1.02707 73.0579 -0.997784 73.2936 -0.890955 73.5077C-0.766635 73.6768 -0.64815 73.861 -0.316272 73.8521C-0.0227289 73.8973 0.174915 73.9224 0.344138 73.7985C0.534204 73.6654 0.666701 73.4582 0.688281 73.2251C0.819906 72.9312 0.891482 72.614 0.927204 72.3001C0.939468 71.7355 0.970962 71.2992 0.970828 70.9886Z" fill="#A0CBFD"/>
<path d="M4.21111 74.7844L2.81195 76.9141L1.99049 76.7152L2.91348 74.521L4.21111 74.7844Z" fill="#A0CBFD"/>
<path d="M9.83841 72.4558L7.29987 71.9165L7.11691 73.053C7.2803 72.9441 7.45287 72.856 7.65882 72.8153C7.87395 72.7955 8.08325 72.7907 8.30173 72.8067C8.67282 72.8304 9.01562 73.0155 9.25173 73.2972C9.54118 73.5306 9.61886 73.8196 9.67904 74.1536C9.75424 74.4934 9.7277 74.8281 9.60525 75.1428C9.5121 75.6931 9.22713 76.2033 8.79701 76.5535C8.42023 76.8555 7.81987 76.9324 7.17274 76.8186C6.77411 76.7325 6.40463 76.5715 6.08515 76.3264C5.80488 76.1138 5.58378 75.838 5.45189 75.5106C5.32335 75.2191 5.29319 74.8968 5.36477 74.5796L6.70494 74.9113C6.71252 75.0695 6.75594 75.2244 6.84689 75.3461C6.9562 75.5094 7.13051 75.5945 7.31897 75.5988C7.5408 75.6506 7.7676 75.6008 7.94266 75.4619C8.11188 75.338 8.19933 75.1132 8.25924 74.826C8.31916 74.5388 8.32908 74.3356 8.20476 74.1665C8.08044 73.9973 7.91531 73.9331 7.64508 73.8279C7.39658 73.8002 7.29149 73.7593 7.13058 73.8175C6.98468 73.8815 6.87216 73.993 6.81385 74.1428L5.49451 73.8019L6.22763 70.2744L9.98626 71.0986L9.83841 72.4558Z" fill="#A0CBFD"/>
<path d="M17.4221 73.7494C17.6389 73.9028 17.7966 74.1194 17.886 74.3785L18.0199 73.7232L19.4285 74.0125L18.4331 78.525C18.3474 78.9229 18.1866 79.2917 17.9416 79.6104C17.7174 79.92 17.3906 80.1379 17.0054 80.195C16.5818 80.3062 16.1424 80.325 15.7021 80.2572C15.1208 80.1518 14.5795 79.8549 14.1832 79.4074C13.8353 79.0132 13.6925 78.4918 13.789 77.9773L15.1292 78.309C15.161 78.4939 15.2494 78.6663 15.3913 78.7905C15.5156 78.9597 15.7199 79.0565 15.9234 79.0666C16.1811 79.1151 16.4587 79.0679 16.6755 78.9107C16.9047 78.8101 17.0155 78.5254 17.1438 78.1958L17.2719 77.5556C17.1244 77.7569 16.8952 77.8575 16.5433 77.9621C16.2482 78.0543 15.9313 78.069 15.6344 77.988C15.275 77.9344 14.9322 77.7493 14.6844 77.4976C14.4366 77.2459 14.248 76.931 14.1428 76.5795C14.0159 76.1505 14.0082 75.6817 14.1414 75.2505C14.2238 74.8167 14.4171 74.4088 14.6738 74.0601C14.9129 73.7564 15.2247 73.5327 15.5732 73.3922C15.8859 73.2551 16.2569 73.2787 16.6939 73.3107C16.9724 73.3501 17.2552 73.5119 17.4221 73.7494ZM17.4235 75.0784C17.2925 74.8376 17.0455 74.6725 16.767 74.6331C16.5001 74.5638 16.2167 74.626 15.9999 74.7832C15.7473 74.9437 15.5765 75.205 15.5316 75.4981C15.4717 75.7854 15.5077 76.0927 15.642 76.3692C15.7639 76.5892 15.9958 76.7484 16.2384 76.7911C16.5053 76.8604 16.7738 76.7924 17.0055 76.641C17.2581 76.4805 17.429 76.2192 17.4739 75.9261C17.482 75.5497 17.587 75.28 17.4235 75.0784Z" fill="#A0CBFD"/>
<path d="M22.4399 74.804C22.7525 74.6669 22.9777 74.7545 23.3488 74.7781L23.0376 76.2443L22.684 76.1757C22.3304 76.1071 22.0043 76.101 21.8952 76.2483C21.6659 76.3489 21.5784 76.5736 21.4268 76.9632L20.9366 79.0671L19.5281 78.7778L20.5234 74.2653L21.932 74.5546L21.7572 75.3147C21.8379 75.0184 22.0672 74.9178 22.4399 74.804Z" fill="#A0CBFD"/>
<path d="M23.6268 75.9712C23.866 75.6674 24.1777 75.4437 24.5262 75.3032C24.8389 75.1661 25.21 75.1897 25.6469 75.2217C25.9288 75.2969 26.2082 75.4229 26.4493 75.603C26.6661 75.7564 26.8238 75.973 26.9132 76.2321L27.0413 75.5918L28.4499 75.8811L27.4545 80.3936L26.0459 80.1043L26.1741 79.464C26.0266 79.6654 25.7973 79.766 25.4629 79.8257C25.1503 79.9628 24.8626 79.9026 24.554 79.8515C24.1946 79.7979 23.8518 79.6128 23.604 79.3611C23.3354 79.1186 23.1468 78.8036 23.0625 78.443C22.9355 78.014 22.9428 77.5511 23.0611 77.114C23.1735 76.6919 23.3609 76.299 23.6268 75.9712ZM26.4274 76.9919C26.2963 76.7512 26.0494 76.5861 25.7709 76.5467C25.4982 76.4923 25.2356 76.5454 25.0038 76.6968C24.7512 76.8573 24.5804 77.1186 24.5355 77.4117C24.4756 77.6989 24.5116 78.0062 24.6459 78.2828C24.7678 78.5027 24.9996 78.662 25.2423 78.7047C25.515 78.759 25.7777 78.7059 26.0094 78.5546C26.262 78.3941 26.4329 78.1327 26.4778 77.8397C26.5009 77.4691 26.5458 77.1761 26.4274 76.9919Z" fill="#A0CBFD"/>
<path d="M36.3731 78.1403C36.6409 78.6069 36.7004 79.1648 36.538 79.671L36.0438 82.2736L34.7036 81.9419L35.2171 79.4675C35.2745 79.2311 35.266 78.9862 35.1801 78.763C35.0315 78.5672 34.8088 78.4288 34.5603 78.4011C34.3235 78.3434 34.0817 78.3874 33.8766 78.5146C33.6807 78.6626 33.5424 78.8849 33.515 79.133L33.0015 81.6074L31.6614 81.2756L32.1748 78.8013C32.2322 78.5648 32.2238 78.32 32.1378 78.0968C31.9893 77.9009 31.7666 77.7625 31.5181 77.7348C31.2812 77.6772 31.0394 77.7211 30.8344 77.8483C30.6385 77.9964 30.5001 78.2186 30.4727 78.4667L29.9593 80.9411L28.5508 80.6518L29.5461 76.1394L30.9547 76.4287L30.799 77.0064C31.004 76.8792 31.2183 76.7728 31.4417 76.6872C31.7044 76.6342 31.9888 76.6585 32.2498 76.7429C32.5767 76.8356 32.8861 76.9732 33.1722 77.1708C33.4133 77.3509 33.5835 77.6242 33.6404 77.9223C33.893 77.7618 34.103 77.533 34.3923 77.4558C34.705 77.3187 35.0519 77.3156 35.3463 77.4475C35.7223 77.3695 36.111 77.6588 36.3731 78.1403Z" fill="#A0CBFD"/>
<path d="M41.6958 75.4333L37.5544 84.1216L36.2143 83.7899L40.4216 75.1099L41.6958 75.4333Z" fill="#A0CBFD"/>
<path d="M41.4071 79.7657C41.6313 79.4562 41.9581 79.2383 42.3433 79.1811C42.746 79.079 43.1763 79.0394 43.5866 79.0956C44.1654 79.2518 44.5557 79.4037 44.8803 79.8578C45.2073 80.2611 45.3651 80.7883 45.3345 81.3112L43.8659 80.9986C43.8291 80.6047 43.6505 80.3972 43.2136 80.3652C42.9767 80.3075 42.7349 80.3514 42.5298 80.4787C42.3823 80.68 42.1898 80.8639 42.1491 81.2794C42.0683 81.5758 42.0835 81.8922 42.1762 82.1871C42.2772 82.4162 42.479 82.5637 42.7275 82.5914C43.0453 82.6633 43.3671 82.547 43.5438 82.2707L45.0124 82.5834C44.8199 83.0778 44.459 83.4722 44.0039 83.7091C43.522 83.9702 43.0075 83.9598 42.4713 83.8719C42.0576 83.7799 41.6223 83.6105 41.3837 83.3797C41.0734 83.1554 40.8548 82.8288 40.7912 82.459C40.6793 82.0359 40.6599 81.5971 40.7273 81.1575C41.0222 80.4441 41.0904 80.0911 41.4071 79.7657Z" fill="#A0CBFD"/>
<path d="M53.512 81.7539C53.7799 82.2204 53.8394 82.7784 53.677 83.2845L53.1828 85.8871L51.8426 85.5554L52.341 83.0752C52.3985 82.8388 52.39 82.5939 52.3099 82.3557C52.1613 82.1599 51.9386 82.0215 51.6901 81.9938C51.4533 81.9361 51.2115 81.9801 51.0064 82.1073C50.8105 82.2554 50.6722 82.4776 50.6448 82.7257L50.1314 85.2001L48.7912 84.8683L49.3046 82.394C49.362 82.1575 49.3536 81.9127 49.2676 81.6895C49.1191 81.4937 48.8964 81.3552 48.6479 81.3275C48.411 81.2699 48.1692 81.3138 47.9642 81.4411C47.7683 81.5891 47.6299 81.8113 47.6025 82.0595L47.0891 84.5338L45.6806 84.2445L46.6759 79.7321L48.0995 80.0272L47.9438 80.605C48.1489 80.4778 48.3631 80.3714 48.5866 80.2858C48.8492 80.2327 49.1336 80.2571 49.3946 80.3414C49.7215 80.4341 50.031 80.5718 50.3171 80.7694C50.5581 80.9495 50.7284 81.2227 50.7852 81.5209C51.0378 81.3604 51.2478 81.1316 51.5371 81.0544C51.8498 80.9172 52.1967 80.9142 52.4911 81.046C52.8839 81.1471 53.2542 81.3947 53.512 81.7539Z" fill="#A0CBFD"/>
<path d="M55.538 80.5031C55.8472 80.3301 56.2116 80.2821 56.5385 80.3748C56.7871 80.4025 57.0122 80.4901 57.1991 80.6319C57.3501 80.7769 57.4802 80.931 57.5895 81.0943C57.6572 81.2759 57.6623 81.485 57.6223 81.6764C57.5916 81.8888 57.4857 82.0719 57.3015 82.19C57.174 82.2956 57.0072 82.3687 56.843 82.3911C56.9848 82.5153 57.1091 82.6844 57.2509 82.8086C57.3127 83.0052 57.3386 83.2051 57.3287 83.4082C57.3038 83.6056 57.198 83.7887 57.0529 83.9393C56.9229 84.0957 56.7387 84.2138 56.5477 84.2603C56.3118 84.2892 56.0666 84.2973 55.8423 84.2963C55.4737 84.2219 55.1517 84.0276 54.9156 83.7459C54.7095 83.476 54.6402 83.1212 54.6808 82.7057L55.5473 82.9221L55.5842 83.316C55.6752 83.4376 55.7986 83.5202 55.9337 83.5728C56.0621 83.5537 56.1822 83.6004 56.2681 83.5131C56.3539 83.4257 56.4606 83.3292 56.4564 83.2068C56.4638 83.0544 56.4296 82.9203 56.3595 82.7895C56.2177 82.6653 56.0525 82.6011 55.8641 82.5968L55.6756 82.5924L55.8504 81.8323L56.0389 81.8366C56.2006 81.8651 56.3741 81.8636 56.5534 81.8471C56.6968 81.8339 56.8001 81.7016 56.7867 81.5583C56.7675 81.4301 56.8141 81.3102 56.7265 81.2244C56.6806 81.1202 56.5872 81.0494 56.4796 81.0593C56.3512 81.0783 56.2311 81.0316 56.1453 81.1189C56.0594 81.2063 55.9527 81.3028 55.9803 81.3653L55.1138 81.1489C55.037 80.9465 55.2311 80.6252 55.538 80.5031Z" fill="#A0CBFD"/>
<path d="M15.7967 58.6038L4.68595 56.1953C4.39241 56.1501 4.25469 55.8377 4.23706 55.5721L4.26039 55.5122C4.30529 55.2191 4.61793 55.0819 4.88975 55.0497L16.0005 57.4581C16.294 57.5033 16.4317 57.8157 16.4494 58.0814L16.426 58.1413C16.4203 58.4669 16.1077 58.604 15.7967 58.6038Z" fill="#A0CBFD"/>
<path d="M68.262 69.7357L31.0529 61.8127C30.7594 61.7674 30.6217 61.455 30.589 61.1836L30.6124 61.1236C30.6573 60.8305 30.9699 60.6934 31.2417 60.6612L68.4508 68.5842C68.7444 68.6295 68.8821 68.9418 68.9147 69.2133L68.8914 69.2733C68.894 69.5331 68.6898 69.7469 68.4447 69.755C68.373 69.7616 68.3221 69.7591 68.262 69.7357Z" fill="#A0CBFD"/>
<path d="M27.3057 56.9025C34.1568 58.3899 38.508 64.9695 37.1382 71.4499C35.7643 78.0149 29.0199 82.1739 22.1688 80.6865C15.3178 79.199 10.9666 72.6195 12.3266 66.164C13.7353 59.5838 20.4256 55.4899 27.3057 56.9025Z" fill="#1E5AF6"/>
<path d="M21.7716 62.3892C21.8284 62.0951 22.1256 61.9233 22.4202 61.9805C22.4952 62.0097 22.5702 62.0388 22.6356 62.093L30.3589 69.5536C30.6952 69.7995 30.5203 70.2488 30.1384 70.4163L20.1151 74.0468C19.7331 74.2143 19.2508 73.8255 19.4716 73.4802L21.7716 62.3892Z" fill="white"/>
<path d="M3.02471 58.9711C2.30107 58.9192 1.62037 58.608 1.10736 58.0947C0.594357 57.5815 0.283402 56.9004 0.231475 56.1763L0.0910234 54.4485H-0.0962253L-0.226264 56.1711C-0.278191 56.8952 -0.589146 57.5762 -1.10215 58.0895C-1.61516 58.6028 -2.29586 58.914 -3.0195 58.9659L-4.74121 59.096V59.2886L-3.0195 59.4187C-2.29586 59.4706 -1.61516 59.7818 -1.10215 60.2951C-0.589146 60.8084 -0.278191 61.4894 -0.226264 62.2135L-0.0962253 63.9361H0.09623L0.226269 62.2135C0.279542 61.4895 0.591783 60.809 1.10575 60.2967C1.61971 59.7844 2.30097 59.4745 3.02471 59.4239L4.74642 59.2938V59.1012L3.02471 58.9711Z" fill="white"/>
<path d="M26.5834 15.9987C25.7836 15.9413 25.0312 15.5974 24.4642 15.0301C23.8972 14.4628 23.5535 13.71 23.4961 12.9097L23.3409 11H23.1339L22.9902 12.904C22.9328 13.7042 22.5891 14.457 22.0221 15.0243C21.4551 15.5916 20.7028 15.9355 19.9029 15.9929L18 16.1367V16.3496L19.9029 16.4934C20.7028 16.5508 21.4551 16.8947 22.0221 17.462C22.5891 18.0293 22.9328 18.7821 22.9902 19.5823L23.1339 21.4863H23.3466L23.4904 19.5823C23.5493 18.7822 23.8944 18.0301 24.4624 17.4638C25.0305 16.8976 25.7835 16.5551 26.5834 16.4991L28.4863 16.3553V16.1425L26.5834 15.9987Z" fill="white"/>
<path d="M70.724 78.1872C69.9715 77.9429 69.4601 77.4472 69.1396 77.0178C68.305 75.9018 68.0361 74.3157 67.9554 73.1803C67.8455 71.5997 67.9889 70.6243 68.3825 70.2815L69.6473 70.3183L69.5209 69.8572L70.6273 70.1746C71.0236 70.0652 69.794 71.4172 69.8246 71.3037C69.6764 71.8714 69.6232 75.3078 70.9522 76.2752C71.7407 76.8484 73.0216 76.2615 73.9585 75.6633L74.9397 77.2052C73.0613 78.4001 71.6926 78.501 70.724 78.1872Z" fill="#2238A8"/>
<path d="M81.0761 77.6331C80.6123 77.4821 80.1802 77.2472 79.8013 76.9401C77.324 74.9474 77.4992 70.3179 77.5074 70.1218L79.3335 70.2011C79.2883 71.2826 79.4904 74.347 80.9492 75.5174C81.5914 76.0343 82.4465 76.1431 83.5536 75.8481L84.0231 77.6146C82.9243 77.9072 81.938 77.9129 81.0761 77.6331Z" fill="#2238A8"/>
<path d="M50.4678 72.5045C50.1897 72.4877 49.9248 72.421 49.6624 72.3713C46.3215 71.741 44.034 70.1851 42.5038 68.2307C39.0818 63.8661 39.4244 57.5136 40.2268 55.0421C41.3935 51.4486 43.8784 52.8898 44.0573 52.999C40.7914 50.3533 45.3995 47.2565 45.8008 49.0587C46.202 50.861 46.0577 54.3439 50.4151 58.2837C50.4795 58.3426 50.5446 58.3993 50.6106 58.4494L50.6097 58.4522C51.5069 59.2213 52.6142 59.7036 53.7884 59.8369C56.0315 60.1002 58.0263 59.1245 58.6381 58.9866C64.3509 57.6979 64.0314 73.3165 50.4678 72.5045Z" fill="url(#paint3_linear_5811_228185)"/>
<path d="M81.1672 28.2779C79.9003 30.3549 72.8672 34.9422 71.577 35.8975C71.8599 35.7937 77.0896 33.8533 77.8387 35.323C78.6114 36.8389 78.0039 38.9867 76.1373 39.4601C74.2707 39.9334 67.6342 37.8717 67.6342 37.8717C67.6342 37.8717 67.7741 37.6193 68.0345 37.1915L67.548 37.0336C67.548 37.0336 66.7958 36.322 66.0205 35.1287C66.0214 35.1258 66.0167 35.1212 66.0167 35.1212C64.6703 33.0345 63.2618 29.4906 65.6418 25.6816C66.0098 25.3274 66.5441 26.6794 67.0842 28.5878C67.7477 30.9332 68.4215 34.1146 68.7952 35.9846C68.9293 35.7789 69.0768 35.5606 69.2315 35.3317C69.2315 35.3317 69.2371 35.3241 69.2493 35.3057C71.6881 31.7377 76.5207 25.8788 81.1418 27.3791C81.4433 27.5443 81.421 27.8605 81.1672 28.2779Z" fill="url(#paint4_linear_5811_228185)"/>
<path d="M86.6409 66.502C86.4337 66.3724 98.0569 48.3799 100.311 44.8958C100.354 44.8292 100.381 44.7533 100.389 44.6743C100.397 44.5953 100.386 44.5156 100.357 44.4416C100.328 44.3677 100.282 44.3016 100.223 44.2489C100.164 44.1961 100.093 44.1582 100.016 44.1383C97.6482 43.6949 95.2051 43.0382 92.7014 42.2073C92.4742 42.1474 92.2332 42.1693 92.0205 42.269C91.8077 42.3687 91.6367 42.54 91.5373 42.7529L81.9675 63.2398L86.6409 66.502Z" fill="url(#paint5_linear_5811_228185)"/>
<path d="M58.5207 59.091C58.5207 59.091 60.1925 65.9005 65.145 70.0727C69.4398 73.6912 81.5729 73.0692 84.1152 70.5201C86.8778 67.7495 89.1398 60.9682 84.3251 58.0223C79.0098 54.7698 58.5207 59.091 58.5207 59.091Z" fill="url(#paint6_linear_5811_228185)"/>
<path d="M72.5148 42.2968C72.5148 42.2968 72.9181 37.8666 77.9743 38.6351C80.4512 39.0111 86.4084 41.0617 87.2446 44.9595C87.6731 46.9544 85.1106 54.0893 84.3082 55.9832C82.1488 61.0778 81.6121 63.9958 79.1768 64.841C74.0073 66.6344 68.5891 64.1999 67.3208 63.742C66.0525 63.2841 70.3789 59.5044 70.3789 59.5044L72.5148 42.2968Z" fill="url(#paint7_linear_5811_228185)"/>
<path d="M71.1726 65.6036C68.2504 65.2825 65.3803 64.9489 63.3203 64.4191C58.2617 63.4586 55.2488 60.5878 55.5313 54.0139C55.5442 53.7265 55.5624 53.4345 55.587 53.1321C55.6733 52.0679 55.7833 50.9794 55.9169 49.8665C56.1994 47.4468 56.5873 44.9303 57.0806 42.3168C57.9207 38.2497 61.2906 35.5641 65.5107 36.2668C66.6054 36.4265 67.6901 36.5939 68.7647 36.7692C70.6426 37.0805 72.4876 37.4236 74.2996 37.7983L74.5656 37.856C75.717 38.0982 76.8519 38.3578 77.9704 38.6349C82.4903 39.4392 84.451 43.2148 83.6033 46.6955C82.8443 50.7491 81.5509 54.7444 80.4211 58.6084C78.9912 63.293 77.152 65.9084 71.1726 65.6036Z" fill="url(#paint8_linear_5811_228185)"/>
<path d="M97.6344 74.2299C96.2673 75.0353 94.7476 75.5475 93.172 75.7338C92.2888 75.8401 91.3971 75.8555 90.5108 75.7797C85.2695 75.3432 80.5207 71.8122 78.3865 66.3887C77.4951 64.1232 78.3011 60.5541 82.1539 61.0777C84.9202 61.6524 87.3598 61.9321 89.5759 61.9599C90.8606 61.9796 92.145 61.9039 93.4185 61.7336C97.2503 61.2065 100.454 59.8124 103.755 57.8218C103.892 57.8025 104.032 57.8117 104.165 57.8487C104.299 57.8858 104.423 57.9499 104.53 58.0372C104.638 58.1244 104.726 58.2328 104.79 58.3558C104.854 58.4787 104.891 58.6134 104.901 58.7515C105.306 65.2887 102.405 71.4321 97.6344 74.2299Z" fill="url(#paint9_linear_5811_228185)"/>
<path d="M86.2785 79.6354C86.3205 79.6947 86.3487 79.7628 86.3609 79.8345C86.3731 79.9062 86.3691 79.9797 86.349 80.0496C86.3289 80.1195 86.2934 80.184 86.245 80.2383C86.1966 80.2927 86.1367 80.3354 86.0695 80.3634C85.4842 80.6016 84.8324 80.6197 84.2348 80.4144C83.6371 80.2091 83.1341 79.7943 82.8186 79.2467C82.5032 78.6991 82.3967 78.0558 82.5189 77.4357C82.641 76.8156 82.9836 76.2607 83.4832 75.8737C83.4944 75.8654 83.5071 75.8594 83.5206 75.8561C83.5342 75.8528 83.5482 75.8522 83.5619 75.8544C83.5757 75.8566 83.5889 75.8615 83.6007 75.8689C83.6125 75.8763 83.6227 75.8859 83.6307 75.8973C84.2321 77.1139 85.3087 78.6668 86.2785 79.6354Z" fill="url(#paint10_linear_5811_228185)"/>
<path d="M77.3155 78.924C77.3669 78.9754 77.406 79.0378 77.4301 79.1064C77.4541 79.1751 77.4624 79.2483 77.4544 79.3206C77.4463 79.3929 77.4222 79.4624 77.3836 79.5241C77.3451 79.5858 77.2932 79.6381 77.2317 79.677C76.6945 80.011 76.0544 80.139 75.4301 80.0372C74.8058 79.9354 74.2396 79.6108 73.8363 79.1234C73.433 78.6361 73.2199 78.0191 73.2366 77.3867C73.2534 76.7543 73.4987 76.1493 73.9272 75.6839C73.9368 75.6738 73.9483 75.6658 73.9611 75.6603C73.9739 75.6547 73.9876 75.6518 74.0015 75.6516C74.0154 75.6514 74.0293 75.654 74.0422 75.6592C74.0551 75.6644 74.0668 75.6722 74.0767 75.682C74.8741 76.7822 76.1966 78.1326 77.3155 78.924Z" fill="url(#paint11_linear_5811_228185)"/>
<path d="M97.6319 74.2296C96.2648 75.035 94.7452 75.5471 93.1695 75.7335C92.2864 75.8398 91.3946 75.8551 90.5083 75.7794C89.3467 74.0219 88.5223 71.1948 90.9638 67.5803C90.9638 67.5803 87.0725 65.0164 89.5743 61.9567C90.859 61.9764 92.1434 61.9008 93.4169 61.7304C92.8487 62.9587 92.9377 64.717 95.5866 66.8164C95.5834 66.8185 93.0658 72.936 97.6319 74.2296Z" fill="#A0CBFD"/>
<path d="M50.6373 64.5812C51.8041 67.7949 50.8519 70.5089 49.6615 72.3715C46.3207 71.7411 44.0331 70.1852 42.503 68.2308C46.7658 69.5525 47.0693 62.0481 47.0693 62.0481C49.0956 62.2479 50.1129 60.2082 50.609 58.4536C51.5063 59.2227 52.6136 59.7051 53.7878 59.8383C54.1397 63.9634 50.6373 64.5812 50.6373 64.5812Z" fill="#A0CBFD"/>
<path d="M59.545 53.8934C58.9134 54.9309 57.2374 55.063 55.7983 54.1888C55.7072 54.1337 55.6175 54.0759 55.5321 54.0127C55.5451 53.7252 55.5632 53.4332 55.5879 53.1309C55.6742 52.0667 55.7841 50.9781 55.9178 49.8653C56.591 49.8146 57.3657 50.002 58.0798 50.4357C59.5191 51.3112 60.1725 52.8588 59.545 53.8934Z" fill="#4A83F9"/>
<path d="M65.0507 36.0899C66.1454 36.2496 67.6931 36.5978 68.7678 36.773C67.8162 36.6946 66.2053 36.4886 64.9973 36.471C58.1048 36.3665 57.0824 42.3189 57.0824 42.3189C57.9224 38.2518 60.8292 35.3855 65.0507 36.0899Z" fill="url(#paint12_linear_5811_228185)"/>
<path d="M76.3644 56.0299C78.1332 55.9218 79.504 54.8001 79.4262 53.5245C79.3484 52.2489 77.8514 51.3025 76.0826 51.4105C74.3138 51.5186 72.943 52.6403 73.0208 53.9159C73.0986 55.1915 74.5956 56.138 76.3644 56.0299Z" fill="#4A83F9"/>
<path d="M58.269 51.5409C56.7138 51.0359 55.393 50.0182 54.5936 48.6937C53.836 47.4363 53.6042 45.9988 53.9421 44.6452C54.7013 41.6062 58.1037 39.8168 61.5267 40.6564C63.2997 41.093 64.8242 42.1819 65.7079 43.6478C66.4661 44.9054 66.6977 46.3435 66.3594 47.6963C65.6002 50.7353 62.1979 52.5247 58.7748 51.6851C58.6041 51.643 58.4355 51.5949 58.269 51.5409ZM61.752 41.6705C61.6066 41.6233 61.4589 41.5812 61.3089 41.5441C58.3735 40.8242 55.4664 42.3146 54.829 44.8671C54.5504 45.9825 54.745 47.1737 55.3764 48.223C56.1353 49.4821 57.4521 50.42 58.9923 50.7985C61.9282 51.5186 64.8347 50.0281 65.4727 47.4757C65.7513 46.3603 65.5567 45.1692 64.9254 44.1198C64.2399 42.9837 63.0992 42.1079 61.752 41.6705Z" fill="#FEE643"/>
<path d="M73.5491 54.0896C71.9539 53.5717 70.5991 52.528 69.7802 51.1697C69.003 49.8804 68.7655 48.4067 69.1121 47.0205C69.8908 43.9044 73.3794 42.07 76.8888 42.9314C78.7078 43.378 80.271 44.4956 81.1767 45.9992C81.954 47.2879 82.1923 48.7594 81.8447 50.1484C81.0668 53.2642 77.5777 55.0984 74.0681 54.2375C73.8927 54.1943 73.7193 54.1449 73.5491 54.0896ZM77.1274 43.9486C76.9775 43.8999 76.8257 43.8569 76.6712 43.8186C73.6485 43.0778 70.6548 44.6123 69.9987 47.2417C69.7115 48.3911 69.9124 49.6185 70.5627 50.6978C71.3444 51.9941 72.7003 52.9615 74.2859 53.3498C77.3084 54.0911 80.3017 52.5559 80.9584 49.9267C81.2456 48.7773 81.0446 47.5498 80.3941 46.4712C79.6888 45.3005 78.513 44.3984 77.1274 43.9486Z" fill="#FEE643"/>
<path d="M65.8739 47.5259C65.7791 47.4954 65.6969 47.4347 65.6398 47.353C65.5827 47.2714 65.5538 47.1734 65.5575 47.0738C65.5613 46.9743 65.5975 46.8787 65.6605 46.8016C65.7236 46.7245 65.8101 46.6701 65.907 46.6468C65.9741 46.6318 67.5483 46.2741 69.6548 47.3593C69.7081 47.3868 69.7555 47.4246 69.7942 47.4704C69.833 47.5162 69.8623 47.5693 69.8806 47.6264C69.8989 47.6836 69.9057 47.7438 69.9007 47.8036C69.8957 47.8634 69.879 47.9217 69.8515 47.975C69.824 48.0284 69.7862 48.0758 69.7404 48.1146C69.6946 48.1533 69.6416 48.1827 69.5844 48.2009C69.5272 48.2192 69.467 48.2261 69.4072 48.2211C69.3474 48.2161 69.2892 48.1993 69.2358 48.1718C67.4508 47.252 66.1292 47.534 66.1158 47.5371C66.0356 47.5551 65.9521 47.5512 65.8739 47.5259Z" fill="#FEE643"/>
<path d="M59.2899 39.2194C59.743 38.9856 60.215 38.7902 60.7008 38.6354C61.1859 38.4751 61.6826 38.3517 62.1864 38.2665C62.7 38.1822 63.2199 38.1425 63.7403 38.1478C64.2762 38.1619 64.8089 38.234 65.3293 38.3627C65.4056 38.3814 65.4775 38.415 65.5409 38.4615C65.6043 38.508 65.6579 38.5666 65.6986 38.6339C65.7394 38.7011 65.7665 38.7757 65.7784 38.8534C65.7903 38.9312 65.7868 39.0105 65.768 39.0868C65.7493 39.1632 65.7157 39.2351 65.6692 39.2985C65.6226 39.3619 65.5641 39.4155 65.4968 39.4563C65.4296 39.497 65.355 39.5241 65.2773 39.536C65.1995 39.548 65.1202 39.5445 65.0439 39.5257C65.0216 39.5201 64.9998 39.513 64.9785 39.5045L64.961 39.4988C64.5414 39.3402 64.1062 39.226 63.6627 39.1583C63.2029 39.0981 62.7387 39.0773 62.2753 39.0962C61.8017 39.1174 61.3304 39.1739 60.8652 39.2653C60.3994 39.354 59.9415 39.4805 59.4962 39.6434L59.4828 39.6484C59.4278 39.6643 59.369 39.6598 59.3171 39.6357C59.2653 39.6117 59.2238 39.5697 59.2005 39.5175C59.1771 39.4653 59.1735 39.4064 59.1901 39.3517C59.2067 39.297 59.2426 39.2501 59.2911 39.2197L59.2899 39.2194Z" fill="#2238A8"/>
<path d="M74.8881 39.9143C76.1187 40.0852 77.3122 40.4593 78.4201 41.0216C78.9675 41.3075 79.4803 41.6553 79.9484 42.0582C80.409 42.47 80.8049 42.9488 81.1227 43.4786C81.1525 43.53 81.162 43.5908 81.1491 43.6489C81.1363 43.707 81.102 43.7581 81.0532 43.7921C81.0045 43.8261 80.9447 43.8406 80.8857 43.8326C80.8268 43.8246 80.773 43.7947 80.7351 43.7489L80.7248 43.7359C80.3839 43.298 79.9793 42.9136 79.5245 42.5956C79.0641 42.2879 78.5701 42.0337 78.0522 41.8378C77.5298 41.6466 76.9922 41.4998 76.4452 41.399C75.9086 41.2973 75.3643 41.241 74.8182 41.2307L74.7993 41.2303C74.6267 41.2253 74.4628 41.1529 74.3428 41.0286C74.2228 40.9043 74.1563 40.7379 74.1573 40.5652C74.1584 40.3924 74.227 40.2269 74.3484 40.104C74.4699 39.9812 74.6346 39.9107 74.8074 39.9077C74.8332 39.9093 74.8626 39.9117 74.8881 39.9143Z" fill="#2238A8"/>
<path d="M59.5266 49.4487C58.1269 48.9943 57.3861 47.3896 57.8781 45.8742C58.3701 44.3588 59.9124 43.4948 61.312 43.9492C62.3115 44.2736 62.9741 45.1824 63.0917 46.227C63.0971 46.2863 63.1195 46.3428 63.1563 46.3895C63.1931 46.4363 63.2427 46.4714 63.299 46.4906C63.3467 46.5064 63.3976 46.5101 63.4471 46.5014C63.4966 46.4926 63.5431 46.4717 63.5825 46.4404C63.6219 46.4092 63.6529 46.3686 63.6727 46.3224C63.6925 46.2762 63.7005 46.2258 63.6959 46.1758C63.5563 44.894 62.7369 43.7711 61.4985 43.3691C59.7776 42.8104 57.8925 43.8511 57.297 45.6856C56.7014 47.52 57.6166 49.4723 59.3375 50.0311C60.4886 50.4048 61.7157 50.0622 62.5771 49.2438C62.614 49.207 62.6408 49.1614 62.655 49.1112C62.6691 49.0611 62.67 49.0082 62.6577 48.9575C62.6454 48.9069 62.6202 48.8603 62.5846 48.8223C62.549 48.7843 62.5042 48.756 62.4546 48.7404C62.4016 48.724 62.3452 48.7222 62.2913 48.7352C62.2374 48.7482 62.188 48.7755 62.1483 48.8142C61.4445 49.4737 60.455 49.7501 59.5266 49.4487Z" fill="#2238A8"/>
<path d="M59.5077 49.4356C60.9313 49.8978 62.4837 49.0458 62.9749 47.5326C63.4662 46.0193 62.7104 44.418 61.2867 43.9558C59.8631 43.4936 58.3107 44.3456 57.8195 45.8588C57.3282 47.372 58.084 48.9734 59.5077 49.4356Z" fill="white"/>
<path d="M60.2978 49.0746C61.4792 49.3464 62.6693 48.5571 62.9559 47.3116C63.2424 46.0662 62.5169 44.8362 61.3355 44.5644C60.154 44.2926 58.964 45.0819 58.6774 46.3274C58.3909 47.5728 59.1163 48.8028 60.2978 49.0746Z" fill="#2238A8"/>
<path d="M71.5164 48.5694C71.7 48.3436 71.9043 48.1353 72.1265 47.9474C72.3433 47.76 72.5751 47.5905 72.8194 47.4407C73.3235 47.1281 73.8885 46.9268 74.4766 46.8502C75.0785 46.7725 75.6902 46.8386 76.2615 47.0432C76.5569 47.1198 76.8042 47.2774 77.075 47.4008C77.3295 47.5458 77.5623 47.7155 77.8065 47.8751C77.9448 47.9655 78.0415 48.1071 78.0755 48.2688C78.1094 48.4305 78.0777 48.5991 77.9873 48.7374C77.8969 48.8758 77.7553 48.9726 77.5936 49.0065C77.4319 49.0404 77.2634 49.0087 77.1251 48.9184L77.0991 48.9006L77.0231 48.8447C76.8369 48.7082 76.6576 48.5522 76.4658 48.4251C76.2662 48.3223 76.0774 48.1744 75.8653 48.1099C75.4594 47.9276 75.0153 47.8465 74.5712 47.8736C74.1156 47.9015 73.6713 48.0267 73.2681 48.2407C72.8508 48.4587 72.4712 48.7421 72.1438 49.0803L72.1211 49.1041C72.0498 49.183 71.9504 49.2306 71.8442 49.2367C71.7381 49.2428 71.6339 49.2068 71.5541 49.1366C71.4743 49.0663 71.4254 48.9675 71.418 48.8615C71.4105 48.7554 71.4452 48.6507 71.5144 48.57L71.5164 48.5694Z" fill="#2238A8"/>
<path d="M66.0208 35.1192C64.6745 33.0325 63.2659 29.4886 65.6459 25.6796C66.0139 25.3254 66.5483 26.6774 67.0883 28.5858C66.5362 27.3365 65.9493 26.3134 65.6055 26.81C64.018 29.1145 65.3459 33.3346 66.0208 35.1192Z" fill="url(#paint13_linear_5811_228185)"/>
<path d="M81.169 28.2783C81.1084 28.0505 80.92 27.8709 80.5693 27.7571C76.1399 26.319 69.6532 34.7761 69.253 35.3061C71.69 31.7381 76.5226 25.8793 81.1437 27.3795C81.4452 27.5447 81.4229 27.8609 81.169 28.2783Z" fill="url(#paint14_linear_5811_228185)"/>
<path d="M40.669 57.3338C40.8835 57.4999 41.1114 57.648 41.3502 57.7768C41.5833 57.8973 41.8325 57.9838 42.0372 57.9811C42.2418 57.9784 42.3712 57.8889 42.4913 57.711C42.5611 57.6377 42.5988 57.5122 42.6595 57.4116C42.7086 57.2967 42.7515 57.1723 42.8121 57.053L42.8316 57.0138C42.8572 56.9621 42.9004 56.921 42.9533 56.898C43.0063 56.8749 43.0658 56.8713 43.1211 56.8879C43.1765 56.9044 43.2242 56.94 43.2558 56.9884C43.2874 57.0368 43.3009 57.0947 43.2939 57.1521C43.2789 57.3079 43.2524 57.4624 43.2149 57.6144C43.1518 57.7684 43.114 57.925 42.9935 58.0697C42.8879 58.2282 42.742 58.3557 42.5708 58.4391C42.4837 58.4848 42.3895 58.5153 42.2922 58.5294C42.1991 58.5478 42.1037 58.5507 42.0096 58.538C41.6431 58.4982 41.3625 58.3279 41.1166 58.149C40.8749 57.9693 40.6598 57.7564 40.4776 57.5165C40.4569 57.4911 40.4464 57.4589 40.4479 57.4261C40.4495 57.3933 40.4631 57.3623 40.4861 57.3389C40.5091 57.3155 40.5399 57.3015 40.5727 57.2994C40.6054 57.2973 40.6378 57.3074 40.6635 57.3276L40.669 57.3338Z" fill="#1E5AF6"/>
<path d="M41.5447 52.9907C41.5447 52.9907 43.0534 50.971 44.2404 53.2165C45.3867 55.3841 43.777 58.567 42.7892 56.535C42.0593 55.0273 41.5447 52.9907 41.5447 52.9907Z" fill="#4A83F9"/>
<path d="M44.4045 53.3722C44.6276 54.0675 44.7659 54.7872 44.8164 55.5157C44.8439 55.8951 44.8222 56.2764 44.7516 56.6501C44.7116 56.8534 44.6421 57.0498 44.5455 57.2332C44.4358 57.4473 44.2632 57.6226 44.0509 57.7356C43.9188 57.7998 43.7711 57.8243 43.6254 57.8063C43.4956 57.7892 43.3709 57.7445 43.2598 57.6751C43.0817 57.5606 42.9243 57.4168 42.7942 57.2497C42.5605 56.9551 42.3616 56.6343 42.2016 56.294C41.8835 55.6429 41.6256 54.964 41.4312 54.2659C41.4168 54.2167 41.4219 54.1638 41.4454 54.1182C41.4689 54.0726 41.5091 54.0378 41.5576 54.021C41.606 54.0042 41.6591 54.0067 41.7058 54.028C41.7524 54.0493 41.7891 54.0877 41.8083 54.1353L41.8104 54.1403C42.0697 54.7878 42.3646 55.4205 42.6936 56.0355C42.853 56.3303 43.0378 56.6105 43.2461 56.873C43.3354 56.9864 43.4427 57.0844 43.5638 57.1631C43.6748 57.2203 43.7251 57.2248 43.7852 57.1932C43.8829 57.1295 43.9634 57.0426 44.0194 56.9402C44.0906 56.8101 44.1425 56.6704 44.1734 56.5253C44.2381 56.1995 44.2648 55.8673 44.253 55.5354C44.2447 54.8546 44.1483 54.1534 44.0298 53.4687L44.0284 53.4614C44.019 53.4124 44.0287 53.3617 44.0556 53.3197C44.0825 53.2776 44.1245 53.2476 44.173 53.2357C44.2214 53.2238 44.2726 53.231 44.3159 53.2558C44.3592 53.2806 44.3913 53.321 44.4056 53.3688L44.4045 53.3722Z" fill="#1E5AF6"/>
<path d="M63.1404 54.0268C63.1592 54.2492 64.0044 54.3173 65.0893 54.3056C66.7851 54.2853 69.0657 54.0685 69.6772 53.9411C69.8779 53.8985 69.7775 53.6801 69.7143 53.6347C68.5772 52.815 67.0036 51.6049 66.3868 51.409C66.3328 51.3914 66.2761 51.384 66.2194 51.3871C66.175 51.3889 66.1311 51.3986 66.09 51.4154C65.2903 51.731 63.1136 53.7122 63.1404 54.0268Z" fill="#F6C516"/>
<path d="M63.1731 57.85C63.0852 58.1206 63.7976 61.9165 65.8938 62.3191C66.1691 62.3717 66.4523 62.3667 66.7255 62.3043C69.4327 61.7193 70.9391 58.1216 70.9642 57.954L70.9655 57.95L67.1321 57.1C67.1321 57.1 63.2716 57.5467 63.1731 57.85Z" fill="#F6C516"/>
<path d="M65.091 54.3072C66.7868 54.2869 69.0673 54.0701 69.6788 53.9427C69.8796 53.9 69.7791 53.6817 69.716 53.6363C68.5789 52.8165 67.0052 51.6064 66.3884 51.4105C66.3345 51.393 66.2777 51.3856 66.2211 51.3886C66.1163 51.5781 66.0444 51.784 66.0084 51.9976C65.8623 52.7123 65.349 53.6275 65.091 54.3072Z" fill="#FEE643"/>
<path d="M66.3121 59.6144C66.072 60.402 65.9519 61.3383 65.892 62.3191C66.1673 62.3717 66.4505 62.3667 66.7237 62.3043C69.4309 61.7193 70.9373 58.1215 70.9624 57.954L70.9637 57.95L68.0848 59.1099C68.0848 59.1099 66.705 58.3142 66.3121 59.6144Z" fill="#FEE643"/>
<path d="M62.3 56.1932C62.407 57.5659 63.1036 58.8882 64.0387 59.7814C64.77 60.4806 65.6505 60.916 66.5098 60.9064C68.2721 60.8847 70.3239 59.7834 71.2271 57.865C71.3294 57.6503 71.4151 57.4281 71.4834 57.2004C72.1859 54.8734 70.4669 53.8404 69.4678 53.7529C68.4687 53.6653 66.945 54.2649 65.3581 54.0782C63.0736 53.8101 62.1087 53.748 62.3 56.1932Z" fill="#2238A8"/>
<path d="M64.0383 59.7814C64.7696 60.4806 65.6501 60.916 66.5093 60.9065C68.2717 60.8847 70.3234 59.7835 71.2267 57.865C70.0664 57.2933 68.4195 57.0054 66.4802 57.7624C65.4668 58.1492 64.6087 58.8587 64.0383 59.7814Z" fill="#E8641F"/>
</g>
<defs>
<radialGradient id="paint0_radial_5811_228185" cx="0" cy="0" r="1" gradientUnits="userSpaceOnUse" gradientTransform="translate(46.0038 68.2192) rotate(90) scale(115.219 116.996)">
<stop offset="0.104309" stop-color="#A0CBFD"/>
<stop offset="0.811173" stop-color="#A0CBFD" stop-opacity="0"/>
</radialGradient>
<radialGradient id="paint1_radial_5811_228185" cx="0" cy="0" r="1" gradientUnits="userSpaceOnUse" gradientTransform="translate(48 64.5) rotate(90) scale(73.5 74)">
<stop offset="0.486686" stop-color="#ECF6FF"/>
<stop offset="1" stop-color="#ECF6FF" stop-opacity="0"/>
</radialGradient>
<linearGradient id="paint2_linear_5811_228185" x1="39.735" y1="34.4289" x2="10.62" y2="109.25" gradientUnits="userSpaceOnUse">
<stop offset="0.347003" stop-color="white"/>
<stop offset="1" stop-color="#EAF2FD"/>
</linearGradient>
<linearGradient id="paint3_linear_5811_228185" x1="65.0496" y1="61.8895" x2="40.4879" y2="53.9853" gradientUnits="userSpaceOnUse">
<stop stop-color="#1E5AF6"/>
<stop offset="0.888192" stop-color="#4A83F9"/>
</linearGradient>
<linearGradient id="paint4_linear_5811_228185" x1="70.9655" y1="22.7452" x2="69.5513" y2="38.4939" gradientUnits="userSpaceOnUse">
<stop offset="0.0856873" stop-color="#4A83F9"/>
<stop offset="1" stop-color="#1E5AF6"/>
</linearGradient>
<linearGradient id="paint5_linear_5811_228185" x1="94.9102" y1="42.4797" x2="87.0663" y2="66.6401" gradientUnits="userSpaceOnUse">
<stop stop-color="#1E5AF6"/>
<stop offset="0.334533" stop-color="#1A48D0"/>
<stop offset="0.800011" stop-color="#2238A8"/>
</linearGradient>
<linearGradient id="paint6_linear_5811_228185" x1="65.7375" y1="62.4205" x2="88.5632" y2="70.5621" gradientUnits="userSpaceOnUse">
<stop stop-color="#1E5AF6"/>
<stop offset="0.843859" stop-color="#1A48D0"/>
</linearGradient>
<linearGradient id="paint7_linear_5811_228185" x1="83.9175" y1="38.7039" x2="73.5097" y2="71.8882" gradientUnits="userSpaceOnUse">
<stop stop-color="#1E5AF6"/>
<stop offset="1" stop-color="#1A48D0"/>
</linearGradient>
<linearGradient id="paint8_linear_5811_228185" x1="63.1158" y1="32.5996" x2="64.0744" y2="64.7936" gradientUnits="userSpaceOnUse">
<stop stop-color="#4A83F9"/>
<stop offset="0.526063" stop-color="#1E5AF6"/>
</linearGradient>
<linearGradient id="paint9_linear_5811_228185" x1="73.88" y1="60.5478" x2="105.136" y2="69.9775" gradientUnits="userSpaceOnUse">
<stop offset="0.0515872" stop-color="#1E5AF6"/>
<stop offset="0.876719" stop-color="#4A83F9"/>
</linearGradient>
<linearGradient id="paint10_linear_5811_228185" x1="82.6958" y1="76.0026" x2="85.7065" y2="82.2239" gradientUnits="userSpaceOnUse">
<stop stop-color="#E8641F"/>
<stop offset="0.651844" stop-color="#F49B26"/>
</linearGradient>
<linearGradient id="paint11_linear_5811_228185" x1="71.6258" y1="76.4776" x2="77.4236" y2="81.035" gradientUnits="userSpaceOnUse">
<stop offset="0.0990665" stop-color="#E8641F"/>
<stop offset="1" stop-color="#F49B26"/>
</linearGradient>
<linearGradient id="paint12_linear_5811_228185" x1="60.6695" y1="34.3994" x2="62.2834" y2="41.4328" gradientUnits="userSpaceOnUse">
<stop stop-color="#DBEEFF"/>
<stop offset="1" stop-color="#4A83F9"/>
</linearGradient>
<linearGradient id="paint13_linear_5811_228185" x1="66.9209" y1="34.9216" x2="64.4707" y2="24.8712" gradientUnits="userSpaceOnUse">
<stop stop-color="#4A83F9"/>
<stop offset="1" stop-color="#DBEEFF"/>
</linearGradient>
<linearGradient id="paint14_linear_5811_228185" x1="77.2681" y1="23.6285" x2="75.3737" y2="33.0635" gradientUnits="userSpaceOnUse">
<stop stop-color="#DBEEFF"/>
<stop offset="1" stop-color="#4A83F9"/>
</linearGradient>
<clipPath id="clip0_5811_228185">
<rect width="145" height="120" fill="white"/>
</clipPath>
</defs>
</svg>
