<svg width="24" height="25" viewBox="0 0 24 25" fill="none" xmlns="http://www.w3.org/2000/svg">
<g opacity="0.45">
<path opacity="0.45" d="M22.4054 19.2346C21.594 21.975 17.1133 24.2251 12.5917 23.3549C8.07007 22.4848 2.69455 17.2002 3.24477 14.3976C3.795 11.5949 12.1131 10.1508 16.6356 11.0017C21.1582 11.8526 23.4091 15.8495 22.4054 19.2346Z" fill="#B69F21"/>
</g>
<path d="M16.2689 13.1136C16.734 9.20805 13.8851 5.67197 9.90567 5.21553C5.92626 4.75908 2.32329 7.55512 1.85821 11.4606C1.39313 15.3662 4.24206 18.9022 8.22147 19.3587C12.2009 19.8151 15.8039 17.0191 16.2689 13.1136Z" fill="#DAC230"/>
<path d="M9.70502 17.6189C13.6838 17.1572 16.5492 13.7949 16.1051 10.109C15.661 6.4232 12.0756 3.80957 8.09679 4.27133C4.11801 4.73309 1.25259 8.09538 1.6967 11.7812C2.1408 15.4671 5.72625 18.0807 9.70502 17.6189Z" fill="#FEE643"/>
<path d="M12.367 10.4983C14.0581 8.39355 13.6904 5.34194 11.5458 3.68233C9.40124 2.02272 6.29189 2.38358 4.60089 4.48833C2.90989 6.59308 3.27758 9.64469 5.42214 11.3043C7.56671 12.9639 10.676 12.603 12.367 10.4983Z" fill="#DAC230"/>
<path d="M8.90089 10.9451C11.613 10.6304 13.5624 8.30616 13.2549 5.75389C12.9473 3.20163 10.4994 1.38777 7.78726 1.70253C5.0751 2.0173 3.12576 4.34148 3.43328 6.89375C3.7408 9.44602 6.18873 11.2599 8.90089 10.9451Z" fill="#FEEE71"/>
</svg>
