<svg width="16" height="16" viewBox="0 0 16 16" fill="none" xmlns="http://www.w3.org/2000/svg">
<g clip-path="url(#clip0_4406_206448)">
<path d="M8.14247 5.65527H3.33303V9.84457C3.33153 10.1456 3.42029 10.4401 3.58781 10.69C3.75534 10.9399 3.99391 11.1336 4.27263 11.2462C5.18323 11.6075 6.03912 12.0942 6.81561 12.6921C7.19538 12.9837 7.66057 13.1418 8.13912 13.1418C8.61766 13.1418 9.08285 12.9837 9.46262 12.6921C10.2391 12.0942 11.095 11.6075 12.0056 11.2462C12.2843 11.1336 12.5229 10.9399 12.6904 10.69C12.8579 10.4401 12.9467 10.1456 12.9452 9.84457V5.65527H8.14247Z" fill="#660FD2"/>
<path d="M7.39869 3.03737L1.86172 5.87752C1.73147 5.94359 1.62205 6.04454 1.54561 6.16913C1.46918 6.29373 1.42871 6.43711 1.42871 6.58335C1.42871 6.72959 1.46918 6.87297 1.54561 6.99757C1.62205 7.12217 1.73147 7.22311 1.86172 7.28919L7.39869 10.1293C7.62903 10.2476 7.88416 10.3093 8.143 10.3093C8.40184 10.3093 8.65696 10.2476 8.8873 10.1293L14.4243 7.28919C14.5545 7.22311 14.6639 7.12217 14.7404 6.99757C14.8168 6.87297 14.8573 6.72959 14.8573 6.58335C14.8573 6.43711 14.8168 6.29373 14.7404 6.16913C14.6639 6.04454 14.5545 5.94359 14.4243 5.87752L8.8873 3.03737C8.65696 2.9191 8.40184 2.85742 8.143 2.85742C7.88416 2.85742 7.62903 2.9191 7.39869 3.03737Z" fill="#AF75F5"/>
<path d="M11.6054 11.9392C11.4471 11.939 11.2953 11.8759 11.1833 11.7638C11.0713 11.6516 11.0083 11.4995 11.0081 11.3409V8.79789L7.86111 7.10927C7.79049 7.07303 7.72778 7.02306 7.67665 6.96228C7.62552 6.9015 7.587 6.83112 7.56333 6.75526C7.53966 6.6794 7.53131 6.59958 7.53879 6.52045C7.54626 6.44132 7.5694 6.36448 7.60685 6.29441C7.64431 6.22435 7.69532 6.16245 7.75692 6.11235C7.81852 6.06225 7.88947 6.02495 7.96563 6.00262C8.04178 5.98028 8.12162 5.97338 8.20047 5.98229C8.27932 5.99121 8.35561 6.01577 8.42487 6.05455L11.888 7.91257C11.9832 7.96364 12.0629 8.03962 12.1184 8.13243C12.174 8.22523 12.2034 8.33139 12.2034 8.4396V11.3409C12.2033 11.4997 12.1402 11.6518 12.0281 11.764C11.9159 11.8762 11.7639 11.9392 11.6054 11.9392Z" fill="#310764"/>
<path d="M11.6059 10.3525C11.9532 10.3525 12.2862 10.4907 12.5318 10.7367C12.7774 10.9826 12.9153 11.3162 12.9153 11.664V13.1429H10.2979V11.664C10.2979 11.3164 10.4356 10.9831 10.6809 10.7371C10.9262 10.4912 11.2589 10.3529 11.6059 10.3525Z" fill="#310764"/>
</g>
<defs>
<clipPath id="clip0_4406_206448">
<rect width="16" height="16" fill="white"/>
</clipPath>
</defs>
</svg>
